<?xml version="1.0" standalone="no"?>
<!DOCTYPE svg PUBLIC "-//W3C//DTD SVG 20010904//EN"
 "http://www.w3.org/TR/2001/REC-SVG-20010904/DTD/svg10.dtd">
<svg version="1.0" xmlns="http://www.w3.org/2000/svg"
 width="680.000000pt" height="214.000000pt" viewBox="0 0 680.000000 214.000000"
 preserveAspectRatio="xMidYMid meet">

<g transform="translate(0.000000,214.000000) scale(0.100000,-0.100000)"
fill="#000000" stroke="none">
<path d="M450 2120 c-86 -18 -209 -88 -279 -159 -82 -83 -115 -143 -142 -257
-45 -190 -6 -313 153 -480 l91 -95 -31 -44 c-17 -25 -67 -95 -111 -157 -44
-62 -89 -137 -100 -166 -28 -70 -28 -155 -1 -182 25 -25 42 -25 65 0 18 20 18
23 -5 89 -13 37 -20 76 -17 85 9 23 51 37 89 29 52 -9 184 -74 299 -146 59
-37 109 -67 112 -67 4 0 89 58 191 130 101 71 186 130 189 130 2 0 8 -28 11
-62 12 -103 40 -145 134 -200 l29 -17 153 129 c174 147 153 142 260 61 30 -23
59 -41 65 -41 5 0 47 30 93 66 l83 65 90 -72 89 -71 76 67 75 68 -40 41 -41
42 0 240 0 240 78 56 c42 30 82 58 89 62 7 4 22 -8 37 -31 l26 -38 0 -326 c0
-267 -3 -335 -16 -378 -22 -75 -84 -134 -206 -196 -54 -28 -98 -56 -98 -64 0
-19 37 -8 146 43 117 56 196 109 262 180 93 98 92 91 92 474 0 286 -2 337 -16
365 -17 33 -102 127 -116 127 -5 0 -67 -38 -139 -85 -71 -47 -132 -85 -135
-85 -2 0 -4 76 -4 168 0 161 1 170 26 220 14 28 39 63 55 77 39 32 30 47 -19
33 -49 -14 -102 -41 -141 -73 l-31 -27 -61 41 c-34 23 -68 41 -75 41 -22 0
-17 -20 10 -41 13 -11 34 -38 45 -62 20 -42 21 -58 21 -474 l0 -431 -79 -61
-79 -61 -44 33 -43 33 -3 445 c-2 300 1 456 8 482 7 23 32 58 66 91 32 32 50
57 44 61 -27 17 -143 -32 -204 -86 l-36 -31 -42 36 c-66 57 -128 64 -76 8 59
-63 58 -52 58 -529 0 -507 6 -473 -108 -570 -70 -60 -93 -64 -124 -22 -18 23
-20 54 -28 365 -17 651 -16 743 7 794 19 42 68 96 121 130 20 13 21 17 9 34
-13 18 -14 18 -53 -2 -22 -11 -71 -50 -110 -85 l-71 -66 -71 49 c-39 26 -108
63 -154 81 -78 31 -92 33 -218 35 -74 2 -155 -1 -180 -6z m289 -195 c29 -10
55 -24 58 -31 5 -13 -44 -94 -58 -94 -4 0 -35 7 -70 16 -40 10 -78 14 -108 9
-61 -9 -156 -60 -192 -104 -37 -45 -55 -106 -38 -127 10 -12 19 -8 55 26 48
44 80 60 123 60 28 0 121 -28 121 -37 0 -8 -322 -463 -327 -463 -22 0 -81 52
-118 104 -75 105 -95 158 -95 253 0 203 135 357 355 403 65 14 233 5 294 -15z
m202 -241 c4 -60 7 -179 8 -265 1 -135 -1 -158 -15 -163 -50 -19 -301 1 -426
35 l-38 10 81 107 c153 204 341 400 373 389 7 -2 13 -47 17 -113z m-13 -590
l32 -5 0 -75 0 -75 -129 -84 c-72 -47 -135 -85 -141 -85 -23 0 -460 195 -460
205 0 21 32 56 68 74 88 44 458 71 630 45z"/>
<path d="M4910 2096 c-113 -46 -221 -109 -284 -167 -35 -33 -67 -55 -70 -50
-8 13 -126 91 -137 91 -16 0 -9 -27 12 -46 12 -10 30 -36 40 -56 18 -35 19
-65 19 -467 0 -300 -3 -438 -11 -455 -7 -14 -37 -42 -67 -62 l-56 -37 -18 23
c-16 20 -18 47 -18 315 l0 292 33 43 c17 24 36 49 42 56 7 10 5 19 -7 30 -16
16 -20 15 -63 -21 l-46 -37 -27 23 c-15 13 -44 39 -64 58 l-37 34 -122 -81
-122 -80 -37 56 c-21 31 -51 70 -68 86 l-31 28 -125 -86 c-68 -47 -127 -86
-129 -86 -3 0 -7 13 -10 29 -4 16 -30 54 -59 85 l-53 56 -90 -75 c-49 -41 -91
-81 -93 -89 -2 -7 4 -18 12 -25 12 -10 21 -9 45 3 28 15 31 15 45 -6 13 -19
16 -61 16 -259 l0 -237 -89 -66 c-48 -36 -94 -66 -100 -66 -7 0 -20 17 -29 38
-15 32 -17 75 -17 317 l0 280 33 64 c27 50 31 66 20 72 -21 14 -33 11 -54 -12
-17 -19 -28 -20 -101 -17 -74 3 -90 7 -172 50 l-90 46 -56 -74 c-31 -41 -58
-80 -61 -88 -5 -13 95 -106 115 -106 6 0 32 27 58 60 26 33 53 60 60 60 7 0
28 -8 48 -17 l35 -17 0 -137 0 -138 -120 49 -120 48 -50 -56 c-28 -31 -68 -90
-88 -131 -33 -67 -37 -85 -40 -167 -4 -86 -2 -97 23 -143 16 -28 49 -74 75
-103 l46 -52 128 90 c70 49 131 88 134 87 4 -1 11 -16 16 -33 11 -39 92 -130
114 -130 10 0 57 34 106 75 54 45 94 71 100 66 132 -99 177 -131 186 -131 12
0 118 79 138 102 9 12 4 22 -28 53 l-40 39 0 252 0 253 78 54 c73 52 78 54 96
39 43 -40 46 -58 46 -334 l0 -263 -25 -37 -25 -37 80 -66 80 -67 63 51 c94 74
93 71 47 116 l-40 39 0 246 c1 178 4 249 13 261 17 23 119 109 129 109 4 0 26
-16 48 -36 l40 -36 0 -295 c0 -249 2 -299 16 -325 19 -36 92 -118 106 -118 6
0 61 36 122 80 l112 79 60 -15 c76 -20 105 -39 183 -117 l63 -65 62 47 c34 26
96 62 139 81 l77 34 0 338 c0 368 1 360 -59 436 -57 72 -57 72 -196 -18 -68
-44 -131 -83 -140 -86 -15 -6 -16 9 -13 167 3 155 5 178 25 214 37 69 158 165
267 210 38 16 48 36 19 34 -10 0 -43 -11 -73 -23z m-31 -630 c20 -32 21 -47
21 -315 0 -154 -3 -281 -7 -281 -5 0 -54 18 -110 41 l-103 41 0 217 0 216 82
58 c45 31 85 57 89 57 4 0 17 -15 28 -34z m-1974 -369 c4 -23 5 -60 3 -81 -3
-36 -9 -43 -75 -90 -71 -48 -73 -49 -92 -31 -12 10 -32 40 -46 68 -20 41 -25
66 -25 128 0 46 6 91 15 113 l16 37 99 -51 c98 -51 99 -52 105 -93z"/>
<path d="M6614 1706 c-90 -40 -108 -157 -33 -220 64 -54 147 -40 196 33 42 62
21 141 -46 179 -44 25 -73 27 -117 8z m115 -37 c49 -46 51 -116 4 -163 -73
-73 -202 17 -164 116 17 44 50 68 96 68 28 0 48 -7 64 -21z"/>
<path d="M6620 1585 c0 -37 4 -65 10 -65 6 0 10 12 10 26 0 21 4 25 23 22 14
-2 23 -11 25 -25 2 -13 10 -23 18 -23 17 0 19 31 2 48 -9 9 -9 15 0 24 17 17
15 45 -4 52 -9 3 -31 6 -50 6 l-34 0 0 -65z m68 28 c-2 -10 -13 -19 -26 -21
-17 -3 -22 2 -22 17 0 16 6 21 26 21 19 0 25 -5 22 -17z"/>
<path d="M5886 1639 c-19 -23 -47 -59 -63 -81 l-28 -41 55 -48 c30 -27 60 -49
67 -49 7 0 34 27 60 60 26 33 53 60 60 60 7 0 28 -8 48 -17 l35 -17 0 -138 c0
-76 -2 -138 -4 -138 -2 0 -57 22 -122 50 l-119 50 -40 -45 c-22 -24 -73 -105
-114 -180 -74 -134 -167 -255 -197 -255 -9 0 -33 14 -55 32 l-39 31 0 247 0
246 45 44 46 45 40 -48 c22 -26 49 -47 59 -47 17 0 120 85 120 99 0 10 -109
155 -118 159 -4 1 -48 -34 -97 -78 -50 -43 -93 -80 -96 -80 -4 0 -9 14 -13 31
-3 18 -28 53 -58 85 l-53 54 -85 -76 c-89 -79 -102 -102 -74 -124 14 -12 18
-12 29 4 8 10 23 16 37 14 l23 -3 3 -273 2 -274 -29 -40 -30 -41 57 -34 c31
-19 76 -51 100 -71 24 -20 55 -45 68 -55 l24 -19 132 111 132 111 29 -53 c15
-30 52 -78 82 -107 l53 -53 84 58 c45 32 104 73 130 92 l46 33 21 -42 c11 -24
42 -65 68 -91 43 -44 52 -48 83 -44 19 2 62 15 94 28 54 22 60 28 71 65 25 85
112 165 260 239 62 32 81 45 72 54 -6 6 -21 11 -34 11 -28 0 -191 -84 -327
-167 -98 -61 -117 -66 -132 -35 -5 9 -10 142 -12 295 l-3 279 36 76 c39 82 34
108 -12 66 -16 -15 -38 -24 -57 -24 -61 1 -172 30 -242 65 -40 19 -74 35 -77
35 -3 0 -21 -18 -41 -41z m109 -455 l93 -47 6 -51 c12 -103 13 -101 -70 -157
-73 -49 -76 -50 -95 -33 -33 30 -71 120 -76 183 -6 63 17 151 39 151 6 0 52
-21 103 -46z"/>
<path d="M1568 385 c-58 -21 -96 -55 -123 -109 -65 -129 -5 -261 124 -274 68
-6 130 18 175 68 32 36 71 108 63 116 -2 2 -36 7 -75 10 l-72 7 0 -27 c0 -23
4 -26 35 -26 19 0 35 -4 35 -9 0 -20 -43 -60 -81 -75 -116 -47 -204 49 -158
171 41 110 198 159 263 83 37 -44 63 -40 76 13 6 23 13 48 15 55 6 18 -42 15
-49 -4 -5 -14 -8 -14 -28 0 -28 20 -147 20 -200 1z"/>
<path d="M2027 393 c-13 -13 -7 -43 9 -43 13 0 15 -6 9 -27 -19 -76 -45 -211
-45 -235 0 -46 39 -80 97 -85 106 -11 151 40 184 209 26 134 27 138 50 138 14
0 19 7 19 25 0 24 -3 25 -60 25 -33 0 -60 -4 -60 -9 0 -5 -3 -16 -6 -25 -4
-11 0 -16 14 -16 18 0 18 -5 -14 -132 -35 -140 -52 -168 -99 -168 -74 0 -81
25 -49 167 27 119 37 144 57 140 6 -1 13 8 15 21 3 21 0 22 -56 22 -32 0 -62
-3 -65 -7z"/>
<path d="M2527 393 c-11 -11 -8 -41 5 -45 13 -5 12 -9 -34 -211 -16 -72 -23
-87 -39 -87 -12 0 -19 -7 -19 -20 0 -18 7 -20 59 -20 49 0 59 3 64 19 3 13 -1
21 -13 24 -15 4 -14 17 19 144 20 79 44 147 54 157 32 33 22 46 -36 46 -30 0
-57 -3 -60 -7z"/>
<path d="M2787 340 c-22 -77 -22 -80 7 -80 22 0 26 6 32 45 6 44 7 45 45 45
21 0 40 -3 43 -8 2 -4 -12 -69 -31 -144 -28 -107 -40 -137 -54 -141 -11 -3
-19 -14 -19 -26 0 -19 6 -21 60 -21 64 0 89 19 57 43 -14 11 -13 26 15 155
l32 142 39 0 39 0 -6 -45 c-7 -43 -6 -45 16 -45 21 0 25 7 36 58 7 32 12 64
12 70 0 9 -41 12 -153 12 l-154 0 -16 -60z"/>
<path d="M3306 384 c-10 -26 -7 -34 15 -34 21 0 21 0 1 -32 -10 -18 -47 -84
-82 -145 -35 -62 -71 -115 -80 -118 -10 -3 -20 -15 -23 -25 -5 -18 0 -20 63
-20 58 0 68 3 73 19 3 13 -2 21 -16 25 -19 5 -19 6 6 48 l25 43 66 3 66 3 0
-51 c0 -42 -3 -50 -19 -50 -10 0 -21 -9 -24 -20 -5 -19 0 -20 63 -20 54 0 69
3 74 17 6 14 -8 32 -25 33 -3 0 -11 46 -18 103 -7 56 -15 121 -18 144 -5 39
-3 43 21 52 14 6 26 17 26 26 0 23 -185 22 -194 -1z m103 -156 c1 -27 -1 -28
-44 -28 l-45 0 37 73 37 72 7 -45 c4 -25 8 -57 8 -72z"/>
<path d="M3736 384 c-10 -25 -7 -34 9 -34 19 0 20 7 -16 -145 -21 -87 -37
-136 -50 -147 -37 -32 -25 -48 40 -48 50 0 59 3 64 20 3 13 0 20 -9 20 -17 0
-18 23 -2 89 10 46 14 51 39 51 24 0 28 -5 39 -52 31 -135 27 -128 70 -128 47
0 52 17 16 53 -33 34 -47 117 -21 132 64 37 88 85 73 142 -13 48 -50 63 -156
63 -73 0 -91 -3 -96 -16z m175 -44 c48 -26 -1 -100 -66 -100 -47 0 -47 -2 -19
98 4 15 58 16 85 2z"/>
<path d="M4197 393 c-13 -12 -7 -43 8 -43 20 0 19 -6 -9 -114 -13 -50 -27
-107 -30 -127 -4 -20 -17 -45 -31 -57 -39 -34 -31 -42 39 -42 54 0 64 3 69 19
3 13 -1 21 -15 24 -11 3 -18 9 -15 14 3 4 10 34 17 66 11 55 13 58 38 55 25
-3 29 -10 51 -90 l25 -88 37 0 c28 0 38 5 42 20 4 16 0 20 -17 20 -20 0 -24 9
-38 70 l-14 69 28 12 c69 28 93 125 43 174 -22 23 -31 25 -123 25 -54 0 -102
-3 -105 -7z m174 -53 c49 -27 -1 -100 -69 -100 l-35 0 7 46 c3 25 8 50 12 55
7 12 61 11 85 -1z"/>
<path d="M4720 375 c0 -16 6 -25 16 -25 12 0 6 -18 -26 -77 -82 -151 -122
-212 -141 -218 -10 -4 -19 -15 -19 -26 0 -18 6 -20 67 -17 55 2 68 6 71 21 2
10 -3 17 -12 17 -23 0 -20 20 9 63 25 36 28 37 84 37 l58 0 7 -41 c7 -47 2
-59 -25 -59 -12 0 -19 -7 -19 -20 0 -18 7 -20 70 -20 63 0 70 2 70 20 0 11 -7
20 -15 20 -16 0 -19 15 -35 162 -14 133 -14 138 10 138 15 0 20 7 20 25 0 25
0 25 -95 25 -95 0 -95 0 -95 -25z m99 -127 l1 -48 -40 0 c-22 0 -40 2 -40 5 0
2 15 34 32 70 29 58 34 63 39 43 4 -13 7 -44 8 -70z"/>
<path d="M5184 388 c-25 -12 -44 -48 -44 -84 0 -39 24 -75 84 -127 32 -27 56
-56 56 -67 0 -27 -39 -60 -70 -60 -31 0 -70 25 -70 46 0 15 -35 20 -44 6 -3
-5 -8 -27 -12 -50 l-6 -41 43 0 c24 0 62 -3 84 -6 107 -17 172 122 91 195 -17
16 -49 44 -71 64 -39 34 -40 36 -25 63 10 18 25 29 43 31 35 4 77 -22 77 -48
0 -13 7 -20 20 -20 21 0 32 20 43 78 6 29 4 32 -18 32 -14 0 -25 -5 -25 -10 0
-7 -6 -7 -19 0 -25 13 -109 12 -137 -2z"/>
</g>
</svg>
