<?xml version="1.0" standalone="no"?>
<!DOCTYPE svg PUBLIC "-//W3C//DTD SVG 20010904//EN"
 "http://www.w3.org/TR/2001/REC-SVG-20010904/DTD/svg10.dtd">
<svg version="1.0" xmlns="http://www.w3.org/2000/svg"
 width="667.000000pt" height="1000.000000pt" viewBox="0 0 667.000000 1000.000000"
 preserveAspectRatio="xMidYMid meet">

<g transform="translate(0.000000,1000.000000) scale(0.100000,-0.100000)"
fill="#000000" stroke="none">
<path d="M72 9982 l-73 -15 3 -45 3 -44 59 -19 c32 -9 63 -22 69 -28 6 -6 19
-11 29 -11 32 0 81 -30 70 -43 -5 -7 -10 -32 -11 -57 -1 -24 -4 -46 -6 -49 -2
-2 0 -13 6 -24 8 -14 8 -18 0 -13 -6 4 -11 3 -11 -3 0 -5 5 -13 11 -17 8 -4 7
-9 -2 -15 -11 -6 -10 -9 3 -14 9 -4 14 -13 11 -21 -3 -8 -1 -14 3 -14 5 0 10
-12 10 -26 2 -25 34 -64 53 -64 5 0 12 -9 16 -20 3 -11 17 -28 31 -39 15 -11
20 -21 13 -23 -8 -3 -3 -13 12 -27 16 -15 18 -20 7 -16 -14 6 -16 2 -13 -16 3
-12 8 -25 13 -28 7 -6 8 -24 2 -36 -1 -3 -3 -11 -4 -17 -1 -11 -92 -54 -135
-63 -14 -3 -77 -21 -146 -41 -11 -3 -36 -9 -55 -13 -26 -4 -36 -12 -38 -28 -3
-19 3 -22 55 -28 32 -4 71 -13 87 -21 16 -8 36 -14 46 -14 9 0 21 -5 27 -11 6
-6 26 -13 44 -16 19 -2 36 -9 37 -14 2 -5 8 -7 13 -3 5 3 5 -4 0 -18 -4 -13
-6 -29 -4 -35 3 -7 0 -13 -5 -13 -13 0 -26 -47 -23 -83 2 -15 -7 -42 -18 -61
-19 -31 -20 -34 -4 -32 14 1 17 -6 15 -32 -1 -23 1 -31 9 -26 7 4 9 3 6 -3 -3
-5 0 -34 8 -64 15 -60 15 -108 0 -106 -5 1 -9 -6 -9 -15 1 -10 -2 -18 -7 -18
-5 0 -12 -18 -15 -40 -7 -44 -35 -66 -104 -81 -19 -4 -63 -17 -98 -30 -59 -21
-62 -23 -62 -55 0 -18 4 -35 8 -38 5 -3 42 -6 83 -7 114 -3 248 -37 234 -59
-4 -6 -3 -10 2 -9 20 4 24 -2 12 -18 -8 -9 -9 -14 -3 -10 7 4 14 -2 17 -13 3
-11 1 -18 -3 -15 -5 3 -12 0 -16 -6 -4 -8 -3 -9 4 -5 16 9 30 -24 23 -54 -4
-14 -16 -29 -28 -35 -12 -5 -27 -20 -34 -32 -7 -13 -16 -23 -21 -23 -5 0 -6
-4 -3 -10 3 -5 -1 -10 -10 -10 -10 0 -15 -6 -12 -13 4 -10 -1 -13 -16 -10 -18
4 -22 0 -22 -20 0 -19 3 -23 13 -15 9 8 11 7 6 -6 -3 -9 -12 -16 -20 -16 -8 0
-14 -4 -14 -10 0 -5 5 -10 10 -10 6 0 10 -9 10 -20 0 -11 -5 -20 -11 -20 -5 0
-8 -4 -5 -9 3 -5 -1 -12 -10 -15 -10 -4 -13 -13 -9 -26 3 -11 7 -39 7 -62 0
-34 -5 -46 -26 -63 -21 -16 -96 -45 -126 -47 -27 -2 -40 -23 -40 -63 l0 -45
58 -1 c89 -1 157 -9 160 -20 2 -5 8 -7 13 -3 5 3 9 2 9 -1 0 -3 -13 -11 -30
-16 -16 -6 -30 -15 -30 -20 0 -5 -9 -9 -20 -9 -35 0 -24 -22 33 -65 51 -38 92
-99 111 -166 33 -116 54 -622 27 -668 -7 -13 -39 -59 -70 -102 -179 -247 -180
-248 -103 -249 64 0 112 -40 112 -93 0 -24 5 -26 87 -37 83 -12 90 -12 123 8
19 11 37 30 40 43 10 43 42 97 66 110 13 7 26 20 30 31 3 10 10 18 15 18 15 0
10 -58 -7 -91 -8 -17 -13 -33 -10 -36 3 -3 10 6 16 21 5 15 35 51 65 81 30 29
55 57 55 62 0 6 8 17 18 27 11 9 28 56 42 114 12 53 24 102 26 109 2 7 21 24
43 38 22 14 48 37 58 52 24 40 43 53 77 53 83 0 216 -146 216 -237 0 -23 -13
-46 -45 -84 -42 -49 -95 -146 -95 -173 0 -21 -55 -75 -84 -82 -17 -4 -36 -20
-47 -38 l-19 -32 -66 7 c-60 6 -121 -2 -149 -19 -19 -12 -70 -7 -82 8 -9 12
-16 9 -46 -24 -26 -28 -41 -37 -54 -32 -10 4 -13 10 -8 14 12 8 15 52 4 52
-20 0 -59 -25 -59 -37 0 -7 -4 -13 -10 -13 -5 0 -35 -26 -67 -57 -50 -49 -123
-100 -123 -86 0 2 5 13 11 25 15 28 9 30 -45 12 -46 -16 -48 -18 -41 -48 4
-17 9 -60 12 -96 3 -36 9 -70 14 -76 5 -7 9 -35 8 -63 -1 -28 1 -54 4 -57 3
-4 2 -15 -3 -25 -7 -12 -6 -20 1 -24 6 -4 8 -18 5 -31 -4 -13 -2 -24 3 -24 9
0 21 -24 21 -42 0 -5 8 -17 17 -27 10 -11 23 -26 29 -33 15 -19 39 -90 36
-105 -2 -7 7 -23 18 -35 11 -13 33 -47 47 -77 15 -30 46 -82 69 -117 23 -34
48 -80 55 -101 7 -21 20 -51 30 -68 10 -16 28 -48 40 -70 46 -86 178 -250 228
-284 66 -44 143 -70 211 -71 61 -1 107 -20 194 -84 70 -52 82 -71 47 -75 -14
-1 -39 -4 -56 -5 -16 -2 -38 -7 -47 -11 -9 -4 -21 -4 -27 -1 -5 4 -12 2 -16
-4 -3 -5 -15 -10 -25 -10 -10 0 -28 -12 -39 -27 -12 -14 -24 -23 -27 -20 -9 8
-54 -48 -54 -67 0 -9 -5 -16 -11 -16 -5 0 -7 5 -4 10 10 15 -11 12 -25 -4 -14
-18 -43 -9 -36 10 3 8 1 14 -4 14 -5 0 -5 11 2 26 8 16 8 28 2 32 -5 4 -9 25
-9 46 0 36 -3 40 -31 48 -32 8 -64 52 -48 67 5 4 28 13 50 19 23 7 47 19 54
26 9 12 3 19 -38 40 -45 23 -100 39 -127 38 -5 -1 -34 -4 -64 -7 -35 -5 -51
-3 -47 3 3 6 2 13 -3 16 -5 3 -12 -1 -15 -9 -6 -16 -26 -16 -38 0 -13 16 -28
-16 -17 -36 15 -28 11 -73 -12 -127 -15 -36 -25 -49 -36 -45 -12 5 -14 -3 -12
-43 5 -66 -20 -73 -50 -12 -18 37 -19 43 -6 46 11 3 15 14 13 38 -1 19 -6 34
-10 34 -4 0 -5 6 -2 14 3 7 6 37 7 65 1 38 -1 50 -10 46 -7 -3 -20 -8 -28 -11
-12 -5 -15 2 -15 34 0 23 -4 44 -10 47 -5 3 -15 15 -21 27 -8 15 -8 19 0 14 6
-4 11 0 11 8 0 9 4 16 8 16 4 0 8 8 8 19 0 11 -5 17 -13 14 -10 -4 -11 1 -3
21 5 14 6 26 1 26 -13 0 -19 -48 -8 -59 6 -6 7 -11 1 -11 -5 0 -17 12 -27 25
-14 20 -15 29 -7 45 6 12 8 29 5 40 -8 26 13 36 30 14 7 -11 17 -15 22 -11 11
12 -28 39 -49 33 -22 -5 -24 22 -3 30 12 5 13 10 4 20 -6 8 -7 14 -2 14 11 0
11 36 0 46 -4 4 -16 -1 -27 -11 -11 -10 -20 -13 -20 -7 0 6 6 12 12 15 10 3 9
14 -3 49 -12 31 -14 50 -7 62 8 14 5 19 -11 23 -14 3 -23 16 -27 39 -3 19 -9
34 -13 34 -4 0 -15 14 -25 30 -14 24 -15 34 -6 45 9 10 8 19 -1 37 -14 25 -13
56 2 74 16 19 -33 43 -80 40 -33 -3 -45 1 -57 18 l-15 21 -23 -28 -23 -29 -6
23 -6 24 -21 -22 c-19 -21 -20 -34 -20 -274 1 -238 2 -253 22 -279 12 -16 17
-33 13 -41 -32 -51 -34 -134 -35 -1222 l0 -1088 25 -49 c31 -62 31 -84 0 -98
l-25 -12 0 -220 c0 -136 4 -220 10 -220 18 0 161 57 257 102 32 16 60 4 141
-57 40 -30 78 -55 83 -55 6 0 9 -10 7 -22 -3 -21 -8 -23 -51 -21 -38 1 -47 -2
-47 -15 0 -25 12 -38 41 -45 25 -6 26 -9 18 -51 -4 -25 -15 -61 -23 -80 l-15
-36 -123 -2 c-68 -1 -161 -2 -208 -3 l-85 0 -3 -42 -3 -42 33 10 c18 5 101 12
185 16 128 5 156 4 170 -9 10 -8 39 -21 66 -28 66 -18 68 -30 5 -31 -29 -1
-63 -4 -75 -7 -21 -7 -22 -8 -6 -39 15 -32 14 -34 -11 -67 -15 -20 -23 -41
-20 -50 4 -9 1 -23 -6 -31 -10 -12 -7 -17 14 -26 14 -7 26 -15 26 -18 -1 -3
-20 -18 -43 -33 l-42 -27 -22 21 c-21 19 -22 28 -18 102 2 45 9 98 14 119 l9
37 -50 0 c-61 0 -82 -19 -84 -74 -2 -51 -14 -105 -25 -112 -5 -3 -3 -14 4 -25
8 -13 9 -22 2 -27 -17 -12 -14 -60 4 -68 22 -9 154 -5 165 6 5 5 16 5 26 0 17
-9 189 -11 203 -3 15 9 197 16 205 8 5 -5 -5 -45 -16 -62 -6 -9 -90 -14 -322
-17 -173 -2 -332 -5 -352 -5 l-38 -1 0 -340 0 -340 35 0 c25 0 44 8 60 25 30
29 31 42 8 68 -17 18 -17 19 2 33 15 11 16 17 7 26 -17 17 -15 28 4 28 12 0
15 6 10 24 -3 14 0 28 7 35 21 17 3 138 -24 167 -14 15 -17 24 -9 29 7 4 9 16
7 27 -4 14 0 22 14 25 21 6 24 14 8 30 -5 5 -12 26 -15 45 -3 31 -1 36 20 40
14 3 31 1 38 -3 7 -5 44 -8 83 -8 38 1 84 -4 100 -11 36 -14 35 -14 61 11 21
20 31 21 181 20 l82 0 -8 -29 c-15 -51 -40 -89 -62 -95 -14 -4 -20 -11 -16
-21 7 -18 -28 -22 -53 -6 -13 9 -13 10 0 11 8 1 20 1 25 0 6 -1 1 6 -9 14 -18
13 -48 20 -60 13 -3 -2 -15 7 -28 18 -36 34 -62 38 -74 11 -5 -12 -15 -21 -22
-20 -6 2 -19 -8 -28 -22 -9 -14 -23 -25 -31 -25 -10 0 -14 -7 -10 -20 3 -11 1
-20 -5 -20 -5 0 7 -17 26 -38 l36 -37 -41 -17 c-32 -14 -40 -22 -37 -40 2 -19
10 -24 42 -26 21 -2 56 4 78 13 33 13 50 14 96 5 30 -5 58 -12 61 -15 3 -3
-10 -63 -28 -133 -26 -103 -38 -131 -59 -149 -15 -12 -33 -22 -41 -23 -8 0
-22 -6 -30 -14 -31 -28 -140 -76 -174 -76 -27 0 -44 -10 -88 -51 -30 -28 -67
-58 -84 -65 -26 -12 60 -13 587 -13 340 0 617 3 617 7 -1 4 0 9 1 12 7 19 7
41 -1 46 -5 3 -7 10 -3 15 3 5 10 6 16 3 7 -5 8 -2 3 5 -4 7 -15 11 -25 8 -12
-3 -17 0 -15 12 1 9 -2 22 -8 28 -6 9 -6 13 2 13 10 0 15 -12 13 -31 -1 -3 6
-6 13 -6 11 0 12 4 4 14 -11 12 -5 17 14 14 5 -1 6 3 2 9 -3 6 -10 8 -15 5 -4
-3 -13 2 -20 10 -10 12 -8 13 10 10 12 -2 28 -9 35 -15 19 -16 14 10 -8 44
-10 14 -14 26 -10 25 22 -4 24 3 9 20 -17 19 -17 20 16 34 35 15 44 43 25 75
-8 12 -7 13 13 16 8 1 12 8 9 19 -1 2 -8 41 -10 54 -4 23 2 43 11 38 8 -5 8
-11 0 -20 -8 -10 -8 -15 1 -21 7 -4 9 -3 5 4 -3 6 -2 13 3 16 5 4 8 12 7 19
-3 20 -17 38 -26 32 -5 -3 -11 -1 -14 4 -7 11 13 9 32 -2 16 -11 17 -3 8 48
-4 22 -2 24 9 15 11 -9 12 -7 8 9 -4 15 1 22 21 27 16 4 23 11 19 18 -4 6 2 4
12 -4 10 -8 16 -10 12 -3 -9 14 20 32 46 28 9 -2 17 0 17 4 0 4 6 8 13 9 21 1
59 11 65 17 3 2 11 0 19 -7 11 -9 13 -8 11 2 -2 8 4 14 12 15 8 0 24 5 35 11
36 20 85 27 101 13 12 -10 15 -10 12 2 -2 8 4 13 14 13 10 -1 15 2 12 7 -3 5
3 10 13 10 10 1 27 2 38 3 11 0 26 5 34 10 10 6 12 6 7 -2 -4 -7 -2 -12 3 -12
6 0 11 6 11 12 0 7 7 2 16 -10 8 -12 20 -20 25 -16 6 4 6 11 -2 20 -6 8 -10
14 -8 15 31 6 40 6 45 -2 3 -5 9 -7 14 -4 4 3 7 -3 6 -12 -2 -10 3 -24 11 -31
7 -7 13 -19 13 -25 0 -7 -7 -3 -15 7 -12 16 -15 17 -15 4 0 -24 44 -50 60 -35
10 9 11 9 5 -3 -5 -8 -4 -11 0 -7 18 16 13 36 -7 32 -16 -4 -18 -2 -8 10 7 8
17 12 23 8 6 -3 7 -1 3 5 -3 6 -16 9 -27 7 -17 -4 -19 -2 -9 10 7 8 16 13 19
10 4 -2 8 2 8 10 0 8 -5 11 -11 7 -20 -12 -36 -10 -36 4 0 8 7 14 15 14 8 0
15 6 15 13 0 27 85 86 113 79 4 -1 7 2 7 8 0 5 6 10 14 10 8 0 24 12 36 27 21
27 21 28 1 37 -32 14 -33 33 -1 45 17 5 50 24 74 40 25 17 47 31 50 31 2 0 53
34 113 75 59 41 113 75 119 75 6 0 15 -26 21 -57 10 -55 10 -56 12 -18 1 36 3
38 16 22 13 -18 14 -18 24 2 6 11 11 38 11 60 0 23 5 41 10 41 6 0 10 -16 10
-35 0 -19 3 -35 6 -35 4 0 20 13 35 30 22 23 29 39 29 70 0 45 15 54 23 13 3
-15 -2 -37 -10 -50 -12 -19 -13 -23 -2 -23 9 -1 8 -4 -4 -11 -15 -9 -16 -13
-6 -26 11 -12 1 -26 -64 -88 -50 -48 -73 -76 -65 -81 21 -13 78 -11 78 3 0 7
9 13 19 13 11 0 21 4 23 9 1 5 14 11 28 13 19 2 25 -1 24 -14 -2 -24 13 -23
21 2 3 11 9 20 13 21 4 0 15 2 25 4 21 4 23 -21 2 -29 -9 -3 -12 -12 -8 -22 6
-15 7 -15 20 2 7 10 13 12 13 5 0 -7 5 -9 13 -5 9 6 9 5 0 -8 -7 -8 -10 -18
-7 -21 8 -8 34 18 34 33 0 6 4 9 9 5 5 -3 13 -1 16 5 5 8 11 8 20 0 10 -8 14
-7 18 7 4 17 5 17 6 1 0 -10 8 -18 16 -18 8 0 21 -13 30 -30 15 -29 45 -33 45
-6 0 7 12 18 26 25 20 9 25 9 21 -1 -2 -7 -9 -12 -15 -11 -5 1 -13 -5 -16 -13
-4 -11 -2 -15 8 -11 9 4 29 -7 47 -24 35 -33 53 -31 23 2 l-19 22 25 -14 c14
-7 29 -12 33 -11 4 1 3 -7 -3 -18 -13 -23 -3 -25 24 -5 21 16 38 20 34 8 -4
-10 39 -53 51 -53 5 0 11 6 14 13 2 6 3 4 2 -5 -5 -28 40 -23 59 7 17 26 36
33 36 14 0 -5 -4 -8 -8 -5 -14 8 -29 -28 -22 -49 7 -18 8 -19 15 -2 9 22 37
23 28 1 -5 -14 -3 -15 15 -5 27 14 32 14 26 -3 -7 -18 8 -27 26 -16 11 7 11
12 2 23 -10 12 -8 16 14 21 20 5 30 3 37 -9 6 -12 16 -15 34 -10 24 6 24 5 6
-14 -10 -11 -36 -24 -58 -29 -22 -6 -69 -22 -104 -36 -36 -14 -72 -26 -81 -26
-9 0 -20 -4 -25 -9 -13 -12 -125 -38 -198 -47 -40 -4 -62 -3 -72 6 -9 7 -18
10 -22 7 -3 -4 -11 -3 -17 2 -7 6 -23 12 -36 14 -14 3 -36 9 -50 15 -14 5 -34
8 -46 6 -14 -2 -25 4 -32 19 -8 17 -11 18 -11 5 -1 -9 -6 -20 -11 -23 -6 -4
-9 -1 -8 6 2 6 -3 14 -11 17 -8 3 -11 0 -7 -7 4 -6 3 -11 -3 -11 -5 0 -12 6
-14 13 -4 9 -6 9 -6 0 -2 -23 -31 -13 -37 12 -8 31 -24 33 -25 3 -1 -17 -2
-19 -6 -5 -2 9 -11 17 -19 17 -11 0 -12 -4 -5 -19 9 -16 7 -17 -14 -13 -14 2
-23 8 -20 12 7 11 -40 40 -52 32 -5 -4 -13 -14 -16 -22 -4 -11 -6 -10 -7 5 -1
11 -2 23 -1 28 0 4 -3 7 -9 7 -5 0 -10 -7 -10 -16 0 -16 -28 -12 -60 8 -12 8
-11 8 3 4 11 -4 16 -2 11 5 -3 6 -17 8 -30 5 -14 -4 -24 -2 -24 5 0 6 -14 9
-33 8 -18 -2 -38 0 -45 5 -6 4 -12 3 -12 -3 0 -5 6 -11 13 -14 6 -2 8 -8 4
-13 -5 -5 -14 -3 -20 6 -7 8 -24 16 -39 18 -22 2 -28 -1 -28 -17 0 -11 5 -23
10 -26 6 -3 10 -1 10 5 0 6 4 9 9 6 5 -4 11 -1 13 6 2 6 10 8 17 4 7 -5 10
-14 8 -20 -4 -9 5 -12 24 -11 16 1 29 -2 29 -7 0 -4 7 -8 15 -8 8 0 15 5 15
10 0 6 -5 10 -12 10 -6 0 -8 3 -5 6 4 4 13 2 20 -4 8 -7 17 -8 21 -4 4 4 7 2
6 -3 -1 -6 -2 -19 -1 -29 1 -20 1 -20 16 0 10 13 14 15 15 5 0 -11 5 -10 20 4
18 16 20 16 26 1 5 -13 15 -16 40 -11 22 3 34 1 34 -6 0 -6 9 -9 20 -6 14 3
20 0 20 -10 0 -12 3 -13 14 -4 11 9 15 9 19 -1 4 -10 10 -8 21 6 10 12 16 15
16 7 0 -8 6 -11 15 -7 9 3 20 -3 27 -14 9 -14 19 -18 35 -14 13 4 30 1 38 -6
12 -10 15 -10 15 1 0 7 10 3 26 -12 18 -17 23 -19 18 -6 -8 21 9 22 30 2 8 -9
18 -16 21 -15 19 1 25 -1 25 -10 0 -5 -15 -10 -33 -10 -18 0 -37 -4 -42 -9 -6
-5 -37 -14 -70 -20 -33 -5 -93 -19 -133 -30 -41 -11 -84 -22 -97 -24 -12 -1
-29 -8 -36 -14 -8 -6 -17 -11 -22 -11 -4 -1 -32 -6 -62 -12 -39 -8 -60 -8 -75
0 -13 7 -20 7 -20 1 0 -7 -8 -7 -23 -2 -12 5 -21 15 -19 21 2 8 -3 10 -13 6
-18 -7 -59 17 -48 27 3 4 2 7 -4 7 -28 0 -30 -61 -3 -80 14 -10 17 -17 8 -27
-8 -10 -6 -22 7 -47 18 -33 18 -35 -2 -75 -11 -22 -23 -37 -27 -34 -4 4 -4 0
0 -10 3 -9 2 -17 -3 -17 -5 0 -25 -21 -44 -48 -18 -26 -56 -69 -84 -95 -27
-27 -43 -45 -35 -41 13 7 13 6 0 -10 -8 -10 -22 -43 -31 -72 l-17 -54 188 0
188 0 7 43 c14 92 18 107 25 107 5 0 10 -3 12 -8 2 -4 27 -27 55 -51 29 -24
50 -48 47 -53 -3 -4 -10 -6 -15 -3 -5 4 -9 -1 -9 -9 0 -18 -23 -21 -51 -6 -15
9 -19 7 -19 -5 0 -14 163 -15 1579 -15 1347 0 1580 2 1584 14 3 8 -1 17 -10
20 -13 5 -13 9 -2 23 10 12 10 14 1 9 -8 -5 -12 -1 -12 12 0 11 7 22 15 26 8
3 15 2 15 -2 0 -4 9 -8 20 -8 23 0 25 7 9 23 -17 17 96 29 116 13 12 -10 15
-10 15 0 0 10 3 10 15 0 8 -7 15 -8 15 -3 0 5 10 9 23 7 12 -1 22 -3 22 -4 0
-1 15 -2 33 -3 17 -1 32 1 32 5 0 12 39 -4 56 -23 21 -23 42 -26 23 -2 -13 15
-12 15 16 0 25 -12 33 -13 48 -2 19 14 51 10 80 -10 10 -7 26 -11 36 -8 22 6
75 -53 66 -75 -4 -12 4 -13 57 -7 70 7 90 7 231 -1 l97 -5 0 516 0 516 -22 -6
c-13 -4 -140 -44 -283 -90 -143 -46 -304 -95 -359 -109 -266 -70 -353 -171
-382 -443 -4 -35 -11 -63 -15 -63 -5 0 -9 8 -10 18 0 10 -5 5 -11 -12 l-11
-29 -13 24 c-9 16 -13 19 -14 8 0 -8 -7 -24 -16 -35 -15 -19 -15 -18 -11 3 3
13 1 26 -4 29 -5 3 -9 -6 -9 -20 0 -14 -5 -28 -12 -32 -7 -5 -8 -3 -3 6 6 10
4 12 -8 7 -13 -5 -17 -1 -18 16 -1 21 -1 21 -9 -3 -7 -23 -8 -23 -9 -3 -1 28
-21 41 -21 14 0 -12 -5 -21 -10 -21 -7 0 -9 16 -6 41 6 46 16 65 16 30 0 -12
4 -20 9 -17 9 6 12 27 27 151 3 28 7 59 9 70 13 66 23 103 30 116 7 11 5 11
-10 -1 -17 -13 -18 -13 -10 0 18 31 94 126 120 150 32 30 60 79 45 81 -11 2
-25 5 -37 9 -5 1 -11 2 -15 1 -5 0 -8 6 -8 15 0 9 -5 12 -12 8 -7 -4 -5 2 5
13 22 25 10 39 -15 17 -26 -25 -51 -3 -37 33 8 21 7 24 -3 15 -17 -14 -50 -18
-65 -9 -21 13 7 56 51 76 59 28 179 71 197 71 8 0 19 4 24 9 10 10 151 58 310
106 150 46 269 86 281 96 6 5 14 6 17 2 4 -3 7 -1 7 5 0 7 -6 12 -13 12 -10 0
-13 21 -13 82 0 50 -5 83 -11 85 -6 2 -9 12 -6 22 2 10 -3 35 -11 56 -20 47
-10 56 45 44 22 -5 51 -6 64 -3 34 8 32 0 -17 -58 -48 -58 -55 -51 89 -110 57
-24 103 -46 103 -50 0 -4 -18 -13 -40 -19 -51 -15 -45 -24 6 -10 22 5 58 15
82 21 l42 11 0 498 0 497 -217 53 c-377 92 -345 79 -436 184 -30 34 -47 47
-58 42 -20 -8 -29 -44 -18 -73 7 -18 5 -22 -11 -22 -27 0 -311 72 -306 77 2 3
50 -5 106 -17 57 -11 105 -18 108 -15 3 3 0 5 -6 5 -34 0 -30 119 5 161 7 8
13 20 13 26 0 6 14 17 32 26 26 13 38 13 73 2 45 -13 118 -59 149 -94 19 -21
46 -28 46 -12 0 5 -35 41 -77 80 -42 39 -72 71 -66 71 18 0 90 -58 124 -100
41 -51 69 -80 99 -100 17 -12 24 -31 33 -97 11 -85 16 -92 70 -93 16 0 18 6
12 43 -4 30 -3 38 4 27 6 -8 11 -30 11 -47 0 -26 5 -34 23 -38 12 -3 74 -17
137 -31 63 -13 123 -27 133 -30 16 -5 17 59 17 1257 l0 1262 -155 -7 c-173 -7
-188 -4 -267 56 -31 24 -69 41 -115 52 -83 20 -277 56 -358 66 -33 5 -95 16
-138 24 -103 21 -100 21 -92 -16 13 -67 28 -133 33 -148 7 -20 7 -17 31 -230
12 -102 33 -261 47 -355 57 -384 57 -391 75 -583 8 -88 17 -139 26 -148 8 -8
10 -14 4 -14 -6 0 -11 -9 -11 -19 0 -11 -10 -27 -22 -35 -26 -18 -24 -21 22
-34 31 -9 32 -10 10 -12 -48 -5 -120 8 -120 21 0 5 -11 7 -25 3 -20 -5 -26 -1
-35 21 -6 15 -7 31 -4 36 8 14 -16 71 -38 89 -13 11 -20 33 -22 80 -3 36 -12
79 -20 95 -10 19 -12 31 -5 33 6 3 4 13 -5 27 -9 13 -13 32 -9 41 5 13 3 15
-7 9 -8 -5 -11 -3 -8 6 3 8 1 24 -3 37 -5 13 -5 21 -1 18 4 -2 2 25 -4 62 -7
37 -13 67 -14 67 -1 0 -3 12 -4 27 -1 16 2 28 7 28 5 0 6 11 3 25 -4 15 -2 25
4 25 6 0 8 5 5 11 -4 6 1 17 11 24 18 13 18 14 -1 30 -11 9 -14 14 -7 10 15
-8 16 7 0 23 -8 8 -8 12 -1 12 13 0 5 163 -8 168 -13 5 -11 40 2 47 7 5 5 11
-4 18 -20 16 -30 76 -16 93 9 11 8 14 -2 14 -17 0 -44 40 -40 58 1 8 -10 25
-24 38 -18 16 -25 32 -22 44 3 11 1 20 -5 20 -6 0 -8 7 -5 15 4 8 2 17 -4 20
-5 4 -7 10 -4 15 3 5 -2 16 -11 24 -8 9 -12 16 -7 16 4 0 2 4 -4 8 -7 4 -14
22 -16 39 -2 18 -9 39 -17 47 -7 9 -9 16 -5 16 4 0 3 6 -2 13 -6 6 -16 33 -23
60 -7 26 -16 50 -21 53 -4 2 -6 11 -2 19 3 9 -1 15 -8 15 -10 0 -15 17 -16 57
-1 31 -6 60 -12 66 -5 5 -7 15 -4 22 2 8 -3 25 -12 39 -9 14 -14 29 -11 34 3
5 -1 18 -9 28 -8 10 -15 27 -15 37 0 9 -4 17 -9 17 -16 0 -22 32 -9 47 10 13
6 20 -22 44 -19 15 -48 31 -64 35 -26 6 -27 8 -11 16 12 8 20 7 26 -3 19 -31
159 71 159 115 0 19 -2 18 -19 -7 -10 -16 -41 -44 -69 -63 -57 -38 -76 -45
-41 -13 20 17 20 18 4 10 -11 -5 -45 -14 -74 -19 -49 -9 -57 -8 -89 14 -19 13
-42 24 -51 24 -9 0 -29 7 -45 15 -15 8 -32 12 -37 9 -9 -5 -13 10 -9 31 1 6
-4 5 -11 -2 -10 -10 -20 -6 -48 18 -56 47 -60 49 -69 49 -5 0 -26 18 -47 41
-27 29 -40 38 -48 30 -13 -13 -30 -15 -22 -2 6 11 -45 54 -54 45 -3 -4 -1 -9
6 -11 7 -2 9 -11 6 -19 -8 -21 -23 -6 -24 24 0 24 -1 25 -8 7 -5 -11 -6 -24
-4 -28 3 -5 -4 -4 -16 2 -11 7 -21 8 -22 4 0 -4 -5 5 -10 22 -9 33 -2 78 12
69 5 -3 6 -11 3 -17 -5 -9 -4 -9 5 -1 9 8 8 17 -2 37 -13 25 -14 25 -28 6 -22
-32 -34 -16 -34 47 0 42 -4 58 -12 57 -8 -2 -13 7 -13 22 0 14 -5 25 -11 25
-7 0 -8 -12 -4 -32 11 -53 -11 -20 -28 42 -9 30 -23 64 -32 75 -11 14 -9 6 5
-28 19 -47 24 -101 7 -90 -5 3 -6 11 -3 18 2 7 -2 16 -9 19 -9 3 -12 12 -9 21
4 9 -2 31 -12 50 -28 52 -7 55 38 5 22 -24 38 -40 37 -35 -3 16 12 45 21 40 4
-3 11 2 14 11 3 8 2 12 -4 9 -15 -10 -12 11 4 24 12 10 15 8 19 -11 4 -20 4
-20 6 5 0 15 -3 27 -9 27 -5 0 -10 7 -10 16 0 14 2 15 17 3 9 -8 22 -27 29
-44 21 -49 16 -1 -6 57 -24 64 -24 64 -2 47 13 -10 12 -8 -3 11 -21 27 -28 38
-70 118 -19 36 -26 63 -23 86 2 19 1 33 -3 30 -4 -2 -7 8 -7 23 1 16 -2 36 -7
47 -5 12 0 33 15 65 12 25 25 71 27 101 3 30 9 63 14 72 5 9 9 26 9 37 0 10 5
21 10 23 7 2 7 15 0 38 -5 19 -8 42 -5 50 3 9 -2 42 -10 75 -12 45 -13 60 -3
66 8 5 4 19 -18 50 -20 29 -25 44 -16 47 7 2 19 10 27 19 13 13 15 12 15 -6 0
-22 8 -25 34 -15 9 3 13 11 10 16 -4 6 4 5 16 -2 12 -7 36 -9 54 -6 22 4 27 3
16 -4 -8 -5 -23 -10 -32 -10 -27 0 -22 -14 18 -57 20 -21 50 -58 66 -82 27
-38 28 -42 10 -37 -20 7 -20 6 -2 -74 23 -102 34 -115 26 -30 l-5 65 17 -82
c17 -81 32 -116 32 -75 0 15 8 24 25 28 14 3 25 13 25 23 0 10 3 12 8 5 7 -11
69 -26 112 -27 14 0 50 7 80 15 38 11 57 12 62 5 3 -6 28 -11 55 -11 l48 -1 0
240 c-1 268 -5 346 -17 339 -4 -3 -8 3 -8 13 0 14 -2 15 -9 4 -7 -10 -11 -8
-16 10 -4 13 -13 27 -19 32 -8 5 -6 12 7 21 23 18 21 30 -8 46 l-24 13 24 18
c24 19 26 33 11 58 -6 10 -5 12 2 7 16 -10 15 7 0 23 -11 11 -10 13 4 8 12 -4
15 -2 11 9 -3 7 -10 14 -16 14 -7 0 -7 4 1 12 16 16 15 29 -1 22 -8 -3 -14 2
-14 10 0 8 4 13 9 10 4 -3 8 1 8 8 0 9 3 9 10 -2 8 -12 10 -11 10 8 0 12 -5
22 -11 22 -8 0 -8 4 0 13 8 10 7 17 -1 25 -9 9 -9 12 1 12 8 0 3 9 -10 21 -13
11 -18 18 -11 14 7 -4 12 0 12 9 0 9 -4 16 -10 16 -5 0 -10 7 -10 16 0 10 6
14 15 10 18 -7 20 5 3 23 -11 11 -10 12 1 6 10 -6 12 -4 7 4 -5 7 -14 10 -22
7 -7 -3 -18 3 -24 14 -14 25 -13 30 6 30 8 0 12 5 9 11 -4 5 1 19 10 29 10 11
19 31 20 44 2 14 6 30 11 37 4 7 7 27 6 46 -1 20 3 31 8 28 6 -3 10 2 10 12 0
15 2 16 10 3 5 -8 10 -10 10 -4 0 5 -5 15 -11 21 -7 7 -8 19 -4 30 5 10 9 36
11 58 4 47 22 740 31 1128 l5 267 -2453 -1 c-2131 -2 -2464 -4 -2527 -17z
m3193 -962 c41 -11 97 -21 125 -22 27 -1 46 -6 41 -11 -8 -8 -70 -1 -206 24
-89 16 -242 -12 -362 -67 -59 -28 -82 -29 -30 -2 41 22 108 50 127 54 8 2 47
12 85 23 90 25 128 26 220 1z m362 -32 c32 -11 75 -32 95 -45 21 -12 41 -23
45 -23 19 -1 90 -79 142 -158 105 -159 154 -293 171 -459 4 -51 11 -97 14
-102 6 -9 45 -18 114 -26 20 -3 46 -9 57 -14 11 -6 69 -26 128 -45 59 -20 119
-43 132 -52 14 -9 25 -13 25 -10 0 20 186 -110 228 -159 68 -79 51 -199 -40
-280 -66 -59 -229 -148 -244 -133 -2 3 29 21 70 41 131 65 225 172 210 239 -4
19 -2 28 7 28 10 0 10 3 1 12 -7 7 -12 20 -12 31 0 10 -4 15 -10 12 -5 -3 -10
-1 -10 4 0 17 -90 102 -101 96 -5 -4 -9 1 -9 10 0 9 -4 13 -10 10 -5 -3 -10
-1 -10 4 0 6 -7 11 -15 11 -9 0 -18 6 -21 13 -2 7 -14 14 -26 14 -12 1 -24 7
-28 14 -4 6 -12 9 -18 5 -5 -3 -12 1 -16 9 -3 8 -12 15 -21 15 -8 0 -15 5 -15
10 0 6 -8 10 -18 10 -10 0 -22 4 -27 9 -6 6 -23 12 -38 15 -16 3 -34 9 -40 14
-17 13 -95 36 -220 66 -105 25 -139 32 -202 42 -16 3 -39 6 -50 8 -30 6 -168
24 -185 25 -8 1 -24 2 -35 4 -11 2 -55 7 -97 12 -43 4 -78 11 -78 16 0 5 6 7
13 4 6 -2 48 -6 92 -10 44 -3 94 -8 110 -10 72 -12 206 -15 200 -5 -4 6 -1 18
6 26 10 12 8 19 -10 37 -11 13 -21 29 -21 37 0 9 5 7 14 -6 14 -19 14 -19 13
1 -1 11 -11 27 -21 36 -16 13 -17 16 -3 16 9 0 14 -4 11 -9 -3 -4 2 -5 10 -2
10 4 12 11 7 22 -5 10 -15 31 -22 47 -7 17 -15 33 -17 38 -2 4 3 7 11 7 8 0
17 7 21 15 3 9 0 15 -9 15 -8 0 -15 5 -15 11 0 5 4 7 10 4 5 -3 7 0 4 9 -3 8
-12 12 -20 9 -10 -4 -12 0 -8 11 4 11 1 16 -10 16 -9 0 -16 4 -16 9 0 5 -18
28 -40 51 -22 23 -40 47 -40 52 0 5 -5 6 -12 2 -6 -4 -8 -3 -5 3 3 5 -4 21
-16 34 -22 25 -29 36 -69 108 -11 20 -25 41 -30 48 -5 7 -7 16 -4 21 10 16
-53 63 -82 62 -51 -4 -70 2 -37 10 52 13 82 11 142 -12z m-847 -82 c0 -2 -8
-10 -17 -17 -16 -13 -17 -12 -4 4 13 16 21 21 21 13z m-139 -159 c-10 -9 -11
-8 -5 6 3 10 9 15 12 12 3 -3 0 -11 -7 -18z m269 -51 c0 -2 -7 -7 -16 -10 -8
-3 -12 -2 -9 4 6 10 25 14 25 6z m-311 -62 c-6 -27 -20 -66 -30 -86 -12 -26
-14 -38 -6 -38 8 0 9 -3 1 -8 -10 -7 -30 -69 -38 -122 -3 -14 -5 -26 -7 -27
-6 -9 -3 -29 6 -35 6 -5 6 -11 -3 -20 -17 -17 -15 -36 6 -40 10 -3 5 -6 -14
-9 l-30 -5 18 94 c20 107 52 230 72 282 8 19 17 44 20 54 13 38 16 7 5 -40z
m201 16 c-20 -13 -33 -13 -25 0 3 6 14 10 23 10 15 0 15 -2 2 -10z m2152 -289
c-8 -5 -13 -11 -13 -15 1 -3 -1 -6 -4 -6 -7 0 -6 11 1 34 5 13 9 15 17 7 9 -9
9 -14 -1 -20z m-1832 -71 c0 -5 -2 -10 -4 -10 -3 0 -8 5 -11 10 -3 6 -1 10 4
10 6 0 11 -4 11 -10z m60 6 c0 -2 -9 -6 -20 -9 -11 -3 -18 -1 -14 4 5 9 34 13
34 5z m104 -5 c3 -4 -9 -7 -26 -5 -42 5 -49 14 -10 14 17 0 33 -4 36 -9z m155
-7 c8 -8 -114 -3 -127 5 -8 5 16 6 55 4 37 -3 70 -7 72 -9z m-596 -11 c-7 -2
-19 -2 -25 0 -7 3 -2 5 12 5 14 0 19 -2 13 -5z m-106 -9 c-3 -3 -12 -4 -19 -1
-8 3 -5 6 6 6 11 1 17 -2 13 -5z m-847 -179 c0 -2 -10 -9 -22 -15 -22 -11 -22
-10 -4 4 21 17 26 19 26 11z m-71 -48 c-14 -12 -36 -29 -48 -37 -33 -23 -81
-100 -81 -131 0 -15 -4 -30 -9 -33 -9 -6 1 56 17 94 5 14 17 32 26 39 9 7 13
17 10 22 -3 5 1 9 8 9 7 0 31 14 52 30 46 35 63 40 25 7z m-132 -259 c-3 -8
-6 -5 -6 6 -1 11 2 17 5 13 3 -3 4 -12 1 -19z m2331 -85 c21 -73 60 -232 94
-378 14 -59 21 -128 22 -200 1 -109 0 -111 -56 -273 -31 -89 -55 -170 -52
-180 5 -13 4 -14 -4 -4 -7 10 -16 -3 -35 -50 -17 -44 -22 -65 -14 -70 8 -5 6
-9 -6 -14 -9 -3 -17 -15 -17 -26 0 -10 3 -17 8 -14 4 2 7 -16 7 -40 0 -24 3
-44 6 -44 15 0 17 -45 3 -64 l-14 -21 -6 23 c-4 12 -11 22 -17 22 -6 0 -2 7 9
15 16 13 16 14 2 9 -13 -4 -18 -1 -18 11 0 9 -6 23 -14 30 -11 12 -21 1 -65
-70 -45 -74 -111 -145 -134 -145 -13 0 -30 21 -51 63 -15 29 -23 36 -39 31
-16 -5 -19 -3 -15 14 3 11 1 19 -6 18 -14 -1 -16 5 -16 49 0 19 5 35 11 35 5
0 7 -4 4 -10 -3 -5 -1 -10 4 -10 6 0 11 5 11 10 0 6 6 10 14 10 21 0 29 18 28
56 -1 24 5 38 21 49 12 8 16 15 10 15 -6 0 -9 9 -6 20 4 15 2 19 -10 15 -8 -4
-17 1 -21 10 -3 9 -2 13 4 10 6 -3 10 1 10 10 0 15 34 34 42 24 7 -9 80 68
103 108 14 23 30 43 35 43 9 0 26 -75 22 -104 -2 -14 5 -11 28 15 16 19 30 41
30 49 1 26 39 126 40 105 1 -20 1 -20 15 -1 28 36 11 159 -26 192 -10 9 -19
23 -19 29 0 7 -11 20 -24 28 -26 18 -38 60 -26 91 5 12 9 15 9 9 1 -7 6 -13
12 -13 6 0 9 6 6 14 -4 10 0 14 14 11 13 -3 19 2 19 15 0 10 4 22 10 25 5 3
15 15 21 27 6 11 7 18 1 14 -5 -3 -12 3 -15 15 -4 15 -12 19 -34 17 -15 -2
-31 -7 -35 -13 -5 -6 -12 -4 -18 5 -15 22 -12 28 13 32 14 2 22 10 23 23 1 11
2 25 4 30 1 6 2 14 1 18 -1 5 3 6 8 3 5 -3 15 1 22 10 7 9 21 13 34 10 15 -4
22 -1 22 9 0 8 -4 15 -9 15 -4 0 -7 3 -6 8 4 16 -21 83 -42 112 -15 21 -17 30
-8 30 7 0 -2 10 -21 22 l-34 22 34 15 c19 8 38 14 42 13 5 -2 6 2 3 7 -4 5 -2
12 2 15 5 3 7 17 4 31 -3 18 0 25 11 25 10 0 22 -22 35 -67z m-363 -15 c-10
-34 -7 -71 8 -80 7 -4 8 -8 1 -8 -33 0 -39 -167 -6 -203 10 -12 24 -31 30 -41
5 -11 17 -20 25 -22 32 -4 84 -52 75 -69 -2 -2 6 -10 16 -18 11 -8 16 -19 12
-26 -4 -6 3 -15 17 -20 35 -13 41 -28 18 -41 -16 -8 -30 -7 -57 5 -43 18 -52
14 -36 -18 6 -12 16 -40 22 -62 21 -67 41 -103 81 -144 21 -21 39 -48 39 -60
0 -21 -3 -22 -47 -16 -27 4 -75 13 -108 21 -33 8 -72 14 -87 14 -28 0 -37 13
-18 25 16 10 12 35 -5 29 -12 -5 -15 0 -14 22 1 16 0 34 -1 39 -2 6 2 22 10
37 11 23 11 31 -2 51 -17 25 -22 49 -39 202 -6 55 -18 115 -25 134 -10 24 -11
38 -4 45 5 5 10 26 10 46 0 43 25 119 33 99 5 -13 12 34 8 55 -1 5 5 6 14 3 9
-4 15 -1 15 8 0 8 5 15 11 15 7 0 9 -8 4 -22z m1345 8 c0 -2 -7 -6 -15 -10 -8
-3 -15 -1 -15 4 0 6 7 10 15 10 8 0 15 -2 15 -4z m-870 -61 c0 15 53 12 69 -3
11 -10 15 -41 16 -112 l1 -98 -33 25 c-17 13 -34 30 -36 36 -2 6 -6 2 -9 -10
-4 -15 2 -31 18 -50 24 -28 30 -43 17 -43 -36 1 -65 69 -70 168 -5 82 2 117
17 92 6 -8 10 -10 10 -5z m-173 -131 c-3 -3 -13 0 -21 9 -8 8 -12 18 -9 21 4
4 14 0 22 -9 8 -8 12 -17 8 -21z m326 -3 c2 -10 1 -25 -4 -32 -6 -10 -9 -4 -9
19 0 36 5 42 13 13z m-366 -43 c-3 -8 -6 -5 -6 6 -1 11 2 17 5 13 3 -3 4 -12
1 -19z m-1907 -97 c-8 -15 -8 -21 0 -21 6 0 8 -5 5 -10 -4 -6 -10 -8 -14 -5
-5 2 -6 -8 -4 -23 3 -19 2 -23 -5 -13 -7 10 -13 4 -22 -25 -7 -21 -19 -44 -26
-52 -33 -33 11 86 63 171 11 18 14 -3 3 -22z m89 -9 c-4 -2 -5 -14 -3 -28 3
-16 0 -23 -8 -22 -7 2 -12 -5 -12 -14 1 -10 -2 -16 -6 -13 -4 3 -11 -3 -14
-12 -6 -14 -9 -15 -16 -4 -9 16 9 53 22 45 4 -3 13 16 20 41 9 34 14 41 19 28
3 -10 3 -19 -2 -21z m-159 21 c-1 -5 -12 -21 -27 -38 -26 -30 -26 -30 11 33 8
13 16 16 16 5z m7 -55 c-3 -8 -6 -5 -6 6 -1 11 2 17 5 13 3 -3 4 -12 1 -19z
m186 -48 c-3 -11 -9 -18 -13 -15 -5 3 -6 14 -3 25 3 11 9 18 13 15 5 -3 6 -14
3 -25z m-201 8 c-7 -7 -12 -30 -12 -52 -1 -33 -6 -45 -28 -61 -24 -17 -25 -17
-12 -1 16 20 21 37 24 79 2 16 9 33 17 38 20 12 25 11 11 -3z m2635 -10 c-3
-8 -6 -5 -6 6 -1 11 2 17 5 13 3 -3 4 -12 1 -19z m-2465 -50 c-8 -8 -9 -4 -5
13 4 13 8 18 11 10 2 -7 -1 -18 -6 -23z m2188 -13 c5 -44 0 -65 -16 -65 -14 0
-14 3 -4 15 8 10 10 30 6 58 -4 26 -3 37 3 27 5 -8 10 -24 11 -35z m-2208 10
c-2 -14 -8 -25 -13 -25 -5 0 -9 -7 -9 -15 0 -8 -4 -15 -10 -15 -5 0 -10 7 -10
16 0 9 -5 13 -12 9 -7 -4 3 7 22 24 19 17 35 31 36 31 1 0 -1 -11 -4 -25z
m-229 0 c-3 -9 -8 -14 -10 -11 -3 3 -2 9 2 15 9 16 15 13 8 -4z m14 -113 c9
-154 8 -167 -10 -185 -10 -10 -22 -29 -27 -42 -5 -14 -14 -25 -20 -25 -7 0 -8
6 0 19 13 26 13 31 -5 31 -8 0 -15 -6 -15 -13 0 -8 -9 -22 -20 -32 -20 -18
-20 -18 -4 21 9 21 22 46 30 55 8 8 14 26 14 40 0 18 2 21 9 10 6 -10 8 0 4
27 -4 26 -1 47 7 57 7 8 10 21 7 29 -3 8 0 20 8 26 8 6 11 19 8 28 -4 10 -2
13 3 9 5 -5 10 -29 11 -55z m2013 48 c0 -5 -4 -10 -10 -10 -5 0 -10 5 -10 10
0 6 5 10 10 10 6 0 10 -4 10 -10z m-1943 -32 c-3 -8 -6 -5 -6 6 -1 11 2 17 5
13 3 -3 4 -12 1 -19z m73 -80 c0 -19 -2 -20 -10 -8 -5 8 -10 11 -10 5 -1 -15
-67 -85 -74 -78 -3 3 -6 -1 -6 -10 0 -21 -16 -22 -24 -1 -3 8 -2 13 3 10 5 -3
21 12 36 34 15 22 31 38 35 35 4 -2 15 4 25 15 23 25 25 25 25 -2z m2249 -41
c-7 -15 -16 -24 -20 -21 -5 3 -1 16 7 30 21 31 29 25 13 -9z m-704 -57 c3 -5
-1 -10 -10 -10 -9 0 -13 5 -10 10 3 6 8 10 10 10 2 0 7 -4 10 -10z m-1692 -65
c-3 -9 -8 -14 -10 -11 -3 3 -2 9 2 15 9 16 15 13 8 -4z m18 -28 c-10 -9 -11
-8 -5 6 3 10 9 15 12 12 3 -3 0 -11 -7 -18z m1855 -13 c19 -5 21 -11 17 -52
-6 -56 -25 -81 -46 -63 -12 9 -16 8 -21 -5 -3 -9 -12 -14 -20 -11 -7 3 -17 2
-22 -3 -5 -4 -42 -11 -82 -14 -69 -7 -73 -6 -81 16 -19 52 22 92 65 63 23 -15
24 -14 24 6 0 12 8 23 20 26 11 3 20 11 20 19 0 8 17 14 48 17 26 2 49 4 52 5
3 1 15 -1 26 -4z m509 -41 c-8 -27 -20 -73 -28 -103 l-13 -54 -11 40 c-11 46
10 134 32 134 7 0 15 7 19 15 13 34 13 12 1 -32z m-2468 -21 c-23 -25 -21 -35
6 -27 34 11 8 -10 -29 -23 -18 -6 -37 -6 -45 -1 -15 9 -8 12 31 10 14 0 19 2
12 5 -6 3 -9 10 -6 15 3 6 0 16 -6 24 -11 13 -7 15 20 15 31 0 32 -1 17 -18z
m147 -42 c-6 -6 -10 -3 -10 10 0 13 4 16 10 10 7 -7 7 -13 0 -20z m1451 -16
c1 -24 0 -24 -12 -8 -7 10 -13 27 -13 38 0 31 25 1 25 -30z m69 40 c17 -7 22
-49 7 -58 -19 -12 -41 7 -41 35 0 30 6 34 34 23z m-1493 -27 c-10 -9 -11 -8
-5 6 3 10 9 15 12 12 3 -3 0 -11 -7 -18z m-125 -85 c8 -18 13 -36 9 -41 -3 -5
1 -15 8 -23 11 -11 9 -17 -14 -36 -15 -12 -30 -18 -33 -13 -3 5 0 14 8 20 8 7
12 21 9 31 -6 23 -8 24 -34 10 -17 -9 -19 -7 -19 17 0 21 3 24 10 13 8 -12 10
-12 16 3 8 22 -3 50 -16 42 -5 -3 -10 -1 -10 4 0 6 9 11 20 11 11 0 20 6 21
13 0 7 3 6 6 -3 2 -8 11 -30 19 -48z m-93 33 c-3 -9 -8 -14 -10 -11 -3 3 -2 9
2 15 9 16 15 13 8 -4z m-37 -84 c-4 -5 8 -23 25 -40 18 -18 27 -36 23 -43 -5
-8 -10 -4 -15 11 -12 30 -37 37 -55 15 -13 -18 -14 -17 -5 6 5 14 12 33 15 43
3 9 8 17 11 17 4 0 4 -4 1 -9z m2644 -101 c0 -11 -4 -20 -10 -20 -5 0 -7 -6
-4 -14 6 -16 -12 -56 -25 -56 -5 0 -11 7 -14 14 -4 10 -1 13 9 9 11 -4 14 2
13 23 -3 50 1 64 16 64 8 0 15 -9 15 -20z m-86 -16 c3 -8 2 -12 -4 -9 -6 3
-10 10 -10 16 0 14 7 11 14 -7z m-2522 -2 c-7 -5 -10 -16 -7 -24 8 -21 -15
-35 -26 -17 -14 22 -11 37 9 42 29 8 38 7 24 -1z m2389 -15 c-10 -9 -11 -8 -5
6 3 10 9 15 12 12 3 -3 0 -11 -7 -18z m91 -32 c3 -25 0 -34 -8 -31 -7 3 -15
-10 -19 -32 -7 -34 -8 -35 -16 -14 -20 52 -19 71 4 74 17 2 21 9 19 27 -2 13
1 21 6 17 5 -3 12 -22 14 -41z m-149 -1 c-4 -10 0 -12 12 -8 13 5 16 2 14 -11
-5 -23 -34 -28 -36 -6 -1 9 -5 27 -9 41 -7 22 -6 24 9 12 9 -8 13 -20 10 -28z
m54 -6 c-3 -8 -6 -5 -6 6 -1 11 2 17 5 13 3 -3 4 -12 1 -19z m-2467 -9 c0 -14
-17 -10 -23 5 -4 10 -1 13 9 9 7 -3 14 -9 14 -14z m2387 -12 c-4 -12 -37 -19
-37 -8 0 12 9 18 25 18 9 0 14 -5 12 -10z m-2353 -32 c-4 -8 -12 -15 -20 -15
-17 0 -18 17 -1 23 22 9 27 7 21 -8z m2531 5 c3 -5 1 -10 -4 -10 -6 0 -11 5
-11 10 0 6 2 10 4 10 3 0 8 -4 11 -10z m-143 -22 c-7 -7 -12 -8 -12 -2 0 14
12 26 19 19 2 -3 -1 -11 -7 -17z m-2386 -33 c-4 -12 0 -14 21 -9 l26 7 -18
-30 c-9 -16 -26 -35 -36 -41 -15 -10 -17 -9 -12 11 4 21 10 53 12 70 1 4 4 7
7 7 3 0 4 -7 0 -15z m2301 -7 c-3 -8 -6 -5 -6 6 -1 11 2 17 5 13 3 -3 4 -12 1
-19z m-2254 -63 c-3 -9 -8 -14 -10 -11 -3 3 -2 9 2 15 9 16 15 13 8 -4z m-106
-39 c-21 -22 -30 -6 -10 16 10 11 19 15 21 9 2 -6 -3 -17 -11 -25z m93 -31
c-12 -15 -30 -12 -30 6 0 5 10 9 21 9 18 0 19 -2 9 -15z m2610 -64 c0 -24 0
-24 -18 -5 -9 10 -17 31 -17 46 l0 28 17 -23 c10 -12 18 -33 18 -46z m-2654
48 c3 -6 -14 -30 -40 -54 -54 -52 -62 -46 -11 8 20 21 33 42 30 47 -4 6 -2 10
4 10 5 0 13 -5 17 -11z m-136 -43 c0 -8 -13 -23 -29 -32 -16 -9 -27 -23 -24
-30 2 -6 0 -15 -6 -19 -7 -4 -8 0 -4 11 5 14 1 15 -28 9 -19 -3 -48 -14 -66
-23 -26 -13 -36 -14 -55 -4 -32 17 -90 9 -128 -18 -26 -18 -40 -21 -77 -16
-59 8 -64 12 -51 41 13 28 20 30 47 13 16 -9 30 -7 80 16 72 32 97 36 157 25
31 -6 55 -4 86 7 24 9 51 17 62 19 10 3 21 7 24 10 9 8 12 6 12 -9z m2917
-158 c-3 -7 -5 -2 -5 12 0 14 2 19 5 13 2 -7 2 -19 0 -25z m-4222 -1328 c3 -5
1 -10 -4 -10 -6 0 -11 5 -11 10 0 6 2 10 4 10 3 0 8 -4 11 -10z m71 -65 c18
-18 23 -31 18 -43 -18 -40 7 -102 28 -69 4 7 8 8 8 2 0 -5 7 1 16 13 8 12 19
22 24 22 14 0 6 -96 -9 -114 -8 -9 -10 -16 -5 -15 19 3 44 -1 42 -8 0 -5 2
-16 7 -26 4 -9 5 -26 2 -37 -3 -10 0 -21 6 -23 8 -2 8 -6 -1 -11 -13 -8 -81
80 -82 107 0 9 -4 17 -10 17 -5 0 -10 6 -10 14 0 8 -15 27 -34 43 -33 28 -57
73 -38 73 6 0 12 6 15 14 6 15 -9 16 -31 2 -7 -4 -16 -5 -19 -2 -4 3 -1 6 6 6
8 0 10 7 6 21 -5 15 -4 19 4 15 6 -4 11 0 11 8 0 23 17 20 46 -9z m1759 16
c-3 -5 -1 -12 5 -16 5 -3 10 1 10 9 0 19 24 21 39 3 17 -21 172 -64 190 -52 6
3 11 1 11 -5 0 -7 7 -9 16 -6 8 3 13 2 10 -3 -3 -5 1 -11 8 -14 8 -3 17 -1 19
6 2 7 7 -3 11 -20 4 -18 12 -33 16 -33 5 0 7 -6 4 -13 -6 -16 -34 -18 -34 -3
0 6 -4 6 -11 -1 -13 -13 -3 -36 12 -28 5 4 9 -1 9 -10 0 -12 -6 -15 -21 -10
-15 5 -19 4 -14 -4 5 -8 -2 -10 -22 -5 -39 9 -43 12 -44 37 -1 22 -1 22 -8 -1
l-6 -23 -45 32 c-25 18 -72 41 -105 50 -52 14 -60 20 -58 38 2 13 -1 20 -7 16
-6 -3 -11 0 -11 7 -2 24 3 43 14 50 16 10 19 10 12 -1z m754 -5 c6 -4 32 -5
59 -2 39 4 42 3 17 -4 -26 -8 -24 -9 17 -6 26 2 45 0 43 -4 -3 -5 4 -6 15 -3
28 7 167 -61 167 -82 0 -8 -6 -15 -14 -15 -7 0 -13 -5 -13 -11 0 -6 6 -9 14
-6 8 3 16 -2 19 -14 5 -20 -7 -27 -16 -9 -3 6 -4 5 -3 -2 2 -7 16 -13 33 -13
17 -1 38 -7 47 -14 13 -11 16 -11 16 0 1 27 72 -68 110 -146 89 -184 115 -430
89 -810 -6 -88 -13 -162 -15 -164 -5 -6 -318 68 -414 98 -47 14 -85 31 -85 38
0 6 -4 15 -9 20 -5 4 -6 3 -3 -3 4 -7 1 -14 -7 -17 -20 -8 -56 3 -56 17 0 6
-4 6 -9 -3 -10 -16 -13 -10 -30 49 -7 25 -21 68 -30 95 -13 37 -15 60 -9 89 8
39 -3 101 -33 174 -12 28 -12 34 0 41 8 5 11 16 8 25 -4 10 1 21 13 28 11 7
20 18 20 25 0 7 8 17 18 22 16 10 16 12 0 41 -17 29 -15 60 3 60 5 0 9 9 9 20
0 11 4 20 10 20 6 0 5 10 -2 26 -10 21 -9 27 3 35 12 7 11 9 -3 9 -9 0 -18 -6
-21 -12 -3 -9 -11 -6 -26 10 -12 12 -17 22 -11 22 20 0 10 21 -15 30 -14 5
-25 14 -25 19 0 14 18 23 24 12 4 -5 0 -12 -6 -14 -7 -3 -3 -6 10 -6 13 -1 22
5 22 14 0 8 -7 15 -16 15 -8 0 -12 5 -9 10 11 18 -2 10 -33 -20 -32 -30 -52
-38 -52 -21 0 10 -6 9 -65 -4 -16 -4 -25 -3 -20 2 6 4 16 16 23 25 11 14 11
16 -6 11 -11 -2 -22 1 -25 9 -4 11 3 14 27 12 17 -1 37 -3 44 -3 6 -1 12 -8
12 -17 0 -15 2 -15 25 0 17 11 25 13 25 5 0 -7 3 -9 6 -6 4 4 2 12 -3 19 -6 8
-7 22 -2 33 11 28 11 43 -1 25 -6 -9 -10 -10 -10 -3 0 17 -30 44 -41 38 -12
-8 -12 -52 1 -60 6 -4 7 -11 4 -17 -4 -6 -13 2 -20 18 -9 19 -12 21 -8 7 4
-19 1 -23 -18 -23 -39 0 -47 12 -43 59 4 35 2 42 -10 37 -9 -3 -15 0 -15 8 0
17 -68 51 -94 47 -16 -2 -18 2 -12 24 4 17 3 24 -4 20 -5 -3 -10 -2 -10 3 0
15 28 22 53 13 12 -5 31 -5 42 0 34 13 49 11 36 -5 -10 -12 -9 -14 6 -10 11 3
20 15 20 26 3 39 73 57 73 18 0 -11 5 -20 11 -20 5 0 8 -4 5 -8 -3 -5 1 -9 9
-9 8 0 15 6 15 14 0 7 7 13 15 13 23 0 18 19 -7 30 -19 8 -17 9 15 6 20 -2 37
0 37 4 0 10 72 6 89 -4z m-432 -52 c-3 -3 -12 -4 -19 -1 -8 3 -5 6 6 6 11 1
17 -2 13 -5z m822 -113 c-6 -2 -15 2 -19 9 -4 7 -13 9 -20 5 -9 -5 -11 -4 -6
3 4 7 1 12 -6 12 -9 0 -9 3 2 10 10 6 21 3 38 -13 14 -13 19 -23 11 -26z
m-529 -189 c0 -11 -22 -32 -32 -32 -5 0 -4 9 2 20 11 20 30 28 30 12z m30 -32
c0 -11 -2 -20 -4 -20 -2 0 -6 9 -9 20 -3 11 -1 20 4 20 5 0 9 -9 9 -20z
m-1279 -43 c25 -20 51 -37 58 -37 16 0 14 -25 -4 -40 -12 -10 -15 -9 -15 5 0
10 -3 15 -7 12 -3 -4 -16 5 -29 18 -13 14 -29 25 -37 25 -20 0 -37 21 -37 48
0 27 -4 29 71 -31z m1259 33 c0 -5 -2 -10 -4 -10 -3 0 -8 5 -11 10 -3 6 -1 10
4 10 6 0 11 -4 11 -10z m-18 -54 c14 -21 -14 -18 -34 4 l-21 22 24 -7 c13 -4
27 -13 31 -19z m3633 9 c22 -4 45 -11 51 -16 6 -5 34 -13 62 -19 61 -11 132
-40 115 -47 -14 -5 -273 70 -301 87 -14 8 -12 9 8 6 14 -3 43 -8 65 -11z
m-3525 -29 c0 -3 -4 -8 -10 -11 -5 -3 -10 -1 -10 4 0 6 5 11 10 11 6 0 10 -2
10 -4z m3836 -71 c17 -13 15 -13 -21 -4 -49 14 -56 19 -24 19 14 0 34 -7 45
-15z m-4983 -55 c-4 -13 -14 -20 -30 -20 -23 0 -24 2 -12 18 29 36 51 38 42 2z
m-499 -114 c-3 -9 -13 -16 -22 -16 -13 0 -12 3 3 20 20 23 29 21 19 -4z m356
-66 c0 -5 -2 -10 -4 -10 -3 0 -8 5 -11 10 -3 6 -1 10 4 10 6 0 11 -4 11 -10z
m4374 -142 c7 -52 11 -58 31 -58 39 0 73 -18 88 -45 7 -15 31 -36 53 -49 21
-12 44 -33 50 -46 15 -32 7 -83 -17 -109 -16 -17 -23 -19 -39 -9 -11 7 -22 25
-26 41 -3 17 -14 32 -25 34 -11 3 -18 13 -17 22 2 11 -5 16 -22 17 -45 2 -51
4 -45 14 3 6 -1 10 -9 10 -12 0 -13 5 -7 23 7 18 2 28 -27 54 -28 25 -33 33
-21 38 11 4 14 16 12 38 -7 60 -13 76 -31 81 -9 2 -3 4 13 3 29 -2 30 -5 39
-59z m-3275 -99 c7 5 36 -43 46 -76 5 -18 3 -22 -10 -17 -20 8 -48 61 -39 76
4 6 3 8 -3 5 -6 -4 -19 6 -28 21 l-18 27 23 -20 c12 -11 25 -18 29 -16z m136
-104 c3 -16 -5 -4 -19 28 -34 78 -42 114 -12 52 14 -27 27 -63 31 -80z m-40
22 l16 -32 -24 25 c-13 14 -24 30 -24 37 0 19 14 6 32 -30z m90 -19 c4 -16 3
-28 -2 -28 -12 0 -33 44 -33 68 0 14 2 14 14 2 8 -8 18 -27 21 -42z m2115 50
c0 -2 9 -28 19 -58 17 -51 21 -56 66 -72 27 -10 56 -24 64 -33 14 -13 13 -15
-7 -15 -12 0 -42 10 -66 23 -67 34 -135 157 -86 157 5 0 10 -1 10 -2z m-2980
-41 c0 -13 -5 -17 -17 -13 -10 2 -34 8 -53 12 -33 7 -34 8 -10 14 44 13 80 7
80 -13z m-125 -7 c33 -5 72 -15 88 -21 30 -12 38 -33 10 -26 -54 15 -74 17
-68 8 3 -6 21 -13 40 -17 26 -5 35 -11 35 -26 0 -18 -5 -20 -47 -15 l-48 6 43
-11 c25 -7 42 -17 42 -25 0 -9 -6 -13 -15 -9 -8 3 -15 1 -15 -4 0 -6 6 -10 14
-10 9 0 15 -24 19 -90 18 -244 159 -466 328 -514 121 -35 213 -9 315 87 50 46
68 57 74 47 8 -13 -2 -31 -55 -94 -11 -14 -52 -38 -92 -55 -81 -35 -158 -41
-236 -17 -35 10 -44 11 -41 1 8 -20 51 -35 124 -41 62 -6 74 -4 132 23 71 34
146 96 178 148 19 30 26 35 56 32 19 -1 34 -5 34 -8 0 -3 -16 -32 -35 -65 -65
-109 -174 -185 -297 -206 -55 -9 -75 -7 -144 10 -68 18 -81 18 -90 6 -16 -21
-15 -108 2 -177 15 -64 12 -81 -16 -72 -21 7 -32 -23 -23 -66 5 -28 26 -39 37
-20 3 4 18 11 33 14 27 5 134 62 255 133 57 35 73 41 63 25 -4 -8 22 -23 45
-26 3 0 10 -3 15 -7 6 -3 16 0 23 8 10 11 10 14 0 14 -7 1 -26 7 -42 13 l-30
13 119 89 c65 50 134 101 153 115 35 27 61 64 62 90 0 8 5 31 10 51 l10 36 63
-14 c34 -7 148 -33 252 -56 l190 -43 -2 -69 c0 -39 -7 -117 -14 -174 -16 -138
-19 -141 -146 -142 -54 0 -123 1 -153 2 -30 2 -73 3 -95 3 -25 0 -44 6 -51 15
-9 12 -15 13 -26 3 -8 -6 -18 -9 -21 -6 -3 4 -22 3 -42 0 -27 -5 -42 -16 -56
-41 -22 -36 -55 -49 -120 -47 -24 1 -39 -3 -43 -13 -4 -11 -16 -14 -40 -11
-22 3 -36 0 -39 -8 -6 -15 -57 -28 -57 -15 0 5 -9 0 -19 -10 -24 -24 -93 -45
-139 -42 -18 1 -38 -2 -45 -6 -31 -19 -42 -12 -42 27 0 32 3 39 19 37 22 -2
29 12 16 33 -7 11 -12 12 -21 3 -8 -8 -18 -9 -31 -2 -19 10 -27 -4 -8 -16 6
-4 8 -11 5 -16 -4 -5 -3 -15 2 -21 14 -23 12 -38 -5 -39 -53 -2 -107 -12 -112
-19 -3 -4 -24 -7 -48 -6 -24 1 -45 -1 -48 -6 -3 -4 -12 -8 -21 -8 -9 0 -25 -8
-36 -17 -13 -12 -21 -14 -24 -7 -2 6 -10 19 -17 29 -12 16 -17 17 -45 5 -25
-10 -29 -15 -20 -27 10 -11 6 -13 -22 -12 -19 2 -46 9 -61 16 -16 8 -28 9 -28
4 0 -6 -7 -8 -15 -5 -8 4 -21 1 -29 -5 -7 -6 -15 -8 -18 -5 -8 7 -88 -17 -88
-27 0 -4 -21 -18 -47 -31 -27 -13 -49 -26 -51 -30 -7 -15 -21 -8 -27 12 -8 26
-25 26 -25 -1 0 -34 -21 -16 -37 31 -8 25 -28 57 -46 71 -25 22 -31 35 -32 70
-1 24 -7 61 -14 81 -10 31 -9 48 5 105 9 37 20 73 24 78 4 6 10 19 12 30 3 13
11 -1 22 -40 24 -82 65 -146 127 -195 59 -47 76 -49 89 -14 20 51 5 123 -46
231 -32 64 -30 116 3 121 17 3 26 -3 32 -21 6 -14 15 -28 20 -32 6 -3 11 -25
11 -48 0 -38 37 -140 39 -109 2 28 21 -1 21 -31 0 -20 8 -39 20 -50 21 -18 28
-71 10 -82 -5 -3 -10 -15 -10 -26 0 -16 7 -19 51 -19 l52 0 -7 43 c-4 23 -11
63 -15 88 -4 25 -16 58 -28 72 -12 15 -26 51 -33 80 -6 28 -16 65 -23 81 -15
41 -9 115 13 151 31 49 59 75 84 75 19 0 25 7 30 35 8 40 21 51 42 34 22 -18
30 -2 16 33 -6 18 -10 33 -8 36 2 2 7 -5 10 -15 3 -10 21 -26 40 -34 l33 -15
-18 30 c-22 38 -66 172 -74 223 -6 46 -1 36 20 -37 12 -44 19 -56 35 -56 22 0
25 20 11 76 -5 19 -12 52 -16 73 -5 32 -10 38 -26 34 -10 -3 -19 0 -20 6 0 8
-2 8 -6 -1 -7 -17 -23 -5 -23 19 0 26 -17 24 -26 -3 l-7 -23 -9 25 c-9 23 -10
24 -22 8 -14 -19 -32 -25 -21 -8 3 5 -3 15 -15 22 -11 7 -20 18 -20 25 0 8
-13 13 -32 13 -25 0 -29 -3 -18 -10 11 -7 5 -8 -20 -3 -32 6 -80 45 -80 64 0
5 -9 9 -20 9 -13 0 -18 -5 -14 -15 4 -10 0 -15 -12 -15 -11 0 -28 -7 -38 -15
-11 -8 -24 -15 -30 -15 -5 0 -1 7 10 15 11 8 14 15 7 15 -18 0 -17 65 1 79 7
6 20 10 27 8 8 -2 11 -2 7 0 -22 12 0 18 67 18 41 0 75 3 75 7 0 5 -7 8 -15 8
-8 0 -15 4 -15 9 0 4 11 6 25 3 34 -6 32 16 -2 24 -24 6 -25 8 -9 20 18 13 47
11 129 -7 26 -6 51 -9 54 -6 3 3 -8 9 -23 12 -16 4 -38 10 -49 15 -18 8 -18 9
5 9 14 1 52 -4 85 -9z m-588 -122 c-2 -13 -4 -3 -4 22 0 25 2 35 4 23 2 -13 2
-33 0 -45z m1520 -40 c-3 -7 -5 -2 -5 12 0 14 2 19 5 13 2 -7 2 -19 0 -25z
m3323 -12 c0 -7 11 -23 24 -35 19 -18 26 -38 31 -87 4 -35 15 -76 24 -92 17
-31 75 -120 88 -137 58 -73 78 -104 109 -168 20 -42 34 -84 32 -94 -2 -11 -12
5 -26 41 -30 78 -102 185 -153 227 -22 19 -69 51 -102 72 -72 45 -39 40 43 -6
l55 -31 -26 35 c-14 18 -49 49 -77 68 -28 19 -50 36 -48 38 1 2 19 -4 39 -12
42 -17 45 -13 18 31 -12 20 -34 37 -56 44 -48 16 -45 46 5 42 32 -2 33 -2 17
16 -18 20 -24 78 -7 67 6 -3 10 -12 10 -19z m-4843 -33 c-3 -10 -5 -2 -5 17 0
19 2 27 5 18 2 -10 2 -26 0 -35z m1610 15 c-3 -8 -6 -5 -6 6 -1 11 2 17 5 13
3 -3 4 -12 1 -19z m-100 -55 c-3 -10 -5 -4 -5 12 0 17 2 24 5 18 2 -7 2 -21 0
-30z m-1500 -65 c-2 -13 -4 -3 -4 22 0 25 2 35 4 23 2 -13 2 -33 0 -45z m2170
0 c-3 -8 -6 -5 -6 6 -1 11 2 17 5 13 3 -3 4 -12 1 -19z m-10 -105 c-3 -10 -5
-2 -5 17 0 19 2 27 5 18 2 -10 2 -26 0 -35z m401 -17 c5 -23 -12 -41 -29 -30
-9 5 -8 9 7 15 17 7 17 8 2 8 -18 1 -23 12 -11 25 11 10 28 1 31 -18z m59 -8
c-3 -8 -6 -5 -6 6 -1 11 2 17 5 13 3 -3 4 -12 1 -19z m-320 -10 c-3 -8 -6 -5
-6 6 -1 11 2 17 5 13 3 -3 4 -12 1 -19z m500 -25 c-3 -10 -5 -4 -5 12 0 17 2
24 5 18 2 -7 2 -21 0 -30z m-689 -1 c3 -17 -2 -22 -17 -22 -16 0 -21 6 -21 26
0 33 33 30 38 -4z m339 -19 c-3 -10 -5 -2 -5 17 0 19 2 27 5 18 2 -10 2 -26 0
-35z m-970 -25 c-2 -13 -4 -5 -4 17 -1 22 1 32 4 23 2 -10 2 -28 0 -40z m670
30 c-3 -8 -6 -5 -6 6 -1 11 2 17 5 13 3 -3 4 -12 1 -19z m460 -50 c-3 -7 -5
-2 -5 12 0 14 2 19 5 13 2 -7 2 -19 0 -25z m-590 0 c-3 -8 -6 -5 -6 6 -1 11 2
17 5 13 3 -3 4 -12 1 -19z m430 0 c-3 -8 -6 -5 -6 6 -1 11 2 17 5 13 3 -3 4
-12 1 -19z m340 -25 c-3 -10 -5 -2 -5 17 0 19 2 27 5 18 2 -10 2 -26 0 -35z
m400 15 c-3 -7 -5 -2 -5 12 0 14 2 19 5 13 2 -7 2 -19 0 -25z m-900 -10 c-3
-7 -5 -2 -5 12 0 14 2 19 5 13 2 -7 2 -19 0 -25z m690 -10 c-3 -8 -6 -5 -6 6
-1 11 2 17 5 13 3 -3 4 -12 1 -19z m-370 -20 c-3 -7 -5 -2 -5 12 0 14 2 19 5
13 2 -7 2 -19 0 -25z m-170 -70 c-2 -18 -4 -4 -4 32 0 36 2 50 4 33 2 -18 2
-48 0 -65z m-150 50 c-3 -7 -5 -2 -5 12 0 14 2 19 5 13 2 -7 2 -19 0 -25z
m890 -25 c-3 -10 -5 -4 -5 12 0 17 2 24 5 18 2 -7 2 -21 0 -30z m-1290 -5 c-3
-8 -6 -5 -6 6 -1 11 2 17 5 13 3 -3 4 -12 1 -19z m120 -45 c-2 -16 -4 -5 -4
22 0 28 2 40 4 28 2 -13 2 -35 0 -50z m590 -15 c-2 -18 -4 -6 -4 27 0 33 2 48
4 33 2 -15 2 -42 0 -60z m180 5 c-2 -16 -4 -3 -4 27 0 30 2 43 4 28 2 -16 2
-40 0 -55z m-640 -5 c-2 -13 -4 -3 -4 22 0 25 2 35 4 23 2 -13 2 -33 0 -45z
m830 30 c-3 -7 -5 -2 -5 12 0 14 2 19 5 13 2 -7 2 -19 0 -25z m121 -26 c3 -16
-2 -22 -16 -22 -22 0 -32 17 -24 38 7 20 37 9 40 -16z m-811 -59 c-2 -16 -4
-3 -4 27 0 30 2 43 4 28 2 -16 2 -40 0 -55z m261 49 c3 -17 -2 -22 -17 -22
-16 0 -21 6 -21 26 0 33 33 30 38 -4z m-2746 -4 c7 -13 14 -36 16 -53 5 -37 9
-42 24 -27 14 14 42 16 33 3 -3 -5 -1 -12 5 -16 5 -3 10 -15 10 -26 0 -20 19
-59 33 -70 4 -3 11 -19 16 -35 4 -16 10 -27 13 -24 6 5 48 -43 48 -54 0 -4 -9
-2 -20 4 -11 6 -20 7 -20 2 0 -5 -9 -19 -19 -31 -22 -25 -24 -22 -36 57 -7 41
-17 52 -31 31 -4 -7 -12 2 -20 20 -8 17 -20 45 -28 63 -8 17 -12 37 -9 45 3 7
1 13 -5 13 -9 0 -42 86 -42 109 0 19 19 12 32 -11z m88 7 c0 -9 -6 -12 -15 -9
-8 4 -15 10 -15 15 0 5 7 9 15 9 8 0 15 -7 15 -15z m3287 -37 c-2 -13 -4 -5
-4 17 -1 22 1 32 4 23 2 -10 2 -28 0 -40z m460 20 c-3 -8 -6 -5 -6 6 -1 11 2
17 5 13 3 -3 4 -12 1 -19z m-670 -65 c-2 -16 -4 -5 -4 22 0 28 2 40 4 28 2
-13 2 -35 0 -50z m930 45 c-3 -8 -6 -5 -6 6 -1 11 2 17 5 13 3 -3 4 -12 1 -19z
m-500 -20 c-3 -8 -6 -5 -6 6 -1 11 2 17 5 13 3 -3 4 -12 1 -19z m-960 -35 c-3
-10 -5 -2 -5 17 0 19 2 27 5 18 2 -10 2 -26 0 -35z m340 -60 c-2 -21 -4 -4 -4
37 0 41 2 58 4 38 2 -21 2 -55 0 -75z m390 -5 c-2 -18 -4 -6 -4 27 0 33 2 48
4 33 2 -15 2 -42 0 -60z m371 58 c2 -10 -1 -23 -7 -29 -16 -16 -44 14 -35 37
8 22 38 17 42 -8z m-941 -33 c-3 -10 -5 -2 -5 17 0 19 2 27 5 18 2 -10 2 -26
0 -35z m790 -30 c-2 -16 -4 -3 -4 27 0 30 2 43 4 28 2 -16 2 -40 0 -55z m240
25 c-2 -13 -4 -5 -4 17 -1 22 1 32 4 23 2 -10 2 -28 0 -40z m260 10 c-3 -8 -6
-5 -6 6 -1 11 2 17 5 13 3 -3 4 -12 1 -19z m-930 -85 c-3 -10 -5 -2 -5 17 0
19 2 27 5 18 2 -10 2 -26 0 -35z m660 -25 c-2 -13 -4 -3 -4 22 0 25 2 35 4 23
2 -13 2 -33 0 -45z m260 -15 c-2 -16 -4 -5 -4 22 0 28 2 40 4 28 2 -13 2 -35
0 -50z m168 46 c8 -24 -9 -41 -32 -32 -14 5 -18 35 -6 46 13 14 32 7 38 -14z
m-3808 -30 c3 -17 12 -33 19 -36 18 -7 18 -18 -2 -59 -12 -25 -15 -50 -11 -89
7 -72 -9 -72 -53 -2 -29 46 -67 163 -56 174 2 2 9 -19 16 -46 7 -28 16 -53 21
-56 8 -6 22 37 35 108 8 45 22 48 31 6z m3140 -56 c-2 -16 -4 -3 -4 27 0 30 2
43 4 28 2 -16 2 -40 0 -55z m780 30 c-3 -10 -5 -2 -5 17 0 19 2 27 5 18 2 -10
2 -26 0 -35z m503 16 c0 -6 -4 -7 -10 -4 -5 3 -10 11 -10 16 0 6 5 7 10 4 6
-3 10 -11 10 -16z m-513 -111 c-2 -13 -4 -3 -4 22 0 25 2 35 4 23 2 -13 2 -33
0 -45z m-540 5 c-3 -10 -5 -4 -5 12 0 17 2 24 5 18 2 -7 2 -21 0 -30z m260
-40 c-2 -16 -4 -5 -4 22 0 28 2 40 4 28 2 -13 2 -35 0 -50z m580 5 c-3 -8 -6
-5 -6 6 -1 11 2 17 5 13 3 -3 4 -12 1 -19z m-310 -85 c-3 -10 -5 -2 -5 17 0
19 2 27 5 18 2 -10 2 -26 0 -35z m-3823 -19 c8 -29 3 -39 -13 -29 -13 8 -15
55 -2 55 5 0 12 -12 15 -26z m4123 -41 c-3 -10 -5 -2 -5 17 0 19 2 27 5 18 2
-10 2 -26 0 -35z m613 28 c0 -16 -5 -19 -27 -15 -33 6 -37 9 -28 23 3 6 17 11
31 11 17 0 24 -6 24 -19z m-3943 -217 c7 -14 9 -40 6 -57 -5 -22 -3 -28 6 -23
7 5 15 16 19 27 5 11 12 15 20 10 9 -6 6 -14 -13 -35 -27 -30 -31 -41 -14 -51
6 -4 13 2 16 14 6 23 23 29 23 7 0 -8 7 -16 15 -20 16 -6 22 -66 6 -66 -14 0
-22 -30 -12 -49 6 -10 6 -23 0 -32 -7 -12 -9 -11 -9 2 0 9 -7 22 -15 29 -8 7
-12 17 -8 23 18 29 12 65 -12 81 -14 9 -25 24 -25 34 0 10 -4 22 -9 28 -13 12
-25 104 -15 104 5 0 14 -12 21 -26z m-388 -29 c86 -21 282 -121 279 -143 -2
-9 6 -21 17 -26 27 -12 59 -77 43 -87 -9 -6 -9 -14 1 -35 10 -23 9 -33 -13
-78 -14 -28 -50 -84 -81 -123 -42 -56 -55 -82 -57 -113 -1 -33 -5 -39 -22 -39
-12 0 -34 -2 -51 -6 -16 -3 -38 -6 -48 -6 -12 0 -24 -13 -33 -35 -8 -19 -16
-34 -17 -34 -2 0 -4 14 -5 31 -3 39 -10 52 -26 46 -18 -7 -16 25 3 47 15 18
15 18 -8 6 -13 -6 -35 -10 -50 -7 -15 3 -33 1 -41 -4 -13 -9 -13 -10 0 -7 8 3
19 1 25 -4 5 -4 22 -17 38 -29 25 -19 37 -41 20 -37 -5 1 -26 -6 -48 -16 -81
-36 -90 -39 -110 -38 -30 2 -54 7 -61 15 -4 4 -12 3 -18 -3 -7 -5 -18 -5 -26
0 -13 8 -13 11 -1 22 9 8 11 9 7 1 -3 -6 -2 -15 4 -18 6 -4 10 -3 9 2 -3 19 2
30 16 30 8 0 12 -4 9 -8 -2 -4 1 -11 7 -15 7 -4 9 -3 5 4 -10 17 13 25 32 11
14 -11 15 -11 5 1 -15 17 -17 34 -3 25 6 -4 7 1 3 11 -5 13 -3 15 8 9 11 -6
11 -5 2 5 -15 17 6 40 37 40 14 0 20 5 17 13 -3 8 1 14 9 14 8 0 14 -4 14 -8
0 -5 6 -6 13 -4 7 3 12 23 12 48 0 43 0 43 -17 23 -17 -21 -17 -20 -18 17 0
20 -5 37 -11 37 -7 0 -9 10 -7 24 4 18 0 26 -14 29 -13 4 -18 0 -18 -14 0 -10
-3 -19 -7 -20 -28 -4 -94 -5 -76 -2 13 3 20 10 17 18 -3 7 -1 16 5 20 6 3 11
11 11 17 0 5 -9 0 -20 -13 -20 -24 -21 -24 -18 -2 3 21 -32 61 -56 64 -6 1
-24 3 -41 4 -41 3 -124 26 -130 35 -3 5 -19 5 -35 0 -37 -10 -51 6 -17 19 28
11 38 30 30 60 -4 17 -8 19 -27 9 -11 -6 -34 -21 -49 -34 -15 -13 -43 -26 -62
-30 -29 -5 -35 -11 -36 -33 l-1 -26 -8 29 c-11 35 -25 46 -62 46 -16 0 -28 2
-28 5 0 21 104 91 178 121 43 18 52 19 52 7 0 -12 6 -12 33 4 17 11 55 25 82
32 28 7 75 30 107 52 31 21 67 43 80 48 36 15 176 12 247 -4z m4614 -24 c53
-20 73 -153 36 -234 -13 -29 -55 -57 -84 -57 -11 0 -14 6 -9 25 3 14 1 31 -5
39 -9 11 -9 16 0 21 6 4 19 25 29 47 20 45 17 112 -6 139 -26 30 -9 38 39 20z
m-749 -17 c32 -31 14 -74 -23 -55 -26 14 -34 71 -10 71 10 0 25 -7 33 -16z
m-4440 -14 c4 -5 -18 -14 -50 -21 -81 -17 -118 -41 -160 -105 -20 -30 -43 -58
-51 -62 -8 -5 -15 -13 -14 -18 0 -5 -4 -22 -8 -39 l-9 -30 -1 28 c-1 25 -3 27
-23 17 -20 -10 -20 -8 3 12 15 13 36 31 47 40 12 10 19 24 16 31 -3 8 2 17 10
20 9 4 32 31 51 62 20 30 37 55 38 55 1 0 20 7 42 14 39 14 91 12 109 -4z
m-180 -139 c3 -5 -6 -11 -21 -14 -26 -5 -26 -4 -8 9 22 17 22 17 29 5z m161
-101 c3 -6 -1 -7 -9 -4 -18 7 -21 14 -7 14 6 0 13 -4 16 -10z m4730 -59 c7
-12 -12 -24 -25 -16 -11 7 -4 25 10 25 5 0 11 -4 15 -9z m-4675 -11 c-8 -5
-37 -9 -65 -8 l-50 1 45 6 c83 11 86 11 70 1z m-153 -32 c-3 -7 -5 -2 -5 12 0
14 2 19 5 13 2 -7 2 -19 0 -25z m398 22 c-3 -5 -12 -10 -18 -10 -7 0 -6 4 3
10 19 12 23 12 15 0z m-588 -52 c-3 -8 -6 -5 -6 6 -1 11 2 17 5 13 3 -3 4 -12
1 -19z m204 -35 c7 -7 5 -13 -3 -15 -8 -3 -12 -21 -11 -54 1 -27 3 -88 5 -136
2 -48 6 -90 10 -93 3 -4 16 -2 27 5 12 6 21 8 21 6 0 -3 -9 -10 -21 -16 -33
-18 -49 4 -49 69 -1 31 -5 76 -10 101 -6 31 -5 67 3 114 7 38 14 61 16 50 2
-10 7 -24 12 -31z m-217 21 c3 -9 2 -12 -5 -9 -6 4 -8 -2 -5 -17 3 -12 1 -39
-4 -58 -9 -32 -9 -31 -5 15 4 49 4 49 -9 20 -8 -16 -12 -35 -9 -41 2 -7 -7
-34 -22 -61 -14 -26 -23 -39 -19 -28 3 11 10 36 14 55 10 49 43 140 51 140 4
0 10 -7 13 -16z m5162 -11 c-47 -54 -58 -63 -76 -63 -32 0 -23 28 18 53 61 39
86 43 58 10z m-3726 -3 c0 -5 -5 -10 -11 -10 -5 0 -7 5 -4 10 3 6 8 10 11 10
2 0 4 -4 4 -10z m20 -47 c24 -47 23 -49 -4 -18 -26 31 -32 45 -18 45 5 0 15
-12 22 -27z m-1193 -30 c9 -21 17 -40 18 -43 7 -33 32 -80 43 -80 7 0 10 -5 7
-10 -4 -6 -12 -7 -18 -3 -7 4 -15 8 -19 8 -3 0 -10 4 -15 9 -5 5 -3 6 5 2 17
-10 15 9 -3 24 -8 7 -15 21 -15 30 0 10 -4 20 -8 22 -9 3 -24 78 -16 78 3 0
12 -17 21 -37z m182 -18 c14 -17 14 -18 0 -7 -9 6 -18 10 -21 7 -3 -3 -11 2
-19 12 -9 11 -10 14 -1 9 8 -5 12 -1 13 11 0 14 2 15 6 3 3 -8 13 -24 22 -35z
m30 19 c22 -28 19 -53 -5 -33 -7 6 -11 15 -8 20 3 5 0 8 -7 7 -7 -2 -15 5 -17
15 -5 25 14 21 37 -9z m4466 -24 c-40 -32 -65 -38 -65 -17 0 12 62 44 89 46 8
1 -3 -12 -24 -29z m-4519 -26 c8 -1 14 1 14 6 0 7 29 6 38 0 1 -2 11 -4 22 -5
11 -1 25 -3 30 -4 6 0 10 -7 10 -15 0 -8 6 -16 13 -19 9 -3 9 -8 -2 -18 -9
-10 -12 -10 -7 -1 4 7 4 12 -1 11 -4 -1 -11 0 -15 1 -5 1 -14 3 -20 4 -7 1
-12 8 -10 16 2 10 0 11 -11 2 -11 -10 -17 -9 -27 3 -24 28 -34 -4 -15 -48 7
-17 8 -17 22 0 8 10 11 12 7 4 -5 -9 -3 -12 4 -7 8 4 10 2 6 -7 -3 -8 -1 -18
5 -22 6 -3 11 -2 11 4 0 8 20 8 40 1 3 -1 9 -2 13 -1 5 1 6 -3 2 -8 -3 -6 -13
-7 -22 -4 -12 5 -14 3 -8 -8 8 -12 6 -12 -8 0 -9 7 -17 10 -17 6 0 -4 -7 -2
-15 5 -8 7 -15 9 -15 5 0 -4 -7 -2 -15 5 -8 7 -15 9 -15 5 0 -4 -6 -2 -14 4
-7 6 -12 23 -10 38 3 30 -22 66 -39 56 -6 -3 -7 -1 -3 6 6 9 11 9 23 -1 8 -6
21 -13 29 -14z m1069 -12 c-8 -8 -25 10 -19 20 4 6 9 5 15 -3 4 -7 6 -15 4
-17z m-1518 -114 c-2 -24 -4 -5 -4 42 0 47 2 66 4 43 2 -24 2 -62 0 -85z
m1398 81 c39 -37 47 -36 41 1 -5 37 1 39 14 4 8 -19 6 -29 -4 -39 -12 -12 -16
-11 -32 7 -11 11 -36 29 -56 39 -42 22 -50 34 -15 24 12 -4 36 -20 52 -36z
m-912 -10 c-8 -8 -13 -7 -18 2 -5 8 -4 10 3 5 15 -9 16 6 2 22 -5 7 -2 5 7 -3
12 -11 14 -18 6 -26z m-69 10 c-3 -5 -10 -7 -15 -3 -5 3 -7 10 -3 15 3 5 10 7
15 3 5 -3 7 -10 3 -15z m116 -4 c0 5 8 1 18 -7 9 -9 25 -14 34 -13 9 2 25 -6
35 -18 10 -11 12 -17 5 -13 -9 5 -13 3 -11 -5 3 -28 -1 -37 -18 -35 -10 2 -17
6 -15 9 1 4 2 12 2 18 0 5 6 7 13 3 8 -5 8 -3 -2 9 -7 9 -17 15 -21 12 -5 -3
-11 -1 -15 4 -3 5 -14 8 -25 6 -13 -3 -17 1 -13 11 3 8 0 14 -6 14 -6 0 -11 5
-11 11 0 8 5 8 15 -1 8 -7 15 -9 15 -5z m700 -13 c0 -15 -2 -15 -10 -2 -13 20
-13 33 0 25 6 -3 10 -14 10 -23z m305 -2 c3 -5 2 -10 -4 -10 -5 0 -13 5 -16
10 -3 6 -2 10 4 10 5 0 13 -4 16 -10z m-1596 -47 c-10 -63 -53 -186 -62 -177
-4 4 -2 13 4 20 6 7 10 28 9 46 -1 18 -2 45 -2 59 -1 15 11 42 28 63 16 20 29
36 30 36 0 0 -3 -21 -7 -47z m1551 27 c0 -5 -8 -10 -17 -10 -15 0 -16 2 -3 10
19 12 20 12 20 0z m-253 -37 c-3 -10 -5 -4 -5 12 0 17 2 24 5 18 2 -7 2 -21 0
-30z m-1649 7 c34 -21 36 -40 4 -36 -9 2 -20 -2 -24 -8 -10 -15 -25 2 -33 37
-9 33 6 35 53 7z m-87 -12 c11 -18 5 -20 -32 -11 -46 12 -54 38 -8 29 18 -3
36 -12 40 -18z m1509 12 c0 -5 -2 -10 -4 -10 -3 0 -8 5 -11 10 -3 6 -1 10 4
10 6 0 11 -4 11 -10z m478 -5 c-2 -1 -16 -5 -33 -9 -28 -6 -29 -5 -12 8 11 8
25 12 33 9 8 -3 14 -7 12 -8z m59 -17 c-2 -12 -9 -24 -16 -26 -9 -3 -9 2 0 22
15 32 20 33 16 4z m-134 -18 c-3 -12 0 -21 8 -22 8 0 19 -2 24 -3 6 -2 16 -3
23 -4 6 0 12 -8 12 -16 0 -13 -8 -15 -37 -10 -30 4 -34 3 -18 -5 l20 -10 -20
4 c-11 2 -29 7 -40 11 -15 5 -16 4 -6 -3 11 -8 10 -12 -7 -21 -26 -14 -42 -14
-42 0 0 5 4 8 9 4 5 -3 12 -1 16 5 3 5 -2 10 -12 10 -11 0 -28 7 -39 15 -19
14 -19 14 2 15 11 0 41 11 65 24 24 14 45 25 46 25 0 1 -1 -8 -4 -19z m-1088
0 c-3 -5 -12 -10 -18 -10 -7 0 -6 4 3 10 19 12 23 12 15 0z m-623 -5 c3 -3 2
-25 -3 -48 -8 -39 -6 -44 22 -68 24 -21 29 -31 23 -53 -5 -23 -11 -26 -48 -26
-29 0 -49 7 -70 25 -20 17 -24 25 -13 25 9 0 19 9 22 20 3 11 14 24 23 29 20
11 21 63 2 86 -11 13 -9 15 12 15 14 0 27 -2 30 -5z m155 -32 c-6 -16 -24 -46
-39 -67 -16 -21 -28 -46 -29 -55 0 -11 -2 -12 -6 -3 -3 7 14 44 37 82 44 74
58 89 37 43z m140 -25 c-3 -8 -6 -5 -6 6 -1 11 2 17 5 13 3 -3 4 -12 1 -19z
m-487 2 c8 -5 11 -12 8 -16 -10 -9 -38 3 -38 16 0 12 10 13 30 0z m497 -112
c-2 -18 -4 -4 -4 32 0 36 2 50 4 33 2 -18 2 -48 0 -65z m-432 22 c9 -15 -4
-50 -19 -50 -8 0 -20 7 -27 16 -10 13 -24 15 -62 10 -38 -5 -48 -4 -45 6 4 9
22 12 66 10 41 -3 62 0 62 7 0 14 17 14 25 1z m299 -11 c-3 -5 -10 -7 -15 -3
-5 3 -7 10 -3 15 3 5 10 7 15 3 5 -3 7 -10 3 -15z m2206 -29 c0 -5 -4 -10 -9
-10 -6 0 -13 5 -16 10 -3 6 1 10 9 10 9 0 16 -4 16 -10z m-2293 -52 c-2 -13
-4 -5 -4 17 -1 22 1 32 4 23 2 -10 2 -28 0 -40z m49 10 c-9 -13 -27 -40 -41
-60 -14 -21 -27 -38 -30 -38 -11 0 16 50 44 81 17 18 31 38 31 43 0 5 3 6 6 3
4 -4 -1 -17 -10 -29z m2224 17 c8 -9 8 -15 2 -15 -18 0 -42 12 -42 21 0 14 26
10 40 -6z m-2079 -41 c-12 -21 -21 -34 -21 -28 0 16 31 76 37 71 2 -3 -5 -22
-16 -43z m2066 -6 c-3 -8 -6 -5 -6 6 -1 11 2 17 5 13 3 -3 4 -12 1 -19z m180
-14 c-3 -3 -12 -4 -19 -1 -8 3 -5 6 6 6 11 1 17 -2 13 -5z m103 -38 c0 -2 -7
-7 -16 -10 -8 -3 -12 -2 -9 4 6 10 25 14 25 6z m-2320 -31 c7 -9 8 -15 2 -15
-5 0 -12 7 -16 15 -3 8 -4 15 -2 15 2 0 9 -7 16 -15z m2480 -5 c0 -5 -2 -10
-4 -10 -3 0 -8 5 -11 10 -3 6 -1 10 4 10 6 0 11 -4 11 -10z m-3042 -205 c2
-43 -3 -44 -23 -5 -19 37 -19 40 3 40 14 0 19 -8 20 -35z m3406 -214 c3 -5 -6
-11 -19 -14 -29 -5 -45 9 -18 16 29 8 32 7 37 -2z m1586 -38 c0 -23 -4 -33 -9
-27 -9 8 -4 64 5 64 2 0 4 -17 4 -37z m-4136 -11 c3 -5 -1 -9 -9 -9 -8 0 -12
4 -9 9 3 4 7 8 9 8 2 0 6 -4 9 -8z m2284 -29 c2 -7 -2 -15 -10 -18 -7 -2 -26
-10 -43 -16 -16 -7 -36 -13 -43 -15 -8 -1 -22 -10 -32 -19 -12 -11 -20 -13
-25 -6 -4 8 -12 8 -25 1 -10 -5 -20 -6 -22 -1 -2 4 -27 1 -56 -7 -38 -11 -52
-19 -50 -31 2 -9 -3 -15 -9 -14 -7 2 -13 -1 -13 -6 0 -14 -74 -58 -93 -55 -9
1 -14 -2 -11 -7 9 -15 -72 -4 -93 12 -13 11 -15 11 -9 0 5 -8 -3 -6 -20 5 -15
11 -29 18 -31 17 -7 -4 -43 10 -43 17 0 9 99 49 140 57 14 2 43 9 65 14 22 6
58 14 80 19 22 5 72 19 110 31 39 11 84 25 100 29 44 12 128 7 133 -7z m-2269
-10 c-6 -7 -8 -13 -4 -13 4 0 2 -6 -4 -13 -6 -8 -8 -17 -4 -20 9 -9 10 -57 2
-51 -4 2 -9 -1 -11 -8 -2 -6 -3 13 -2 43 1 30 3 56 4 59 1 3 2 8 2 11 -1 3 6
6 13 6 11 0 12 -4 4 -14z m4116 -3 c3 -5 1 -10 -4 -10 -6 0 -11 5 -11 10 0 6
2 10 4 10 3 0 8 -4 11 -10z m-4159 -93 c3 -22 -12 -31 -23 -15 -13 22 -11 36
5 34 8 -2 16 -10 18 -19z m4499 -51 c12 -9 15 -16 8 -17 -7 -1 -16 -2 -20 -4
-5 -1 -32 -5 -60 -10 -29 -4 -53 -11 -53 -16 0 -20 -18 -7 -24 17 -9 33 13 59
51 62 15 1 29 6 31 11 2 6 13 1 25 -9 12 -11 31 -26 42 -34z m-2836 -53 c46
-31 52 -38 35 -41 -12 -2 -38 4 -57 12 -32 13 -35 13 -30 -1 4 -10 0 -14 -13
-11 -12 2 -20 -4 -22 -16 -5 -23 -49 -61 -73 -62 -9 -1 -22 -5 -29 -9 -9 -6
-11 -4 -5 5 6 9 4 10 -10 3 -22 -13 -65 -4 -72 13 -3 8 -9 12 -13 9 -5 -3 -15
3 -22 13 -7 11 -23 22 -35 26 -11 4 -24 14 -28 24 -3 9 -3 13 1 10 3 -4 12 -1
19 6 7 7 39 18 71 25 33 8 81 19 109 25 74 18 112 11 174 -31z m-1692 -136
c12 -13 12 -36 -2 -47 -9 -8 -14 -5 -18 10 -3 11 -1 18 4 14 5 -3 9 2 9 11 0
13 -4 14 -20 5 -16 -8 -18 -8 -14 4 5 14 28 16 41 3z"/>
<path d="M3883 8501 c-9 -14 -9 -21 0 -30 17 -17 31 -13 16 5 -10 13 -10 17 0
24 7 4 9 10 4 13 -5 3 -14 -2 -20 -12z"/>
<path d="M3673 7050 c-26 -10 -31 -30 -8 -30 23 0 65 22 59 31 -6 11 -22 10
-51 -1z"/>
<path d="M1840 7024 c0 -8 5 -12 10 -9 6 3 10 10 10 16 0 5 -4 9 -10 9 -5 0
-10 -7 -10 -16z"/>
<path d="M1810 6909 c0 -5 5 -7 10 -4 6 3 10 8 10 11 0 2 -4 4 -10 4 -5 0 -10
-5 -10 -11z"/>
<path d="M360 4419 c0 -5 5 -7 10 -4 6 3 10 8 10 11 0 2 -4 4 -10 4 -5 0 -10
-5 -10 -11z"/>
<path d="M2590 4540 c0 -5 7 -7 15 -4 8 4 15 8 15 10 0 2 -7 4 -15 4 -8 0 -15
-4 -15 -10z"/>
<path d="M3018 4503 c7 -3 16 -2 19 1 4 3 -2 6 -13 5 -11 0 -14 -3 -6 -6z"/>
<path d="M2447 4484 c3 -7 9 -14 14 -14 14 0 10 17 -5 23 -10 4 -13 1 -9 -9z"/>
<path d="M3045 4480 c3 -5 14 -10 23 -10 15 0 15 2 2 10 -20 13 -33 13 -25 0z"/>
<path d="M2600 4470 c-12 -8 -12 -10 3 -16 10 -3 21 -4 24 0 4 3 1 6 -6 6 -7
0 -9 5 -6 10 8 12 4 12 -15 0z"/>
<path d="M2642 4433 c2 -9 9 -18 16 -19 7 -1 8 0 2 3 -8 3 -7 9 1 19 9 11 8
14 -6 14 -10 0 -15 -6 -13 -17z"/>
<path d="M3065 4421 c-3 -5 -1 -12 5 -16 5 -3 10 1 10 9 0 18 -6 21 -15 7z"/>
<path d="M2645 4390 c3 -5 11 -10 16 -10 6 0 7 5 4 10 -3 6 -11 10 -16 10 -6
0 -7 -4 -4 -10z"/>
<path d="M3048 4363 c7 -3 16 -2 19 1 4 3 -2 6 -13 5 -11 0 -14 -3 -6 -6z"/>
<path d="M2766 4252 c-3 -6 1 -15 8 -21 8 -7 17 -8 20 -3 3 6 -1 15 -8 21 -8
7 -17 8 -20 3z"/>
<path d="M2760 4179 c0 -5 5 -7 10 -4 6 3 10 8 10 11 0 2 -4 4 -10 4 -5 0 -10
-5 -10 -11z"/>
<path d="M1630 3396 c0 -2 19 -9 43 -15 23 -5 59 -14 80 -19 20 -6 37 -7 37
-3 0 4 -33 15 -72 24 -76 18 -88 20 -88 13z"/>
<path d="M1730 3340 c0 -5 5 -10 11 -10 5 0 7 5 4 10 -3 6 -8 10 -11 10 -2 0
-4 -4 -4 -10z"/>
<path d="M1500 3330 c8 -5 29 -10 45 -10 23 0 27 3 15 10 -8 5 -28 10 -45 10
-23 0 -27 -3 -15 -10z"/>
<path d="M1770 3214 c0 -8 5 -12 10 -9 6 4 8 11 5 16 -9 14 -15 11 -15 -7z"/>
<path d="M2632 2768 c-33 -53 -113 -125 -170 -153 -74 -37 -167 -43 -252 -16
-35 11 -66 19 -68 17 -10 -11 95 -47 149 -52 133 -13 258 56 347 189 14 20 23
40 20 43 -3 3 -15 -10 -26 -28z"/>
<path d="M1996 2676 c3 -8 13 -17 22 -21 13 -5 13 -2 -3 15 -21 24 -26 25 -19
6z"/>
<path d="M2565 2330 c3 -5 10 -10 16 -10 5 0 9 5 9 10 0 6 -7 10 -16 10 -8 0
-12 -4 -9 -10z"/>
<path d="M2606 2274 c-8 -22 -7 -34 3 -34 12 0 21 39 11 45 -4 3 -11 -2 -14
-11z"/>
<path d="M1575 2210 c-9 -15 6 -60 20 -60 18 0 24 21 14 48 -9 23 -24 29 -34
12z"/>
<path d="M1865 1410 c-3 -5 -2 -10 4 -10 5 0 13 5 16 10 3 6 2 10 -4 10 -5 0
-13 -4 -16 -10z"/>
<path d="M912 1270 c-18 -29 -15 -38 4 -12 9 13 14 25 12 27 -2 2 -9 -5 -16
-15z"/>
<path d="M5370 9912 c0 -68 -4 -95 -20 -125 -19 -35 -19 -39 -4 -61 14 -22 15
-106 15 -748 1 -662 -4 -1001 -16 -1133 -12 -134 -36 -573 -40 -738 -3 -76 -9
-154 -15 -175 -5 -20 -10 -73 -11 -117 -1 -144 -20 -283 -61 -457 -5 -20 -28
-58 -54 -87 -40 -44 -45 -56 -40 -81 6 -30 0 -35 -34 -30 -12 1 -12 -2 2 -16
13 -14 20 -15 31 -5 12 9 16 7 20 -9 3 -13 1 -18 -6 -13 -7 3 -5 -2 4 -13 9
-10 20 -29 23 -41 4 -11 13 -27 21 -33 8 -7 15 -20 15 -28 0 -9 15 -32 33 -51
17 -18 26 -31 20 -27 -9 5 -13 1 -13 -11 0 -28 85 -116 107 -111 10 2 23 -2
28 -8 6 -7 21 -15 33 -19 22 -6 23 -5 12 17 -9 19 -9 20 2 7 20 -24 50 -37 88
-37 19 0 91 -10 160 -21 69 -11 166 -25 215 -31 50 -6 225 -33 390 -60 165
-27 321 -52 348 -56 l47 -6 0 336 0 336 -22 5 c-13 3 -104 16 -203 30 -352 48
-546 84 -603 112 -21 10 -42 29 -48 43 -8 16 -14 149 -19 375 -4 192 -7 354
-8 359 -4 21 -31 44 -45 38 -11 -4 -14 -1 -9 12 4 9 3 15 -2 11 -5 -3 -12 9
-16 26 -4 17 -13 33 -21 36 -8 3 -11 9 -8 14 3 5 0 9 -5 9 -6 0 -11 9 -11 19
0 11 -5 32 -11 48 -15 35 -16 44 -24 122 -3 36 -8 68 -10 72 -8 12 -20 358
-18 494 3 184 19 430 29 446 3 6 16 141 18 196 1 11 4 19 9 16 4 -2 6 13 4 34
-2 21 0 45 4 54 4 8 10 40 14 70 3 30 9 63 12 74 4 11 7 36 8 55 4 84 5 91 17
84 6 -4 8 -3 5 3 -3 5 0 21 8 36 8 15 14 35 14 44 0 19 4 37 16 68 23 62 30
72 42 68 7 -3 10 -10 6 -17 -4 -8 -3 -8 6 0 17 15 20 50 32 294 5 113 13 223
18 245 5 22 7 64 4 93 l-6 52 -238 0 -239 0 0 -88z m-70 -3996 c0 -2 -8 -10
-17 -17 -16 -13 -17 -12 -4 4 13 16 21 21 21 13z m45 -26 c3 -5 2 -10 -4 -10
-5 0 -13 5 -16 10 -3 6 -2 10 4 10 5 0 13 -4 16 -10z"/>
<path d="M245 8700 c3 -5 8 -10 11 -10 2 0 4 5 4 10 0 6 -5 10 -11 10 -5 0 -7
-4 -4 -10z"/>
<path d="M5002 7860 c0 -14 2 -19 5 -12 2 6 2 18 0 25 -3 6 -5 1 -5 -13z"/>
<path d="M4945 7851 c-3 -5 -1 -12 5 -16 5 -3 10 1 10 9 0 18 -6 21 -15 7z"/>
<path d="M4997 7765 c-4 -8 -2 -17 3 -20 6 -4 10 3 10 14 0 25 -6 27 -13 6z"/>
<path d="M4620 7062 c0 -10 6 -24 13 -31 10 -10 9 -11 -5 -6 -25 10 -23 -17 2
-40 20 -18 20 -17 20 8 0 15 4 27 9 27 6 0 7 -16 4 -35 -4 -24 -1 -41 9 -53 8
-9 19 -24 23 -32 8 -13 7 -13 -10 0 -19 15 -19 14 -1 -14 10 -15 24 -47 31
-70 7 -22 13 -33 14 -23 1 10 -6 33 -13 52 -8 19 -13 35 -11 35 10 0 33 -58
40 -97 3 -23 13 -47 21 -54 8 -7 20 -21 26 -32 8 -16 8 -19 -5 -14 -13 5 -14
1 -6 -25 11 -40 34 -65 25 -28 -4 17 -1 14 10 -9 8 -18 13 -41 11 -50 -3 -11
-5 -8 -6 7 -2 36 -16 25 -27 -22 -9 -42 -8 -46 13 -57 12 -7 20 -16 17 -20 -2
-4 0 -11 6 -14 6 -4 8 -16 5 -28 -2 -12 -2 -16 1 -9 5 10 9 10 20 1 11 -9 14
-8 15 7 0 14 2 15 6 4 20 -58 57 -120 87 -149 20 -19 36 -31 36 -27 0 4 12 -6
26 -24 15 -17 40 -38 57 -46 28 -15 29 -15 23 1 -3 9 -6 19 -6 21 0 3 -4 3 -9
-1 -18 -10 -33 36 -32 95 0 44 -3 60 -15 64 -8 3 -13 10 -10 14 6 10 -28 29
-58 34 -28 4 -50 120 -27 136 10 7 12 14 6 19 -5 4 -15 23 -22 41 -10 29 -10
32 3 22 8 -7 14 -19 14 -26 0 -11 7 -13 28 -8 34 9 42 20 42 61 0 33 15 77 36
103 14 18 24 70 14 70 -11 0 -19 50 -9 56 5 3 12 -2 15 -10 5 -12 8 -13 18 -3
14 15 36 64 36 81 0 29 -196 72 -230 51 -5 -3 -33 5 -62 19 -28 14 -55 23 -60
20 -14 -9 -9 -24 7 -24 9 0 18 -7 21 -15 3 -8 22 -17 41 -21 38 -7 69 -44 59
-70 -9 -25 -69 -12 -115 25 -21 17 -41 27 -45 24 -4 -4 -4 1 0 11 5 14 3 17
-7 14 -8 -3 -13 -11 -11 -17 1 -6 -2 -11 -8 -11 -5 0 -10 9 -10 21 0 11 -9 32
-20 46 -15 19 -20 21 -20 9 0 -9 -4 -16 -10 -16 -5 0 -10 9 -10 19 0 10 -7 21
-15 25 -10 3 -15 -1 -15 -12z m287 -594 c-3 -7 -5 -2 -5 12 0 14 2 19 5 13 2
-7 2 -19 0 -25z"/>
<path d="M4629 6890 c-2 -30 3 -56 22 -97 11 -24 21 -43 24 -43 2 0 2 17 1 38
-3 38 -45 129 -47 102z"/>
<path d="M4430 6540 c0 -5 5 -10 11 -10 5 0 7 5 4 10 -3 6 -8 10 -11 10 -2 0
-4 -4 -4 -10z"/>
<path d="M4860 6396 c0 -8 5 -18 10 -21 6 -3 10 1 10 9 0 8 -4 18 -10 21 -5 3
-10 -1 -10 -9z"/>
<path d="M4484 6145 c4 -24 16 -30 16 -7 0 12 -4 22 -9 22 -5 0 -8 -7 -7 -15z"/>
<path d="M4462 6110 c0 -19 2 -27 5 -17 2 9 2 25 0 35 -3 9 -5 1 -5 -18z"/>
<path d="M4521 6108 c0 -10 8 -22 19 -28 16 -9 18 -8 14 5 -3 8 -10 13 -14 10
-5 -3 -11 3 -13 12 -4 16 -5 17 -6 1z"/>
<path d="M4613 6068 c2 -7 0 -21 -5 -30 -11 -23 12 -69 46 -92 31 -20 40 -20
33 -2 -4 10 3 16 21 19 19 3 14 4 -14 6 -28 0 -44 6 -48 17 -3 8 -12 13 -18 9
-7 -3 -3 1 9 10 20 16 21 17 5 46 -17 28 -38 41 -29 17z"/>
<path d="M4935 6070 c-11 -5 -15 -9 -10 -9 6 -1 3 -6 -5 -12 -12 -9 -11 -9 5
-3 11 4 41 9 67 12 27 2 45 8 42 13 -7 11 -72 11 -99 -1z"/>
<path d="M776 6063 c-7 -7 13 -33 25 -33 5 0 9 6 9 14 0 15 -24 28 -34 19z"/>
<path d="M4737 6060 c15 -14 89 -27 108 -20 18 7 18 8 -5 14 -38 10 -112 14
-103 6z"/>
<path d="M4875 6040 c-3 -5 -1 -10 4 -10 6 0 11 5 11 10 0 6 -2 10 -4 10 -3 0
-8 -4 -11 -10z"/>
<path d="M5101 6037 c2 -1 15 -11 29 -22 l25 -20 -19 23 c-11 12 -24 22 -29
22 -6 0 -8 -1 -6 -3z"/>
<path d="M5102 5885 c-1 -19 3 -35 9 -35 6 0 8 13 5 31 -7 43 -13 45 -14 4z"/>
<path d="M306 5875 c4 -8 10 -15 15 -15 5 0 9 7 9 15 0 8 -7 15 -15 15 -9 0
-12 -6 -9 -15z"/>
<path d="M4990 5883 c0 -5 9 -18 20 -28 11 -10 20 -14 20 -8 0 5 -9 18 -20 28
-11 10 -20 14 -20 8z"/>
<path d="M4795 5860 c3 -5 11 -10 16 -10 6 0 7 5 4 10 -3 6 -11 10 -16 10 -6
0 -7 -4 -4 -10z"/>
<path d="M450 4619 c0 -5 5 -7 10 -4 6 3 10 8 10 11 0 2 -4 4 -10 4 -5 0 -10
-5 -10 -11z"/>
<path d="M453 4461 c-10 -15 -9 -20 2 -25 9 -3 12 0 8 10 -3 7 0 14 6 14 6 0
11 5 11 10 0 16 -14 11 -27 -9z"/>
<path d="M596 4463 c-6 -14 -5 -15 5 -6 7 7 10 15 7 18 -3 3 -9 -2 -12 -12z"/>
<path d="M5815 2760 c-3 -5 -1 -10 4 -10 6 0 11 5 11 10 0 6 -2 10 -4 10 -3 0
-8 -4 -11 -10z"/>
<path d="M6445 1410 c-13 -5 -14 -9 -5 -9 8 0 24 4 35 9 13 5 14 9 5 9 -8 0
-24 -4 -35 -9z"/>
<path d="M2532 1020 c-23 -11 -52 -26 -64 -34 -21 -15 -21 -15 5 -12 15 1 35
10 45 19 10 10 28 17 39 17 12 0 23 7 27 15 7 19 0 19 -52 -5z"/>
<path d="M2930 1019 c0 -11 5 -17 10 -14 6 3 10 13 10 21 0 8 -4 14 -10 14 -5
0 -10 -9 -10 -21z"/>
<path d="M2795 1020 c-3 -5 -1 -10 4 -10 6 0 11 5 11 10 0 6 -2 10 -4 10 -3 0
-8 -4 -11 -10z"/>
<path d="M2990 1005 c7 -8 16 -12 21 -9 13 8 1 24 -18 24 -13 0 -13 -3 -3 -15z"/>
<path d="M2960 996 c0 -9 5 -16 10 -16 6 0 10 4 10 9 0 6 -4 13 -10 16 -5 3
-10 -1 -10 -9z"/>
<path d="M3097 960 c3 -11 7 -20 9 -20 2 0 4 9 4 20 0 11 -4 20 -9 20 -5 0 -7
-9 -4 -20z"/>
<path d="M2425 950 c3 -5 11 -10 16 -10 6 0 7 5 4 10 -3 6 -11 10 -16 10 -6 0
-7 -4 -4 -10z"/>
<path d="M2470 930 c0 -5 5 -10 11 -10 5 0 7 5 4 10 -3 6 -8 10 -11 10 -2 0
-4 -4 -4 -10z"/>
<path d="M3220 930 c0 -5 7 -10 15 -10 8 0 15 5 15 10 0 6 -7 10 -15 10 -8 0
-15 -4 -15 -10z"/>
<path d="M3520 880 c0 -5 5 -10 11 -10 5 0 7 5 4 10 -3 6 -8 10 -11 10 -2 0
-4 -4 -4 -10z"/>
<path d="M2750 800 c0 -5 5 -10 11 -10 5 0 7 5 4 10 -3 6 -8 10 -11 10 -2 0
-4 -4 -4 -10z"/>
<path d="M2444 776 c-10 -8 -16 -17 -13 -20 3 -3 14 3 24 14 21 23 17 26 -11
6z"/>
<path d="M1949 756 c8 -9 4 -19 -15 -35 -15 -13 -22 -26 -17 -34 4 -7 8 -24 9
-39 1 -16 3 -30 4 -33 1 -3 4 -9 5 -15 1 -5 3 -13 4 -17 2 -5 6 1 11 12 5 13
3 26 -7 37 -9 10 -11 18 -4 22 5 4 15 -2 21 -11 10 -15 11 -15 6 -1 -2 9 -2
19 2 23 3 3 7 18 7 33 0 15 4 32 8 39 7 12 -7 26 -31 29 -9 2 -10 -1 -3 -10z
m16 -33 c-2 -10 -4 -27 -4 -38 -1 -15 -3 -17 -10 -7 -4 8 -11 13 -15 13 -3 -1
-6 2 -6 7 0 4 6 7 13 7 6 0 13 6 13 13 2 18 4 22 8 22 2 0 3 -8 1 -17z"/>
<path d="M2760 730 c0 -5 5 -10 11 -10 5 0 7 5 4 10 -3 6 -8 10 -11 10 -2 0
-4 -4 -4 -10z"/>
<path d="M226 705 c21 -16 44 -19 44 -6 0 5 -10 11 -22 15 -37 9 -43 7 -22 -9z"/>
<path d="M1761 688 c-1 -10 4 -18 9 -18 6 0 9 -6 8 -12 -2 -7 2 -12 8 -11 5 1
10 -9 10 -22 0 -22 -9 -25 -12 -4 -1 5 -2 12 -3 15 0 4 -9 0 -18 -7 -16 -13
-17 -12 -5 3 9 11 10 18 2 23 -12 7 -11 8 -14 -27 -2 -21 0 -25 9 -18 6 5 15
7 18 3 9 -9 -23 -44 -34 -37 -19 11 -49 12 -55 2 -4 -6 -2 -8 4 -4 6 3 13 2
17 -4 3 -5 16 -8 28 -6 12 2 27 -1 34 -6 7 -6 14 -5 18 3 4 6 1 15 -6 20 -14
8 -12 10 13 13 16 1 18 54 3 69 -6 7 -10 19 -8 27 4 12 3 12 -5 1 -8 -11 -10
-11 -15 0 -4 10 -6 9 -6 -3z"/>
<path d="M2495 690 c-3 -5 -1 -10 4 -10 6 0 11 5 11 10 0 6 -2 10 -4 10 -3 0
-8 -4 -11 -10z"/>
<path d="M1710 676 c0 -8 4 -17 9 -20 5 -4 7 3 4 14 -6 23 -13 26 -13 6z"/>
<path d="M5606 621 c-4 -35 -5 -65 -2 -68 6 -7 19 103 14 119 -3 7 -8 -16 -12
-51z"/>
<path d="M5641 664 c0 -11 3 -14 6 -6 3 7 2 16 -1 19 -3 4 -6 -2 -5 -13z"/>
<path d="M1869 668 c-1 -2 -2 -15 -3 -30 -2 -19 1 -25 11 -21 8 3 10 9 5 12
-5 3 -8 14 -6 24 2 14 -3 25 -7 15z"/>
<path d="M1994 663 c3 -4 1 -12 -6 -20 -9 -11 -8 -13 3 -11 8 2 13 -3 12 -9
-2 -7 0 -12 5 -11 4 1 17 -3 29 -10 15 -8 20 -18 16 -33 -4 -13 -2 -20 4 -16
5 3 10 0 10 -8 0 -13 -4 -12 -19 2 -10 9 -18 14 -19 12 0 -2 -2 -12 -4 -21 -2
-10 2 -16 8 -15 7 1 11 -6 9 -15 -2 -10 3 -18 9 -18 7 0 9 3 6 7 -4 3 0 15 10
25 9 10 12 18 8 18 -5 0 2 11 15 25 13 14 20 25 16 25 -5 0 -3 6 3 14 9 11 7
13 -11 12 -18 -1 -22 4 -20 18 3 17 1 18 -12 7 -8 -7 -14 -18 -12 -24 1 -7 1
-9 -1 -4 -3 4 -10 4 -15 1 -7 -5 -8 -2 -3 6 5 8 4 11 -3 6 -6 -3 -13 -2 -16 3
-3 4 2 8 12 7 18 -1 29 18 12 20 -5 1 -11 2 -12 4 -7 5 -39 8 -34 3z m102 -70
c-4 -23 -23 -36 -31 -22 -6 8 -4 10 5 4 9 -5 10 -2 6 12 -4 13 -2 20 8 20 7 0
13 -6 12 -14z"/>
<path d="M2087 659 c7 -9 11 -18 8 -21 -3 -2 1 -5 8 -5 8 0 14 6 14 14 0 7 -3
11 -5 8 -3 -3 -12 1 -21 8 -14 10 -14 10 -4 -4z"/>
<path d="M5530 635 c0 -19 2 -35 4 -35 2 0 6 16 8 35 2 19 0 35 -4 35 -4 0 -8
-16 -8 -35z"/>
<path d="M5560 643 c0 -30 9 -27 15 6 2 11 0 21 -6 21 -5 0 -9 -12 -9 -27z"/>
<path d="M5500 635 c0 -14 2 -25 4 -25 2 0 6 11 8 25 3 14 1 25 -3 25 -5 0 -9
-11 -9 -25z"/>
<path d="M5557 597 c-11 -29 -9 -43 4 -30 6 6 9 19 7 29 -3 18 -4 18 -11 1z"/>
<path d="M1980 595 c0 -2 6 -8 13 -14 10 -8 14 -7 14 2 0 8 -6 14 -14 14 -7 0
-13 -1 -13 -2z"/>
<path d="M1810 576 c0 -8 5 -18 10 -21 17 -10 1 -24 -22 -20 -11 3 -23 7 -26
10 -3 3 -15 -3 -26 -12 -17 -15 -19 -15 -8 -1 9 11 10 18 2 23 -5 3 -11 4 -11
1 -1 -3 -3 -10 -4 -16 -1 -5 -3 -13 -4 -16 0 -4 -8 -1 -16 6 -10 9 -15 9 -15
1 0 -6 6 -12 13 -12 39 -4 63 -4 72 1 15 9 35 6 35 -5 0 -5 -9 -11 -20 -11
-36 -2 -40 -4 -40 -13 0 -11 19 -9 40 4 13 8 13 7 0 -10 -8 -10 -10 -16 -4
-12 7 4 17 0 23 -7 8 -10 9 -16 1 -21 -5 -3 -10 -2 -10 2 0 5 -9 14 -20 21
-17 10 -20 10 -20 -4 0 -8 5 -12 10 -9 6 3 13 -1 16 -10 4 -9 13 -14 20 -11 9
3 14 -2 15 -14 2 -28 3 -33 12 -47 4 -7 1 -10 -10 -9 -13 2 -17 11 -16 32 l2
29 -10 -30 c-7 -16 -24 -43 -39 -60 -15 -16 -26 -38 -25 -47 2 -10 -2 -21 -7
-25 -7 -3 -8 -1 -4 5 4 7 2 12 -4 12 -7 0 -10 6 -7 14 3 8 -1 20 -9 26 -8 7
-14 9 -14 4 0 -4 -5 -3 -12 4 -7 7 -16 12 -20 12 -14 0 -9 -37 7 -50 8 -6 13
-17 12 -23 -1 -7 4 -11 11 -9 9 2 11 -2 5 -10 -4 -7 -8 -20 -8 -29 0 -9 -7
-24 -15 -33 -22 -27 -20 -41 6 -42 20 -2 23 2 20 21 -3 13 2 29 10 36 7 6 11
16 7 22 -4 6 -1 7 6 2 9 -5 10 -10 2 -18 -15 -15 -14 -40 2 -31 9 6 9 4 -1 -8
-9 -12 -10 -18 -2 -23 8 -5 8 -11 -1 -21 -8 -9 -16 -11 -23 -5 -7 6 -18 6 -26
1 -8 -5 -17 -7 -21 -4 -4 2 -11 -1 -15 -7 -4 -7 -3 -9 3 -6 5 4 16 -5 23 -18
11 -20 11 -27 0 -40 -7 -8 -9 -15 -5 -15 4 0 2 -6 -4 -13 -9 -11 0 -14 48 -16
54 -2 77 7 80 32 1 4 3 7 6 7 3 0 8 0 11 0 4 0 1 -7 -6 -15 -16 -20 2 -27 58
-22 46 4 72 20 52 32 -8 5 -7 12 5 25 12 14 13 20 4 26 -8 4 -10 3 -5 -5 4 -6
0 -14 -9 -17 -9 -4 -14 -12 -11 -20 3 -7 -1 -18 -9 -24 -11 -9 -13 -5 -8 22 2
18 9 34 13 36 5 2 6 10 3 18 -4 12 -12 9 -38 -16 -31 -30 -33 -30 -38 -11 -5
22 14 43 21 23 2 -7 8 -9 13 -6 6 4 6 11 -1 19 -8 10 -8 15 0 20 8 5 4 15 -12
33 -13 14 -18 22 -11 18 14 -8 27 10 13 19 -13 8 -13 25 1 25 5 0 7 -5 3 -12
-5 -7 -3 -8 5 -3 7 4 11 15 8 25 -3 13 0 16 14 13 15 -4 17 -8 8 -19 -6 -8 -8
-14 -4 -14 5 0 0 -9 -9 -19 -11 -12 -14 -21 -7 -26 11 -6 12 -5 15 14 2 19 23
34 30 22 4 -6 2 -11 -4 -11 -6 0 -9 -4 -6 -9 3 -5 -1 -12 -10 -15 -9 -4 -14
-13 -10 -21 3 -8 0 -15 -6 -15 -6 0 -8 -3 -4 -7 4 -5 11 -7 14 -6 4 0 15 -3
24 -8 10 -6 19 -5 23 1 4 6 10 8 15 5 5 -3 12 0 17 7 12 20 15 56 4 62 -4 3
-7 -8 -6 -24 1 -17 -1 -33 -6 -36 -8 -5 -14 17 -10 39 0 4 -3 6 -8 5 -5 -2 -9
2 -9 7 0 6 5 9 12 7 6 -1 -2 7 -17 19 -22 17 -25 24 -16 35 6 8 10 14 8 15 -2
0 -13 2 -23 4 -22 4 -36 22 -36 48 0 10 -4 16 -9 12 -5 -3 -13 -1 -16 5 -4 6
-1 9 6 8 7 -2 13 2 14 9 0 6 3 15 7 19 4 3 6 -3 3 -14 -4 -23 10 -39 19 -23 4
5 2 12 -4 16 -6 4 -8 10 -5 15 3 5 1 11 -5 15 -16 10 -2 24 21 20 14 -3 19 1
17 13 -1 9 1 22 5 29 4 6 2 15 -4 19 -8 5 -9 3 -4 -6 5 -9 4 -11 -4 -6 -8 5
-9 12 -2 19 5 7 10 17 11 22 1 6 6 9 10 8 5 -2 7 6 5 17 -2 11 4 24 13 30 9 5
12 10 6 10 -6 0 -14 -3 -18 -7 -4 -5 -13 -8 -19 -8 -7 0 -12 -5 -12 -12 0 -6
-3 -15 -7 -19 -4 -4 -2 -14 5 -23 10 -14 10 -14 -4 -4 -9 7 -19 10 -22 6 -10
-10 -8 6 3 28 8 13 7 19 0 19 -6 0 -9 4 -6 9 3 5 -1 14 -9 21 -8 7 -13 16 -10
20 3 5 1 11 -5 15 -5 3 -10 -1 -10 -9z m25 -53 c-2 -10 -4 -19 -5 -20 -2 -3
-5 -12 -9 -29 0 -3 -6 -2 -12 1 -7 5 -4 14 7 26 9 10 14 19 10 19 -4 0 -4 5
-1 10 9 15 14 12 10 -7z m59 -12 c3 -5 -2 -15 -12 -22 -15 -12 -16 -12 -5 2 7
9 10 19 6 22 -3 4 -4 7 0 7 3 0 8 -4 11 -9z m-48 -60 c-7 -10 18 -34 27 -25 3
3 4 -1 3 -10 -1 -9 -6 -17 -12 -17 -5 0 -14 -5 -21 -10 -8 -7 -11 -5 -8 8 1
10 -1 26 -6 35 -6 11 -5 18 4 21 18 8 19 8 13 -2z m-70 -216 c-1 -8 -7 -20
-13 -26 -13 -13 -13 7 0 29 11 16 16 15 13 -3z m144 -100 c0 -24 -19 -26 -30
-4 -8 15 -9 19 -1 15 6 -4 11 -2 11 4 0 6 5 8 10 5 6 -3 10 -12 10 -20z m-104
-11 c1 -9 0 -13 -4 -10 -3 4 -7 14 -8 22 -1 9 0 13 4 10 3 -4 7 -14 8 -22z
m-94 -56 c-8 -8 -9 -4 -5 13 4 13 8 18 11 10 2 -7 -1 -18 -6 -23z m128 -36 c0
-15 -2 -15 -10 -2 -13 20 -13 33 0 25 6 -3 10 -14 10 -23z"/>
<path d="M1846 412 c-3 -5 1 -9 9 -9 8 0 12 4 9 9 -3 4 -7 8 -9 8 -2 0 -6 -4
-9 -8z"/>
<path d="M5494 575 c-3 -8 -4 -20 -2 -27 3 -7 7 -1 10 15 6 29 1 36 -8 12z"/>
<path d="M5521 574 c0 -11 3 -14 6 -6 3 7 2 16 -1 19 -3 4 -6 -2 -5 -13z"/>
<path d="M1870 567 c0 -8 7 -14 15 -14 11 0 12 4 4 14 -6 7 -13 13 -15 13 -2
0 -4 -6 -4 -13z"/>
<path d="M5514 526 c-3 -8 -4 -25 -2 -38 3 -17 5 -13 9 15 5 38 2 47 -7 23z"/>
<path d="M5545 510 c-4 -17 -5 -34 -2 -36 3 -3 8 9 12 26 4 17 5 34 2 36 -3 3
-8 -9 -12 -26z"/>
<path d="M2093 523 c4 -6 1 -14 -5 -17 -7 -2 -3 -4 9 -2 12 1 26 6 30 12 5 5
4 6 -1 2 -5 -4 -16 -2 -24 5 -11 8 -14 8 -9 0z"/>
<path d="M1980 516 c0 -2 8 -10 18 -17 15 -13 16 -12 3 4 -13 16 -21 21 -21
13z"/>
<path d="M1699 504 c-1 -2 -2 -8 -3 -13 0 -5 -4 -12 -8 -16 -4 -4 -3 -18 3
-32 6 -16 6 -22 -1 -18 -6 3 -10 -1 -10 -11 0 -14 -2 -15 -17 -3 -17 13 -17
13 -3 -5 8 -11 15 -31 15 -45 0 -14 5 -26 10 -27 6 0 18 -4 28 -9 13 -5 25 -1
42 15 14 13 22 26 20 31 -3 4 -1 10 5 14 12 7 14 36 3 34 -24 -4 -33 4 -33 29
0 33 -13 55 -34 58 -9 1 -17 0 -17 -2z m22 -21 c13 -16 12 -17 -3 -4 -17 13
-22 21 -14 21 2 0 10 -8 17 -17z m12 -64 c-4 -14 0 -17 16 -14 26 5 35 -9 17
-24 -10 -9 -16 -9 -21 -1 -5 8 -12 7 -23 -2 -15 -12 -16 -11 -3 5 12 15 11 17
-4 17 -13 0 -15 3 -6 13 6 8 9 16 6 19 -3 2 1 5 9 5 8 0 11 -8 9 -18z m27 -65
c0 -8 -19 -13 -24 -6 -3 5 1 9 9 9 8 0 15 -2 15 -3z"/>
<path d="M1746 388 c3 -5 10 -6 15 -3 13 9 11 12 -6 12 -8 0 -12 -4 -9 -9z"/>
<path d="M2016 468 c3 -5 10 -6 15 -3 13 9 11 12 -6 12 -8 0 -12 -4 -9 -9z"/>
<path d="M5477 461 c-4 -17 -3 -21 5 -13 5 5 8 16 6 23 -3 8 -7 3 -11 -10z"/>
<path d="M1955 380 c3 -5 8 -10 11 -10 2 0 4 5 4 10 0 6 -5 10 -11 10 -5 0 -7
-4 -4 -10z"/>
<path d="M1878 357 c6 -7 10 -22 8 -33 -2 -10 -1 -13 1 -6 3 6 8 12 13 12 14
0 0 28 -17 34 -12 5 -13 3 -5 -7z"/>
<path d="M2100 361 c0 -6 4 -13 10 -16 6 -3 7 1 4 9 -7 18 -14 21 -14 7z"/>
<path d="M2140 330 c0 -5 5 -10 11 -10 5 0 7 5 4 10 -3 6 -8 10 -11 10 -2 0
-4 -4 -4 -10z"/>
<path d="M2191 284 c0 -11 3 -14 6 -6 3 7 2 16 -1 19 -3 4 -6 -2 -5 -13z"/>
<path d="M1650 271 c0 -5 8 -15 18 -22 15 -12 16 -12 5 2 -7 9 -10 19 -6 22 3
4 1 7 -5 7 -7 0 -12 -4 -12 -9z"/>
<path d="M1665 220 c-4 -6 -10 -8 -15 -5 -4 3 -7 -3 -5 -12 2 -10 4 -20 4 -22
2 -10 25 20 27 34 3 17 -2 19 -11 5z"/>
<path d="M1700 129 c0 -5 5 -7 10 -4 6 3 10 8 10 11 0 2 -4 4 -10 4 -5 0 -10
-5 -10 -11z"/>
<path d="M5778 79 c-10 -5 -24 -9 -32 -7 -8 2 -15 -1 -15 -7 -2 -17 46 -12 58
7 13 21 12 21 -11 7z"/>
<path d="M2460 10 c0 -5 5 -10 10 -10 6 0 10 5 10 10 0 6 -4 10 -10 10 -5 0
-10 -4 -10 -10z"/>
</g>
</svg>
