<?xml version="1.0" standalone="no"?>
<!DOCTYPE svg PUBLIC "-//W3C//DTD SVG 20010904//EN"
 "http://www.w3.org/TR/2001/REC-SVG-20010904/DTD/svg10.dtd">
<svg version="1.0" xmlns="http://www.w3.org/2000/svg"
 width="2500.000000pt" height="935.000000pt" viewBox="0 0 2500.000000 935.000000"
 preserveAspectRatio="xMidYMid meet">

<g transform="translate(0.000000,935.000000) scale(0.100000,-0.100000)"
fill="#000000" stroke="none">
<path d="M19320 9343 c-162 -25 -291 -81 -336 -145 -191 -272 -609 -1412
-1078 -2943 -404 -1320 -494 -1701 -636 -2695 -33 -228 -65 -437 -71 -465 -93
-430 -388 -720 -714 -703 -203 11 -349 156 -416 413 -27 104 -37 352 -20 491
43 344 178 643 392 869 124 130 260 206 407 226 70 10 90 9 188 -11 208 -44
298 -28 336 58 59 132 -31 283 -225 377 -605 293 -1247 8 -1607 -713 -104
-209 -168 -410 -212 -667 -18 -106 -22 -171 -22 -345 -1 -249 13 -346 74 -531
118 -356 323 -575 630 -674 71 -23 109 -28 229 -33 159 -5 231 4 381 48 128
38 180 59 349 143 141 71 146 72 220 72 86 -1 96 -5 259 -108 222 -141 432
-195 712 -184 274 11 519 109 672 270 79 83 112 152 116 244 5 91 -16 140 -92
211 -96 91 -148 91 -344 -3 -147 -71 -214 -88 -322 -83 -169 9 -262 94 -311
288 -21 83 -19 423 4 570 75 481 189 889 598 2135 400 1217 466 1397 909 2460
191 458 359 881 390 980 74 242 -3 394 -224 441 -57 12 -180 16 -236 7z"/>
<path d="M6030 9095 c-784 -87 -1909 -535 -3170 -1263 -437 -252 -921 -564
-1345 -866 -314 -224 -489 -359 -780 -601 -126 -104 -279 -231 -340 -280 -213
-174 -339 -318 -366 -419 -6 -22 -9 -68 -7 -101 11 -177 219 -422 447 -528 59
-28 76 -31 161 -32 82 0 103 4 150 26 83 39 249 182 785 679 802 743 920 843
1515 1281 976 719 1583 1084 2155 1297 365 136 748 206 940 173 191 -33 293
-130 347 -328 30 -111 29 -374 -1 -598 -59 -440 -237 -1120 -508 -1942 l-76
-231 -81 -35 c-45 -20 -160 -70 -256 -112 -502 -221 -703 -302 -825 -335 -113
-30 -173 -65 -213 -124 -54 -81 -67 -141 -67 -311 0 -133 2 -155 22 -197 32
-70 70 -90 158 -85 56 4 100 17 220 65 155 62 529 229 648 288 81 40 110 42
142 9 39 -38 33 -83 -41 -303 -141 -420 -262 -725 -539 -1357 -223 -507 -314
-700 -685 -1450 -455 -919 -546 -1124 -534 -1192 22 -126 122 -188 342 -214
265 -32 444 14 586 150 53 50 62 67 228 441 663 1487 1214 2899 1553 3983 82
261 105 314 160 370 66 68 100 80 692 257 111 34 349 94 527 135 391 89 421
97 513 141 118 56 179 147 215 323 33 158 11 338 -50 410 -17 21 -18 20 -162
-25 -218 -68 -795 -246 -965 -297 -82 -25 -218 -66 -301 -91 -200 -60 -238
-59 -264 8 -17 47 -12 85 55 375 79 342 155 718 189 941 54 353 61 438 61 760
0 278 -2 315 -23 417 -12 62 -32 143 -43 180 -51 166 -168 343 -293 442 -193
154 -486 209 -876 166z"/>
<path d="M23173 5885 c-155 -42 -294 -174 -385 -364 -104 -218 -131 -522 -74
-841 13 -74 13 -76 -16 -160 -68 -196 -193 -410 -393 -675 -457 -606 -1181
-1207 -1637 -1360 -109 -36 -257 -46 -322 -21 -90 35 -145 119 -146 222 0 89
40 163 136 253 114 107 247 165 514 226 359 82 582 311 489 502 -43 89 -141
142 -289 157 -36 4 -96 11 -135 17 -38 5 -162 21 -275 35 -198 24 -423 62
-620 103 -326 69 -376 82 -415 109 -117 81 -105 241 22 303 46 23 57 24 238
23 105 -1 276 -8 380 -17 342 -29 753 -43 861 -29 253 32 447 165 550 377 55
115 83 229 91 379 l6 119 -29 -7 c-53 -14 -457 -97 -586 -121 -272 -51 -550
-75 -888 -75 -398 0 -724 -47 -985 -142 -190 -69 -307 -141 -411 -249 -103
-109 -151 -214 -160 -354 -18 -257 126 -470 414 -614 144 -73 270 -114 662
-221 116 -31 147 -48 169 -87 31 -59 11 -82 -180 -213 -186 -127 -337 -270
-388 -367 -131 -253 -38 -587 217 -775 177 -131 387 -187 651 -174 689 32
1347 350 1897 917 234 241 334 372 612 801 92 141 189 284 215 318 51 66 107
99 164 100 80 0 236 -84 281 -153 45 -68 39 -122 -29 -253 -254 -496 -274
-542 -305 -716 -50 -274 74 -484 368 -623 144 -68 264 -97 431 -103 171 -5
268 8 409 58 151 53 261 123 384 245 76 75 109 116 133 166 38 77 49 161 32
227 -14 51 -73 119 -118 139 -65 27 -85 20 -276 -95 -146 -87 -260 -127 -344
-119 -75 7 -133 35 -191 91 -64 60 -83 105 -83 186 0 156 78 300 354 655 77
99 148 198 158 220 25 54 23 100 -5 161 -35 76 -126 161 -351 329 -121 90
-242 191 -307 255 -97 96 -108 110 -123 165 -20 68 -16 187 10 355 61 378 9
566 -187 678 -29 16 -138 56 -142 51 -1 0 -25 -7 -53 -14z"/>
<path d="M24433 5515 c-152 -47 -271 -199 -281 -360 -12 -185 78 -339 245
-418 63 -29 76 -32 169 -32 96 0 103 2 176 38 89 44 162 117 204 205 37 76 45
212 18 298 -36 115 -143 224 -260 264 -67 24 -205 26 -271 5z m293 -75 c70
-34 129 -94 165 -168 20 -40 24 -62 24 -152 0 -90 -3 -112 -23 -152 -116 -235
-429 -278 -600 -83 -145 165 -103 432 86 543 106 62 238 67 348 12z"/>
<path d="M24392 5123 l3 -228 38 -3 37 -3 0 90 0 91 63 0 c34 0 72 -3 85 -6
28 -8 52 -52 52 -96 0 -64 9 -78 47 -78 l35 0 -7 68 c-9 80 -25 116 -63 136
-20 12 -23 15 -9 16 10 0 32 13 48 29 24 25 29 37 29 81 0 105 -43 129 -233
130 l-127 0 2 -227z m241 156 c30 -16 37 -28 37 -70 0 -56 -26 -73 -121 -78
l-79 -3 0 81 0 81 71 0 c39 0 80 -5 92 -11z"/>
<path d="M10625 5128 c-55 -16 -165 -42 -245 -58 -273 -56 -347 -61 -1000 -70
-658 -9 -764 -16 -1033 -71 -292 -59 -487 -152 -612 -291 -88 -98 -125 -201
-125 -347 0 -151 36 -252 127 -366 170 -211 569 -371 1058 -425 78 -8 93 -13
113 -35 39 -46 30 -65 -80 -182 -178 -189 -310 -386 -349 -523 -21 -71 -18
-320 4 -400 61 -221 213 -381 424 -445 181 -56 435 -47 626 22 156 55 279 135
632 408 285 221 550 409 767 544 101 63 284 184 408 269 246 169 374 247 433
263 61 16 117 -6 141 -54 l19 -39 -47 -211 c-62 -287 -76 -381 -76 -520 0
-140 27 -294 67 -377 74 -152 271 -258 431 -230 85 15 140 44 237 126 173 147
236 223 460 554 76 113 181 264 233 335 53 72 147 202 211 290 201 281 299
387 385 420 41 16 46 16 76 0 21 -11 39 -32 52 -63 27 -61 22 -154 -25 -412
-60 -325 -71 -422 -71 -605 -1 -196 15 -285 69 -400 61 -129 156 -211 304
-265 110 -40 227 -54 401 -47 172 7 238 18 344 59 62 24 92 43 137 87 98 96
102 181 13 280 -70 78 -113 91 -307 94 -114 2 -170 7 -189 16 -74 37 -89 185
-44 416 14 72 67 281 117 465 158 584 194 776 187 995 -6 162 -27 227 -97 295
-47 46 -151 102 -251 136 -83 28 -251 26 -350 -4 -310 -98 -606 -370 -1049
-964 -119 -161 -151 -195 -207 -220 -106 -46 -185 32 -284 281 -41 102 -73
141 -148 178 -51 25 -70 28 -174 32 -233 7 -519 -69 -879 -234 -245 -112 -420
-221 -919 -570 -696 -488 -984 -645 -1180 -645 -108 1 -191 85 -190 194 1 111
165 283 361 379 52 25 180 76 284 112 238 84 451 186 522 249 74 67 97 120 89
204 -8 96 -54 185 -114 223 -59 37 -71 37 -482 -2 -538 -50 -861 -50 -1165 1
-147 25 -313 66 -333 82 -24 20 -52 89 -52 131 0 56 34 113 86 147 68 43 154
55 294 41 143 -14 448 -28 870 -41 468 -14 683 -13 776 5 256 49 408 182 460
402 26 112 4 401 -31 409 -6 1 -55 -12 -110 -28z"/>
</g>
</svg>
