<?xml version="1.0" standalone="no"?>
<!DOCTYPE svg PUBLIC "-//W3C//DTD SVG 20010904//EN"
 "http://www.w3.org/TR/2001/REC-SVG-20010904/DTD/svg10.dtd">
<svg version="1.0" xmlns="http://www.w3.org/2000/svg"
 width="2500.000000pt" height="2500.000000pt" viewBox="0 0 2500.000000 2500.000000"
 preserveAspectRatio="xMidYMid meet">

<g transform="translate(0.000000,2500.000000) scale(0.100000,-0.100000)"
fill="#000000" stroke="none">
<path d="M9040 19471 c-226 -85 -435 -162 -694 -257 -126 -46 -232 -87 -235
-90 -3 -3 -7 -1102 -9 -2442 -2 -2009 -5 -2482 -17 -2692 -14 -248 -49 -587
-80 -780 -9 -52 -18 -111 -21 -130 -5 -35 -15 -84 -75 -375 -63 -301 -132
-483 -220 -579 -89 -98 -193 -146 -314 -146 -180 0 -338 100 -396 251 l-24 64
-3 1230 c-2 676 -5 1231 -8 1234 -5 5 -54 -6 -229 -54 -119 -32 -345 -92 -685
-180 -96 -25 -182 -48 -192 -51 -15 -4 -17 -71 -21 -822 -5 -926 -10 -1014
-78 -1354 -58 -295 -144 -561 -235 -733 -58 -110 -142 -223 -195 -266 -91 -72
-231 -91 -326 -44 -100 50 -181 172 -203 306 -6 42 -10 496 -10 1292 0 1165
-1 1228 -17 1223 -18 -6 -530 -157 -593 -176 -19 -5 -102 -30 -185 -54 -82
-24 -169 -49 -192 -55 l-43 -12 0 -1018 c0 -831 -3 -1047 -15 -1177 -28 -290
-53 -428 -121 -658 -140 -473 -395 -785 -744 -909 -82 -29 -228 -57 -300 -57
-68 0 -274 32 -282 44 -4 6 -8 1258 -8 2783 0 2982 -2 2873 50 3140 82 418
272 654 615 767 138 45 394 71 587 60 92 -6 114 -11 156 -34 69 -40 100 -90
112 -181 5 -42 10 -403 10 -828 l0 -754 41 7 c23 4 229 70 458 147 488 164
614 206 774 254 l117 36 0 838 c0 509 -4 879 -10 940 -37 353 -211 574 -522
665 -76 22 -321 49 -383 41 -27 -3 -106 -10 -175 -15 -283 -22 -647 -117
-1260 -325 -650 -222 -1171 -510 -1456 -806 -127 -133 -212 -268 -256 -409
l-23 -75 0 -3430 0 -3430 23 -90 c64 -245 210 -428 398 -497 86 -31 321 -31
445 0 115 28 287 96 438 172 121 60 189 98 451 250 279 161 389 204 515 198
74 -3 84 -6 122 -36 50 -39 85 -107 113 -216 20 -78 20 -108 20 -1898 0 -1469
2 -1818 13 -1818 7 0 165 51 352 114 187 62 481 159 653 215 l312 103 0 1531
c0 1527 6 1855 36 2087 54 420 154 697 339 931 32 41 111 126 175 190 138 137
211 181 315 187 101 7 141 -17 212 -125 100 -151 143 -205 247 -309 110 -109
166 -143 271 -164 50 -10 72 -9 129 4 135 32 328 187 433 347 27 42 92 159
143 260 108 213 176 324 246 395 78 80 123 101 239 112 96 9 102 9 149 -15 70
-36 144 -108 156 -153 6 -21 16 -104 24 -185 8 -81 19 -152 25 -158 14 -14
347 73 901 234 421 122 586 177 905 299 677 260 1123 514 1368 779 70 76 90
115 122 232 27 103 59 163 110 207 72 64 155 92 271 92 107 0 163 -18 229 -75
l55 -47 0 -239 0 -239 104 0 105 0 68 55 c76 62 249 152 363 189 73 24 226 53
405 76 243 31 458 92 751 214 320 132 408 180 579 316 221 175 390 412 447
625 57 217 5 521 -134 774 -171 312 -428 553 -858 801 -364 211 -527 344 -660
540 -68 101 -94 166 -94 240 0 79 22 127 87 187 81 75 197 117 349 129 145 11
230 -27 369 -166 93 -94 150 -177 190 -277 63 -157 103 -193 219 -193 88 0
125 18 200 95 116 119 258 224 399 295 112 56 161 70 250 70 59 0 83 -5 125
-26 154 -77 188 -181 168 -515 -18 -286 -16 -846 3 -994 38 -295 125 -487 289
-643 198 -187 480 -273 851 -259 516 21 1196 256 1820 630 362 217 458 298
620 523 120 166 219 272 313 337 65 44 75 48 148 53 135 11 226 -31 279 -127
29 -52 30 -59 36 -229 4 -96 10 -183 14 -192 9 -23 21 -22 81 2 27 11 123 47
214 81 91 34 217 81 280 104 63 24 212 79 330 123 l215 79 5 1409 5 1409 33
45 c42 57 131 116 197 131 78 17 191 8 248 -20 71 -35 135 -105 142 -155 2
-23 6 -1308 8 -2856 4 -2785 4 -2816 24 -2885 48 -169 118 -291 227 -401 88
-89 172 -139 287 -170 96 -27 379 -24 509 4 379 84 621 199 829 398 188 178
296 364 364 624 29 113 30 120 34 436 3 182 2 328 -3 337 -8 14 -33 8 -207
-49 l-197 -66 0 -183 c0 -207 -15 -313 -59 -410 -37 -81 -80 -128 -143 -155
-47 -20 -64 -22 -173 -18 -140 6 -188 23 -255 90 -46 47 -72 98 -95 187 -13
52 -15 449 -15 3411 l0 3352 -28 28 c-39 39 -88 50 -222 50 -131 0 -58 21
-805 -235 -407 -139 -693 -235 -699 -235 -2 0 -5 50 -8 111 -3 107 -4 112 -31
135 -62 53 -259 24 -537 -80 -346 -129 -545 -207 -568 -222 -24 -16 -25 -18
-19 -118 9 -157 -23 -1272 -44 -1536 -48 -602 -142 -1067 -270 -1326 -73 -150
-205 -274 -327 -310 -113 -33 -239 -1 -306 78 -42 49 -100 165 -126 253 -50
170 -52 213 -60 1015 -8 814 -9 829 -64 973 -30 81 -71 141 -129 189 -73 60
-101 69 -297 94 -214 26 -444 12 -576 -37 -32 -12 -61 -23 -63 -25 -2 -2 -3
-763 -2 -1691 1 -1006 -2 -1727 -8 -1784 -12 -120 -40 -180 -125 -264 -109
-109 -246 -159 -420 -153 -97 3 -107 5 -187 45 -140 69 -250 185 -332 348 -71
144 -67 63 -67 1272 0 761 3 1100 11 1128 17 60 66 154 106 204 50 61 143 118
214 133 l59 12 0 263 0 263 -48 0 c-141 0 -361 -61 -528 -146 -200 -101 -330
-199 -525 -393 -130 -130 -201 -216 -444 -532 -139 -182 -218 -265 -291 -309
-55 -33 -63 -35 -144 -34 -132 2 -220 50 -269 150 -24 46 -24 50 -17 246 8
212 4 232 -38 224 -11 -3 -55 -10 -96 -16 -327 -52 -814 -181 -1220 -323 -243
-85 -546 -221 -665 -297 -157 -102 -201 -135 -307 -239 -241 -233 -350 -459
-350 -721 0 -165 28 -282 107 -445 158 -328 526 -703 985 -1006 47 -31 171
-112 275 -181 222 -146 317 -229 365 -320 31 -58 35 -72 38 -167 3 -80 0 -118
-14 -165 -23 -78 -85 -173 -146 -223 -73 -60 -134 -78 -258 -77 -94 0 -111 4
-164 29 -32 15 -89 56 -126 91 -88 84 -127 142 -278 418 -34 63 -55 76 -124
76 -78 0 -241 -42 -523 -135 -347 -114 -406 -129 -491 -122 -114 8 -156 41
-209 160 -49 112 -48 95 -55 1002 -6 831 -7 863 -27 955 -39 173 -71 234 -154
300 -71 56 -199 116 -299 141 -121 31 -341 23 -480 -16 -176 -50 -245 -98
-272 -187 -8 -30 -12 -135 -13 -348 l0 -305 156 0 c180 0 184 -2 225 -90 23
-48 24 -60 24 -265 0 -118 -7 -433 -15 -700 -8 -267 -17 -667 -20 -890 -8
-533 -28 -673 -119 -863 -51 -107 -101 -172 -176 -228 -87 -65 -164 -95 -273
-105 -158 -14 -286 35 -407 155 -80 79 -120 146 -146 246 -11 41 -14 671 -14
3603 l0 3552 -27 0 c-16 -1 -98 -27 -183 -59z"/>
<path d="M6173 17550 c-261 -68 -459 -265 -532 -530 -26 -92 -29 -282 -6 -378
51 -217 195 -402 387 -497 493 -243 1058 114 1058 669 0 140 -32 260 -109 406
-13 24 -65 86 -115 136 -78 78 -105 98 -186 137 -52 25 -127 52 -167 61 -97
21 -240 20 -330 -4z"/>
</g>
</svg>
