<?xml version="1.0" standalone="no"?>
<!DOCTYPE svg PUBLIC "-//W3C//DTD SVG 20010904//EN"
 "http://www.w3.org/TR/2001/REC-SVG-20010904/DTD/svg10.dtd">
<svg version="1.0" xmlns="http://www.w3.org/2000/svg"
 width="2500.000000pt" height="2500.000000pt" viewBox="0 0 2500.000000 2500.000000"
 preserveAspectRatio="xMidYMid meet">

<g transform="translate(0.000000,2500.000000) scale(0.100000,-0.100000)"
fill="#000000" stroke="none">
<path d="M2880 16435 c-15 -18 -13 -28 45 -193 268 -772 358 -1738 244 -2612
-19 -150 -61 -398 -78 -470 -5 -19 -12 -47 -15 -62 -5 -20 -19 -34 -54 -52
-95 -48 -164 -60 -345 -61 -182 0 -187 -1 -187 -58 0 -19 7 -30 23 -37 17 -8
346 -91 455 -115 28 -7 29 -2 -54 -256 -102 -316 -204 -562 -355 -855 -261
-508 -556 -944 -941 -1390 -91 -106 -346 -378 -402 -429 -18 -16 -48 -47 -66
-68 l-33 -38 54 22 c700 276 2268 715 4074 1140 1033 243 1870 410 2190 435
50 4 99 10 109 14 17 6 16 9 -15 32 -49 37 -212 122 -294 153 -146 55 -173 57
-393 25 -362 -53 -1018 -174 -1454 -269 -101 -22 -239 -52 -308 -66 -117 -25
-230 -50 -430 -95 -743 -170 -1335 -312 -1894 -454 -165 -41 -301 -74 -302
-73 -2 2 31 57 73 122 315 497 532 991 682 1555 28 105 71 288 86 368 5 24 12
32 28 32 12 0 144 -32 292 -70 149 -39 407 -105 576 -147 355 -89 337 -90 487
5 48 30 92 56 97 59 6 2 19 -19 29 -47 75 -208 258 -323 516 -324 63 0 115 6
155 18 229 68 423 266 586 597 l58 117 53 -12 c29 -7 134 -34 233 -60 104 -28
200 -48 228 -47 48 1 98 20 289 110 97 46 174 55 216 25 50 -35 14 -151 -64
-202 -68 -44 -134 -51 -418 -45 -188 4 -277 3 -316 -6 -89 -20 -211 -69 -262
-106 -60 -44 -124 -125 -138 -173 -16 -57 -13 -216 5 -259 57 -136 222 -223
425 -223 113 0 175 16 278 71 41 21 75 39 76 39 2 0 6 -22 10 -49 7 -52 48
-119 90 -146 22 -15 219 -67 891 -237 276 -69 318 -71 420 -22 107 52 147 103
294 374 74 135 149 272 167 306 81 148 199 211 291 154 52 -32 66 -61 61 -133
-4 -57 -14 -79 -118 -267 -62 -113 -130 -235 -152 -272 -107 -181 -103 -299
12 -370 48 -29 33 -25 990 -267 305 -77 645 -163 754 -190 109 -28 214 -51
232 -51 81 0 238 80 385 195 113 89 133 94 266 65 106 -22 153 -37 153 -49 0
-4 -101 -69 -225 -144 -207 -128 -243 -152 -234 -162 2 -2 229 -60 504 -130
275 -69 660 -167 855 -217 346 -87 357 -90 450 -86 80 4 104 9 153 33 101 50
149 113 279 365 64 124 130 251 147 284 38 71 42 130 10 147 -33 17 -67 -15
-119 -112 -100 -187 -292 -330 -464 -346 -52 -5 -94 3 -291 52 -126 31 -232
59 -235 62 -7 6 33 36 115 85 65 38 775 470 1020 619 60 37 111 72 113 78 2 5
-14 14 -35 20 -21 5 -261 66 -533 135 -272 69 -609 155 -748 191 -145 37 -275
65 -303 65 -135 0 -313 -177 -446 -445 -58 -116 -69 -153 -50 -172 24 -24 52
-7 107 63 58 74 120 118 200 141 107 31 398 0 493 -53 17 -10 17 -11 0 -26
-10 -8 -125 -84 -256 -167 l-238 -153 -422 107 c-329 84 -442 108 -513 112
-109 7 -112 5 -277 -119 -65 -49 -134 -96 -152 -104 -73 -30 -154 -8 -182 50
l-17 36 92 185 c50 102 97 185 103 185 7 0 208 -50 448 -111 l436 -110 28 33
c45 52 118 174 144 240 31 75 41 194 23 267 -24 102 -118 209 -235 268 -66 34
-302 112 -430 144 -282 69 -498 56 -687 -42 -92 -49 -165 -117 -233 -220 -52
-79 -220 -396 -261 -492 -33 -77 -41 -170 -21 -219 19 -45 21 -44 -92 -18
-148 35 -171 52 -171 122 0 59 26 121 121 294 49 89 128 240 176 335 80 157
88 178 91 240 4 59 1 74 -24 119 -46 85 -141 149 -299 202 -59 19 -90 23 -195
23 -143 -1 -207 -16 -348 -85 l-84 -40 2 42 c5 94 1 116 -31 153 -18 20 -44
42 -58 49 -14 8 -152 46 -306 86 -479 123 -478 123 -489 93 -8 -21 3 -32 84
-86 36 -23 78 -62 95 -85 26 -38 30 -52 30 -110 -1 -72 8 -54 -172 -372 -88
-156 -122 -218 -128 -237 -3 -13 -10 -23 -14 -23 -4 0 -25 -35 -47 -77 -21
-43 -58 -97 -81 -120 -39 -39 -47 -43 -93 -43 -41 0 -55 5 -82 29 -51 45 -45
89 29 226 173 317 314 597 329 653 22 78 11 131 -42 209 -75 110 -230 197
-483 272 -237 71 -424 95 -543 70 -73 -15 -237 -98 -331 -167 -43 -31 -93 -67
-110 -80 -27 -20 -39 -22 -82 -17 -27 4 -54 11 -60 16 -6 6 -8 51 -7 107 5
126 -17 188 -94 271 -98 106 -234 161 -399 161 -83 0 -117 -5 -192 -29 -91
-28 -91 -28 -83 -6 4 12 69 136 142 276 74 140 143 277 154 304 48 126 2 289
-97 340 -14 8 -164 48 -333 91 -277 69 -309 75 -323 61 -27 -27 -9 -60 46 -84
67 -28 86 -60 86 -144 0 -79 5 -69 -267 -559 -96 -173 -189 -342 -207 -375
-52 -95 -259 -470 -321 -580 -45 -81 -65 -106 -104 -132 -53 -36 -106 -43
-178 -21 -60 18 -88 52 -88 107 0 40 12 69 86 201 47 85 134 243 194 350 673
1221 660 1198 732 1266 116 110 207 139 405 131 115 -5 135 -4 152 11 30 25
37 73 14 93 -10 9 -120 41 -244 72 -263 65 -1090 274 -1259 319 -63 16 -130
30 -148 30 -37 0 -72 -26 -72 -53 0 -42 23 -65 101 -103 89 -43 171 -115 194
-170 20 -47 19 -144 -1 -192 -9 -22 -60 -118 -113 -214 -54 -96 -115 -206
-136 -245 -21 -38 -73 -133 -115 -210 -43 -77 -96 -174 -118 -215 -115 -217
-172 -314 -172 -295 0 6 -2 143 -4 305 -3 162 -9 358 -15 435 -49 627 -169
1238 -356 1800 -89 270 -119 324 -155 280z m2539 -3160 c117 -99 -39 -502
-257 -661 -66 -49 -125 -68 -167 -54 -46 15 -65 56 -65 140 0 158 109 374 255
508 99 90 178 113 234 67z m1517 -849 c-48 -160 -202 -296 -334 -296 -46 0
-58 4 -83 29 -59 59 -31 157 61 213 36 22 69 30 168 43 76 9 138 23 160 35 21
10 38 19 39 20 1 0 -4 -20 -11 -44z m3819 -380 c41 -17 55 -42 55 -95 0 -45
-32 -139 -58 -171 l-17 -22 -85 22 c-167 42 -160 39 -160 63 0 12 10 42 21 67
57 125 148 176 244 136z"/>
<path d="M14315 12374 c-348 -9 -854 -36 -1210 -64 -274 -22 -581 -53 -594
-60 -19 -10 33 -48 135 -99 90 -45 131 -61 249 -97 l80 -24 300 15 c1218 60
2329 34 3460 -80 468 -47 998 -123 1465 -210 1071 -199 2221 -544 3085 -927
50 -22 126 -56 170 -76 126 -55 556 -271 710 -357 332 -183 711 -425 960 -611
140 -105 336 -267 432 -357 l68 -64 51 12 c140 32 225 156 215 312 -1 25 -70
83 -278 234 -920 668 -2177 1275 -3483 1684 -806 252 -1725 461 -2520 574
-281 40 -322 46 -615 81 -263 32 -697 67 -1190 96 -243 14 -1204 26 -1490 18z"/>
</g>
</svg>
