<?xml version="1.0" encoding="UTF-8" standalone="no"?>
<svg
   xmlns:dc="http://purl.org/dc/elements/1.1/"
   xmlns:cc="http://creativecommons.org/ns#"
   xmlns:rdf="http://www.w3.org/1999/02/22-rdf-syntax-ns#"
   xmlns:svg="http://www.w3.org/2000/svg"
   xmlns="http://www.w3.org/2000/svg"
   viewBox="0 0 244.77333 84.400002"
   height="84.400002"
   width="244.77333"
   xml:space="preserve"
   id="svg2"
   version="1.1"><metadata
     id="metadata8"><rdf:RDF><cc:Work
         rdf:about=""><dc:format>image/svg+xml</dc:format><dc:type
           rdf:resource="http://purl.org/dc/dcmitype/StillImage" /></cc:Work></rdf:RDF></metadata><defs
     id="defs6" /><g
     transform="matrix(1.3333333,0,0,-1.3333333,0,84.4)"
     id="g10"><g
       transform="scale(0.1)"
       id="g12"><path
         id="path14"
         style="fill:#231f20;fill-opacity:1;fill-rule:nonzero;stroke:none"
         d="M 2.10938,204.992 C 20.8359,112.754 82.5742,15.332 176.449,15.332 c 81.422,0 102.496,86.211 102.496,119.734 0,33.528 -30.652,56.516 -58.433,56.516 -27.778,0 -35.446,-19.16 -37.36,-22.988 -1.91,-3.828 3.836,-12.453 8.625,-11.496 4.789,0.957 59.629,6.476 59.629,-43.328 0,-49.8052 -38.551,-72.5786 -72.078,-72.5786 -68.015,0 -139.8592,114.9416 -139.8592,235.6446 0,120.699 61.3082,128.359 71.8442,128.359 26.824,0 73.761,-17.234 73.761,-83.336 0,-42.152 -22.035,-56.519 -44.066,-56.519 -22.031,0 -33.528,14.375 -34.485,20.121 -0.957,5.742 -9.5738,3.836 -12.4488,-3.832 -2.8789,-7.664 -0.9648,-45.984 45.9768,-45.984 42.148,0 77.59,39.277 77.59,95.796 0,60.348 -49.813,96.747 -100.578,96.747 -65.1372,0 -140.8169,-95.797 -114.95362,-223.196" /><path
         id="path16"
         style="fill:#231f20;fill-opacity:1;fill-rule:nonzero;stroke:none"
         d="m 104.609,334.313 c -32.5738,0 -47.8942,26.82 -47.8942,57.476 0,30.652 29.4766,69.91 72.1642,84.613 29.23,10.067 44.414,3.489 74.105,9.243 29.692,5.75 42.438,15.347 48.184,17.261 5.746,1.914 16.285,6.699 17.242,-12.457 0.957,-19.156 5.75,-104.41 8.621,-124.527 2.871,-20.117 8.617,-39.281 18.199,-45.981 9.579,-6.699 26.821,-8.625 30.653,-8.625 3.836,0 16.285,-4.781 10.539,-13.406 -5.746,-8.621 -39.274,-4.785 -39.274,-4.785 0,0 22.27,-66.105 31.852,-101.543 9.578,-35.441 21.141,-112.7148 9.336,-136.9843 C 321.094,19.1602 301.938,0 277.031,0 c -24.906,0 -28.734,10.5469 -28.734,26.8281 0,16.2774 7.66,14.3516 8.617,17.2344 0.957,2.8789 10.539,0 14.371,-1.9141 3.832,-1.914 4.793,-3.8281 14.367,-3.8281 9.578,0 27.782,9.5781 32.571,31.6094 4.789,22.0312 -35.446,132.1993 -42.149,159.9723 -6.703,27.774 -16.285,72.805 -16.285,72.805 0,0 -22.035,2.871 -29.695,4.785 -7.66,1.91 -0.957,12.449 4.789,17.238 5.746,4.79 21.074,11.497 21.074,11.497 0,0 -15.328,38.316 -15.328,64.179 0,25.864 -0.957,48.852 0,52.684 0.957,3.832 -4.785,4.789 -13.406,4.789 -7.465,0 -56.387,-5.981 -75.68,-7.66 -16.219,-1.41 -68.0078,-19.16 -66.0938,-50.77 1.9141,-31.613 4.7852,-33.527 17.2418,-33.527 12.457,0 13.414,5.75 14.372,11.496 0.957,5.746 7.664,5.746 14.367,0 6.707,-5.746 6.707,-3.832 6.707,-14.371 0,-10.539 -0.953,-28.734 -33.528,-28.734" /><path
         id="path18"
         style="fill:#231f20;fill-opacity:1;fill-rule:nonzero;stroke:none"
         d="m 186.699,475.184 c -1.804,51.461 30.09,76.226 70.875,86.925 40.785,10.7 60.844,18.051 64.86,18.723 4.011,0.668 17.382,6.688 18.05,-4.68 0.668,-11.367 10.036,-46.808 16.051,-58.175 6.016,-11.368 52.82,-80.903 52.82,-80.903 0,0 5.352,68.203 11.368,108.989 6.015,40.789 24.074,68.195 28.082,74.882 4.008,6.692 14.707,10.703 14.707,-4.675 0,-15.383 12.172,-139.852 38.113,-212.629 27.414,-76.887 56.164,-123.024 88.258,-138.407 32.094,-15.382 43.469,-13.367 50.152,-13.367 6.684,0 24.735,-5.355 10.699,-16.722 -14.039,-11.368 -22.281,-13.661 -52.824,-10.028 -39.449,4.688 -83.582,39.453 -110.996,97.621 -27.41,58.172 -46.801,163.813 -46.801,163.813 0,0 -3.343,-169.832 -3.343,-178.524 0,-8.691 -5.348,-9.355 -9.364,4.016 -4.011,13.371 -20.058,42.121 -31.426,64.187 -11.367,22.067 -32.761,41.454 -44.128,63.52 -11.368,22.066 -13.372,40.113 -15.375,45.465 -2.008,5.351 -7.36,0.668 -7.36,-8.692 0,-9.359 0,-26.75 2.676,-42.125 2.676,-15.375 8.023,-42.125 20.059,-71.543 12.035,-29.417 54.828,-98.968 54.828,-153.121 0,-54.148 -42.129,-96.941 -89.598,-96.941 -47.473,0 -56.168,8.027 -60.848,18.719 -4.675,10.695 6.024,12.035 12.707,10.695 6.684,-1.336 54.832,-3.34 77.563,19.395 22.73,22.734 19.394,102.304 0.668,149.777 -18.723,47.469 -44.129,102.965 -42.793,150.437 1.34,47.473 4.012,72.875 5.348,76.891 1.339,4.012 -2,6.688 -7.352,6.688 -5.352,0 -15.379,-7.352 -30.09,-11.368 -14.711,-4.011 -58.176,-6.683 -58.176,-53.488 0,-46.809 21.403,-52.156 36.782,-52.156 15.375,0 24.07,8.691 31.425,11.367 7.352,2.676 16.414,4.078 12.036,-16.719 -2.676,-12.699 -19.391,-24.734 -47.477,-24.734 -37.777,0 -58.836,38.773 -60.176,76.887" /><path
         id="path20"
         style="fill:#231f20;fill-opacity:1;fill-rule:nonzero;stroke:none"
         d="m 714.25,336.781 c -12.273,-3.855 -14.707,36.774 -14.707,69.535 0,32.766 1.336,64.192 2.004,82.243 0.672,18.05 -12.703,11.367 -17.387,9.363 -4.683,-2.008 -13.367,-17.383 -13.367,-17.383 0,0 0.668,6.684 -30.094,6.684 -30.761,0 -67.531,-32.094 -67.531,-101.633 0,-69.535 21.398,-104.973 56.836,-104.973 35.441,0 50.664,31.805 50.664,31.805 0,0 10.852,-13.75 18.875,-13.75 8.02,0 12.703,1.336 26.742,18.051 14.039,16.715 11.367,27.414 -12.035,20.058 z m -72.883,-20.058 c -28.082,0 -29.418,36.773 -29.418,67.531 0,40.785 10.699,69.539 33.434,69.539 22.734,0 26.742,-32.762 26.742,-57.504 0,-24.742 -2.676,-79.566 -30.758,-79.566" /><path
         id="path22"
         style="fill:#231f20;fill-opacity:1;fill-rule:nonzero;stroke:none"
         d="m 775.766,521.324 c 24.738,0 31.324,-20.453 31.324,-20.453 0,0 14.14,26.469 38.215,26.469 24.07,0 20.726,-8.692 20.726,-17.383 0,-8.691 -2.679,-22.062 -16.718,-25.406 -14.04,-3.344 -16.715,10.031 -28.75,0 -12.04,-10.031 -15.375,-117.684 -15.375,-131.723 0,-14.039 -3.645,-25.832 -22.364,-25.832 -18.722,0 -12.402,43.887 -7.726,84.676 4.675,40.785 6.015,60.172 -2.676,69.535 -8.692,9.359 -12.711,3.344 -16.719,3.344 -4.008,0 -12.035,-1.344 -6.683,13.371 5.351,14.711 11.371,23.402 26.746,23.402" /><path
         id="path24"
         style="fill:#231f20;fill-opacity:1;fill-rule:nonzero;stroke:none"
         d="m 884.086,388.93 c 0.848,28.738 14.039,64.191 16.047,86.254 2.008,22.066 6.015,22.062 6.015,26.746 0,4.679 -4.671,4.679 -8.687,4.679 -4.012,0 -17.387,0.664 -16.719,15.379 0.668,14.711 11.371,12.703 17.387,12.703 6.016,0 16.711,1.34 16.711,1.34 0,0 5.359,41.449 7.363,58.168 2,16.719 -7.363,38.785 18.047,38.785 25.41,0 19.395,-26.074 15.379,-42.793 -4.012,-16.718 -8.691,-53.492 -8.691,-53.492 0,0 4.679,-1.34 8.691,-1.34 4.016,0 10.156,-4.105 9.367,-7.351 -3.683,-15.047 -22.746,-6.684 -26.086,-22.067 -3.34,-15.378 -14.715,-66.863 -14.043,-94.945 0.676,-28.082 -1.328,-28.754 6.028,-34.769 7.351,-6.016 12.019,-5.348 16.707,-4.68 4.687,0.668 15.382,-8.692 6.691,-18.051 -8.691,-9.359 -20.723,-18.058 -39.453,-18.058 -22.731,0 -31.422,30.765 -30.754,53.492" /><path
         id="path26"
         style="fill:#231f20;fill-opacity:1;fill-rule:nonzero;stroke:none"
         d="m 990.395,519.316 c 0,10.028 21.395,20.727 36.775,20.727 15.38,0 31.43,-6.02 31.43,-30.754 0,-24.738 -30.03,-87.926 -30.03,-106.644 0,-18.715 13.37,-22.063 17.38,-22.063 4.01,0 16.89,-6.699 8.53,-15.055 -8.36,-8.355 -19.28,-18.476 -38,-18.476 -27.421,0 -31.425,19.816 -31.425,30.512 0,10.699 31.425,87.593 31.425,111.664 0,24.074 -26.085,13.375 -26.085,30.089" /><path
         id="path28"
         style="fill:#231f20;fill-opacity:1;fill-rule:nonzero;stroke:none"
         d="m 1071.3,607.574 c 0,-13.297 -10.78,-24.074 -24.07,-24.074 -13.29,0 -24.07,10.777 -24.07,24.074 0,13.297 10.78,24.071 24.07,24.071 13.29,0 24.07,-10.774 24.07,-24.071" /><path
         id="path30"
         style="fill:#231f20;fill-opacity:1;fill-rule:nonzero;stroke:none"
         d="m 1100.72,514.637 c 2.25,5.718 14.69,10.031 32.09,10.031 17.39,0 23.75,-14.383 27.42,-18.059 3.67,-3.671 8.02,0 12.03,0 4.01,0 10.7,8.692 36.78,8.692 26.07,0 34.76,-13.367 34.76,-35.434 0,-22.066 -31.42,-80.23 -31.42,-111.66 0,-31.43 4.69,-20.727 6.69,-22.734 2,-2.008 8.02,-13.379 -1.34,-16.719 -9.37,-3.34 -23.07,-11.703 -36.1,1.34 -13.04,13.039 -9.37,30.754 -3.35,52.82 6.01,22.066 18.73,58.176 24.74,76.227 6.02,18.05 2,28.082 -15.38,28.082 -17.38,0 -25.41,-13.375 -38.11,-40.118 -12.71,-26.746 -29.42,-80.91 -29.42,-87.593 0,-6.684 2.02,-16.047 -12.7,-16.047 -14.72,0 -29.43,2.008 -24.07,20.73 5.35,18.719 32.09,85.578 34.76,102.301 2.68,16.715 2.33,24.402 -4.01,30.754 -6.35,6.352 -22.06,-4.672 -13.37,17.387" /><path
         id="path32"
         style="fill:#231f20;fill-opacity:1;fill-rule:nonzero;stroke:none"
         d="m 1267.2,371.547 c 0,56.168 62.86,91.601 82.92,91.601 20.06,0 15.72,7.692 8.69,14.711 -7.02,7.024 -12.04,34.098 -12.04,44.797 0,10.699 9.36,66.192 78.9,66.192 50.15,0 65.97,-37.407 61.51,-52.817 -7.35,-25.406 -30.74,-34.097 -36.77,-34.097 -6.02,0 -12.69,6.691 -7.35,12.035 5.34,5.347 16.05,16.047 16.05,28.082 0,12.035 -12.04,25.406 -32.77,25.406 -20.73,0 -47.47,-29.426 -47.47,-51.484 0,-22.063 4.68,-45.465 8.69,-49.477 4.02,-4.016 8.01,-19.391 -6.02,-19.391 -14.04,0 -73.55,-40.125 -73.55,-94.945 0,-54.824 40.12,-52.933 60.18,-52.933 20.06,0 45.47,16.164 45.47,42.902 0,26.738 -30.09,36.777 -30.09,36.777 0,0 -10.36,-4.351 -15.38,-9.363 -5.02,-5.016 -6.02,-22.738 -2,-26.746 4.01,-4.008 10.02,-16.711 -3.35,-16.711 -13.37,0 -23.4,4.012 -23.4,19.387 0,15.375 7.35,46.8 46.13,59.507 38.78,12.704 50.83,14.043 66.2,20.727 15.38,6.684 28.08,15.383 28.08,24.742 0,9.36 -20.72,-6.019 -20.72,14.039 0,20.059 11.36,14.711 21.39,14.711 10.03,0 25.41,-10.027 25.41,-30.758 0,-20.726 -13.37,-42.117 -38.11,-49.476 -24.74,-7.36 -44.13,-8.695 -44.13,-8.695 0,0 24.73,-11.364 24.73,-46.805 0,-35.438 -35.44,-64.024 -85.58,-64.024 -50.15,0 -95.62,21.231 -95.62,92.106" /><path
         id="path34"
         style="fill:#231f20;fill-opacity:1;fill-rule:nonzero;stroke:none"
         d="m 1485.41,267.402 c 0,81.633 50.55,152.731 130.02,200.231 94.39,56.41 175.07,62.992 212,-1.93 23.08,-40.586 8.45,-84.219 -27.3,-113.473 -26.12,-21.375 -90.83,-45.003 -115,-2.5 -24.17,42.5 8.34,66.672 22.5,73.336 14.16,6.664 16.66,2.5 23.33,2.5 6.67,0 5.84,-7.496 -0.83,-14.164 -6.67,-6.672 -23.34,-20 -23.34,-35 0,-15 11.68,-21.672 33.34,-21.672 21.66,0 65.83,30 65.83,70.836 0,40.836 -28.33,58.336 -62.5,58.336 -34.17,0 -109.58,-41.246 -160.83,-92.5 -51.25,-51.257 -61.67,-99.175 -61.67,-130.007 0,-30.829 22.5,-54.161 47.5,-54.161 25,0 61.67,20.832 65.83,55.832 4.62,38.887 -7.49,37.5 -13.33,43.329 -5.84,5.832 -5,13.335 5,13.335 10,0 41.39,-14.175 41.39,-55.835 0,-41.661 -30.96,-87.918 -94.3,-87.918 -63.34,0 -87.64,53.093 -87.64,91.425" /><path
         id="path36"
         style="fill:#231f20;fill-opacity:1;fill-rule:nonzero;stroke:none"
         d="m 1800.96,248.066 c -35.83,28.75 -83.75,7.911 -120.83,-29.171 -37.08,-37.079 -54.59,-88.329 -22.92,-120.0005 37.09,-37.0781 81.25,-27.4882 128.33,19.5895 47.08,47.082 51.25,100.832 15.42,129.582 z m -42.92,-97.082 c -22.5,-22.5 -49.58,-50 -70.83,-28.75 -23.33,23.332 3.33,50 23.33,70 20,20 47.08,49.582 68.75,27.911 21.67,-21.668 1.25,-46.661 -21.25,-69.161" /><path
         id="path38"
         style="fill:#231f20;fill-opacity:1;fill-rule:nonzero;stroke:none"
         d="m 1743.46,50.5664 c 9.38,9.375 13.75,6.25 21.25,-1.25 11.46,-11.457 5.63,-15.625 -1.25,-22.5 -9.59,-9.5898 -14.37,-6.875 -21.67,0.418 -7.29,7.2969 -8.95,12.707 1.67,23.332" /><path
         id="path40"
         style="fill:#231f20;fill-opacity:1;fill-rule:nonzero;stroke:none"
         d="m 865.031,69.9531 c 9.375,9.375 13.75,6.25 21.25,-1.25 11.453,-11.457 5.625,-15.625 -1.25,-22.5 -9.59,-9.5937 -14.375,-6.875 -21.672,0.418 -7.293,7.2969 -8.953,12.707 1.672,23.332" /><path
         id="path42"
         style="fill:#231f20;fill-opacity:1;fill-rule:nonzero;stroke:none"
         d="m 528.215,129.727 c 0,7.918 -12.625,9.902 -12.625,17.078 0,7.179 6.691,5.695 16.832,5.695 10.141,0 35.641,0 46.535,0 10.891,0 16.582,-3.211 20.789,-9.648 4.211,-6.434 4.203,-9.649 5.195,-13.614 0.993,-3.965 -1.726,-11.875 -9.156,-6.437 -7.426,5.441 -8.172,10.644 -14.109,10.644 -5.938,0 -25.988,0.246 -25.988,0.246 v -28.468 h 17.324 c 0,0 8.172,-1.239 8.172,-8.4183 0,-11.1328 -11.395,-11.1328 -11.395,-11.1328 H 555.441 V 57.9492 h 24.504 c 0,0 7.18,4.1992 10.399,9.4024 3.215,5.207 14.847,9.6679 13.113,-1.2266 -1.734,-10.9023 -6.684,-29.707 -22.523,-29.707 -15.84,0 -51.231,0 -58.414,0 -7.184,0 -11.137,2.2226 -7.672,7.9179 3.468,5.6914 13.914,7.8711 13.914,13.3086 0,5.4414 -0.547,72.0825 -0.547,72.0825" /><path
         id="path44"
         style="fill:#231f20;fill-opacity:1;fill-rule:nonzero;stroke:none"
         d="m 629.691,118.094 c 0,18.566 16.594,34.652 39.856,34.652 23.262,0 23.504,8.172 29.695,8.172 6.192,0 9.899,-10.156 11.141,-15.598 1.238,-5.437 2.972,-19.316 2.972,-22.027 0,-2.715 -0.25,-12.121 -10.644,-6.184 -10.395,5.938 -12.375,12.871 -25.988,12.871 -13.614,0 -15.594,-3.214 -15.594,-7.921 0,-17.821 58.906,-21.036 58.906,-48.7582 0,-29.4531 -26.719,-37.375 -45.785,-37.375 -19.07,0 -27.473,2.9687 -28.711,2.9687 -1.242,0 -5.324,-2.6054 -6.437,-3.7187 -1.114,-1.1133 -9.907,-6.1797 -12.625,8.1719 -2.723,14.3593 -4.95,19.0546 -4.95,23.2617 0,4.2109 6.192,8.664 12.621,2.2265 6.434,-6.4336 13.368,-16.8242 33.415,-16.8242 20.05,0 19.058,5.9375 19.058,12.3711 0,14.1133 -25.984,19.0625 -34.898,23.5156 -8.91,4.4532 -22.032,9.6485 -22.032,30.1956" /><path
         id="path46"
         style="fill:#231f20;fill-opacity:1;fill-rule:nonzero;stroke:none"
         d="m 785.875,37.8984 c 11.387,0 16.582,4.211 16.582,8.418 0,4.2109 -9.902,9.6484 -9.902,9.6484 v 74.2032 c 0,0 7.925,-0.188 11.136,-0.188 3.215,0 4.954,-4.21 10.645,-6.687 5.695,-2.484 8.91,2.477 8.91,5.691 0,5.645 -8.789,19.934 -11.387,22.528 -2.597,2.597 -4.949,0.742 -14.597,0.742 -9.649,0 -30.949,0 -40.598,0 -9.648,0 -12,1.855 -14.598,-0.742 -2.597,-2.594 -11.386,-16.883 -11.386,-22.528 0,-3.214 3.218,-8.175 8.91,-5.691 5.695,2.477 7.433,6.687 10.644,6.687 3.215,0 11.137,0.188 11.137,0.188 V 55.9648 c 0,0 -9.902,-5.4375 -9.902,-9.6484 0,-4.207 5.195,-8.418 16.582,-8.418 h 17.824" /><path
         id="path48"
         style="fill:#231f20;fill-opacity:1;fill-rule:nonzero;stroke:none"
         d="m 976.352,133.742 c 0,6.317 16.308,17.293 20.293,21.285 3.985,3.996 17.965,12.641 17.965,-2.996 0,-15.636 0,-92.1404 0,-92.1404 l 5.65,-6.3164 c 0,0 3.99,-3.3203 3.99,-6.3203 0,-2.9961 5.66,-8.6523 -21.62,-8.6523 -27.275,0 -23.61,2.6562 -23.61,4.9922 0,2.332 7.988,5.6562 10.312,11.3085 2.324,5.6524 0,58.5357 0,65.8597 0,7.324 -8.312,2.656 -11.641,5.988 -3.332,3.328 -1.339,6.992 -1.339,6.992" /><path
         id="path50"
         style="fill:#231f20;fill-opacity:1;fill-rule:nonzero;stroke:none"
         d="m 1142.68,105.469 c 0,5.656 13.63,8.972 13.63,25.605 0,16.633 -11.31,36.262 -47.9,36.262 -36.58,0 -47.9,-19.629 -47.9,-36.262 0,-16.633 13.63,-19.949 13.63,-25.605 0,-5.6565 -16.29,-12.3167 -16.29,-33.2737 0,-27.9375 24.78,-38.25 50.4,-38.25 25.61,0 50.73,10.3125 50.73,38.25 0,20.957 -16.3,27.6172 -16.3,33.2737 z m -34.32,-45.5784 c -12.98,0 -20.24,4.9922 -20.24,15.6367 0,7.3125 6.71,12.6368 20.68,12.6368 13.98,0 19.9,-7.3164 19.9,-12.6368 0,-8.9843 -7.37,-15.6367 -20.34,-15.6367 z m 0,54.8824 c -12.98,0 -20.24,4.993 -20.24,15.637 0,7.313 6.71,12.637 20.68,12.637 13.98,0 19.9,-7.317 19.9,-12.637 0,-8.984 -7.37,-15.637 -20.34,-15.637" /><path
         id="path52"
         style="fill:#231f20;fill-opacity:1;fill-rule:nonzero;stroke:none"
         d="m 1316.45,136.727 c 0,7.988 9.64,29.277 39.58,29.277 29.94,0 47.57,-19.285 47.57,-32.262 0,-12.98 -7.65,-20.957 -7.65,-25.285 0,-4.328 16.79,-11.914 16.79,-31.5429 0,-19.6289 -17.29,-39.1289 -50.22,-39.1289 -32.93,0 -46.63,21.9492 -46.63,32.5937 0,10.6445 1.06,13.957 2.88,15.793 1.83,1.8359 10.98,5.6562 14.64,-0.9961 3.66,-6.6524 4,-27.6094 26.28,-27.6094 22.29,0 22.29,16.2891 22.29,24.2774 0,21.2892 -16.96,18.2932 -16.96,26.9452 0,8.652 13.32,3.332 13.32,18.641 0,9.64 -13.32,18.281 -23.97,18.281 -10.64,0 -17.64,-9.988 -21.95,-14.305 -4.32,-4.316 -15.97,-6.32 -15.97,5.321" /><path
         id="path54"
         style="fill:#231f20;fill-opacity:1;fill-rule:nonzero;stroke:none"
         d="m 1196.32,136.727 c 0,7.988 9.64,29.277 39.58,29.277 29.94,0 47.57,-19.285 47.57,-32.262 0,-12.98 -7.65,-20.957 -7.65,-25.285 0,-4.328 16.79,-11.914 16.79,-31.5429 0,-19.6289 -17.28,-39.1289 -50.21,-39.1289 -32.93,0 -46.63,21.9492 -46.63,32.5937 0,10.6445 1.05,13.957 2.88,15.793 1.82,1.8359 10.98,5.6562 14.64,-0.9961 3.66,-6.6524 3.99,-27.6094 26.28,-27.6094 22.28,0 22.28,16.2891 22.28,24.2774 0,21.2892 -16.96,18.2932 -16.96,26.9452 0,8.652 13.32,3.332 13.32,18.641 0,9.64 -13.32,18.281 -23.97,18.281 -10.64,0 -17.63,-9.988 -21.95,-14.305 -4.32,-4.316 -15.97,-6.32 -15.97,5.321" /></g></g></svg>