<?xml version="1.0" standalone="no"?>
<!DOCTYPE svg PUBLIC "-//W3C//DTD SVG 20010904//EN"
 "http://www.w3.org/TR/2001/REC-SVG-20010904/DTD/svg10.dtd">
<svg version="1.0" xmlns="http://www.w3.org/2000/svg"
 width="2500.000000pt" height="2500.000000pt" viewBox="0 0 2500.000000 2500.000000"
 preserveAspectRatio="xMidYMid meet">

<g transform="translate(0.000000,2500.000000) scale(0.100000,-0.100000)"
fill="#000000" stroke="none">
<path d="M1144 17575 c-3 -19 -3 -46 0 -60 l6 -25 11245 0 11245 0 0 60 0 60
-11245 0 -11244 0 -7 -35z"/>
<path d="M14730 17268 c0 -7 -12 -46 -27 -87 -65 -174 -195 -232 -419 -186
-41 9 -177 48 -302 86 -477 148 -721 189 -1112 189 -366 -1 -683 -48 -960
-145 -491 -172 -857 -505 -1029 -935 -95 -239 -131 -441 -131 -730 0 -236 36
-443 103 -595 163 -369 471 -673 1005 -989 175 -104 369 -198 787 -381 803
-352 974 -437 1151 -572 99 -76 170 -150 229 -242 79 -122 112 -226 122 -386
25 -408 -192 -776 -562 -951 -164 -79 -334 -114 -582 -121 -364 -11 -631 43
-918 187 -173 87 -289 173 -450 335 -312 312 -530 715 -660 1220 l-42 160
-142 3 -142 3 1 -483 c0 -266 1 -500 0 -522 l0 -39 -18 24 c-10 13 -148 218
-307 454 -403 601 -695 1036 -853 1269 -101 149 -131 200 -121 207 7 4 76 29
152 55 688 232 1051 604 1148 1176 19 108 21 149 16 343 -6 236 -18 311 -82
481 -120 321 -359 568 -720 744 -293 144 -613 225 -1090 277 -130 14 -351 17
-1697 20 l-1548 4 0 -110 c0 -61 2 -111 4 -111 2 0 66 -7 142 -15 225 -24 325
-55 413 -131 117 -101 175 -278 186 -567 l5 -142 -48 100 c-169 348 -427 576
-847 750 -233 97 -517 162 -880 202 -131 14 -353 17 -1752 20 l-1603 4 0 -109
0 -110 38 -6 c20 -3 62 -8 92 -11 373 -42 510 -143 581 -426 10 -41 23 -127
29 -190 14 -162 14 -4155 -1 -4326 -14 -167 -31 -248 -74 -339 -38 -83 -117
-169 -187 -205 -39 -20 -305 -79 -425 -95 l-53 -7 0 -108 0 -109 1490 0 1491
0 -3 107 -3 107 -152 23 c-182 26 -267 46 -348 81 -113 48 -181 120 -224 236
-46 124 -49 199 -53 1199 -2 821 -1 940 12 947 8 4 204 10 435 13 890 12 1211
63 1610 256 288 139 505 307 656 507 62 82 109 161 168 284 l50 105 0 -1470
c1 -916 -3 -1513 -9 -1585 -37 -416 -150 -519 -638 -580 l-102 -13 0 -109 0
-108 1440 0 1440 0 0 108 0 109 -82 12 c-282 41 -418 85 -501 161 -89 82 -135
192 -158 382 -6 51 -8 451 -7 1053 l3 970 75 3 c149 6 144 9 235 -136 45 -70
440 -697 879 -1394 l799 -1268 874 0 873 0 0 51 0 51 33 -7 c17 -4 95 -27 172
-51 558 -176 983 -238 1467 -214 262 14 412 33 648 86 653 146 1169 530 1420
1056 193 405 221 848 81 1269 -93 277 -237 506 -452 715 -114 111 -140 133
-249 211 -131 93 -205 133 -480 259 -140 64 -381 174 -535 244 -829 378 -958
439 -1108 521 -356 197 -509 357 -573 604 -28 108 -26 352 5 465 107 405 550
663 1091 637 428 -21 796 -176 1125 -473 286 -259 545 -668 676 -1069 18 -55
37 -103 43 -108 6 -4 67 -6 136 -5 l125 3 3 968 3 967 -151 0 c-113 0 -150 -3
-150 -12z m-6287 -454 c114 -18 263 -75 349 -131 88 -58 202 -181 254 -274
117 -210 162 -415 171 -774 9 -374 -22 -637 -99 -842 -45 -120 -88 -189 -172
-280 -154 -165 -342 -249 -671 -298 -157 -23 -318 -35 -473 -35 l-142 0 2
1188 c3 1106 4 1191 21 1247 33 109 91 167 197 195 111 30 395 31 563 4z
m-4490 6 c427 -42 660 -219 786 -599 64 -194 92 -414 92 -736 1 -856 -212
-1203 -813 -1325 -124 -26 -243 -37 -480 -46 l-187 -7 -6 34 c-3 19 -5 574 -3
1234 l3 1200 23 57 c65 160 253 220 585 188z"/>
<path d="M17363 16897 c-256 -685 -512 -1357 -536 -1403 -34 -67 -76 -108
-132 -130 -42 -16 -46 -20 -43 -48 l3 -31 235 -3 c129 -1 245 0 258 3 16 4 22
13 22 34 0 27 -3 29 -57 36 -111 14 -153 47 -152 120 0 22 24 108 52 190 l52
150 292 3 291 2 41 -104 c51 -129 71 -206 71 -268 0 -44 -3 -50 -32 -68 -18
-11 -61 -22 -100 -26 l-68 -7 0 -31 0 -31 383 1 c486 1 447 -2 447 29 0 26 -3
28 -55 40 -41 9 -95 69 -134 151 -26 55 -560 1393 -643 1612 -19 50 -21 52
-56 52 l-37 0 -102 -273z m3 -344 c9 -21 58 -146 109 -278 51 -132 102 -264
114 -292 l21 -53 -250 0 -249 0 60 173 c90 259 173 487 176 487 1 0 10 -17 19
-37z"/>
<path d="M15400 17097 c0 -34 1 -34 51 -40 72 -9 110 -34 139 -92 l25 -50 0
-700 c0 -755 0 -756 -53 -812 -21 -23 -42 -33 -95 -43 -68 -12 -68 -13 -65
-44 l3 -31 420 0 420 0 3 32 c3 30 1 32 -35 38 -113 18 -153 44 -172 111 -7
24 -11 156 -11 340 l0 301 173 7 c212 9 298 25 405 77 221 107 320 315 268
560 -18 85 -42 132 -101 197 -58 64 -153 119 -265 151 -84 25 -88 25 -597 28
l-513 4 0 -34z m875 -79 c61 -15 128 -88 152 -163 26 -86 26 -386 0 -461 -41
-119 -124 -169 -299 -182 l-98 -8 0 387 c0 359 1 388 18 409 30 37 121 44 227
18z"/>
<path d="M18182 17098 c3 -31 5 -32 66 -43 81 -15 117 -48 131 -119 6 -29 13
-297 15 -621 4 -479 8 -582 21 -645 63 -287 342 -456 720 -436 216 11 411 85
504 192 43 49 94 158 115 249 30 130 36 248 36 738 0 532 0 529 58 591 34 37
97 66 142 66 73 0 159 -63 178 -128 4 -15 7 -353 7 -752 0 -682 -1 -727 -18
-758 -21 -38 -76 -66 -149 -77 -46 -7 -48 -9 -48 -39 l0 -32 703 -2 c386 -1
718 2 737 6 l35 8 47 269 c25 149 48 285 51 303 6 32 5 32 -34 32 -24 0 -39
-5 -39 -12 0 -26 -109 -235 -153 -295 -116 -156 -268 -225 -500 -226 -83 0
-122 4 -150 16 -70 30 -68 -1 -65 825 3 721 3 738 23 772 30 51 75 72 161 78
l74 5 0 33 0 34 -710 0 -710 0 0 -34 c0 -33 1 -33 52 -39 84 -10 139 -44 168
-102 l25 -50 0 -535 c0 -490 -2 -541 -19 -605 -70 -263 -231 -399 -476 -399
-113 0 -164 13 -222 57 -61 47 -104 108 -130 185 -23 66 -23 73 -26 692 l-3
625 23 44 c32 63 60 80 148 89 l75 7 3 33 3 32 -436 0 -436 0 3 -32z"/>
<path d="M15430 15031 c0 -31 18 -41 76 -41 40 0 92 -36 118 -80 21 -34 21
-47 21 -770 0 -810 3 -772 -63 -816 -18 -12 -51 -25 -75 -29 -72 -11 -77 -14
-77 -46 l0 -29 430 0 430 0 0 30 c0 26 -4 30 -37 35 -105 18 -145 41 -169 98
-16 37 -19 82 -22 365 l-4 322 39 0 38 0 89 -142 c49 -79 167 -270 263 -426
l175 -282 956 2 956 3 8 38 c12 56 88 496 88 507 0 6 -15 10 -34 10 -31 0 -35
-4 -55 -52 -35 -84 -106 -190 -168 -252 -112 -112 -244 -164 -438 -173 -142
-7 -192 4 -229 48 l-26 31 0 370 0 371 63 -7 c118 -13 165 -32 227 -94 63 -63
89 -125 111 -259 l12 -73 33 0 34 0 0 465 0 465 -33 0 -33 0 -16 -83 c-40
-216 -135 -312 -319 -324 l-79 -6 0 351 0 351 24 28 24 28 174 0 c149 -1 183
-4 243 -22 171 -53 247 -154 299 -395 5 -23 12 -28 36 -28 l30 0 0 270 0 270
-735 0 -735 0 0 -29 c0 -27 3 -28 67 -39 79 -13 110 -33 138 -88 19 -38 20
-59 20 -769 0 -716 0 -731 -20 -765 -24 -39 -64 -66 -116 -75 -31 -6 -41 -3
-67 22 -25 22 -532 783 -532 798 0 2 26 13 58 25 198 74 308 194 333 363 5 34
6 89 2 122 -24 226 -166 356 -451 415 -93 18 -137 20 -591 20 l-491 0 0 -29z
m912 -77 c67 -22 120 -73 154 -146 28 -62 29 -67 29 -228 0 -182 -11 -234 -65
-308 -50 -70 -179 -112 -340 -112 l-61 0 3 368 c3 389 5 408 52 430 33 16 176
14 228 -4z"/>
<path d="M18650 15035 c0 -28 30 -45 81 -45 44 0 101 -33 124 -72 20 -32 20
-51 20 -773 0 -603 -3 -746 -14 -772 -16 -39 -61 -69 -116 -78 -96 -16 -95
-15 -95 -45 0 -16 7 -30 16 -34 9 -3 344 -6 745 -6 l729 0 9 23 c5 12 28 132
51 267 23 135 44 253 46 263 5 14 -1 17 -33 17 -38 0 -40 -2 -57 -51 -28 -77
-125 -218 -192 -277 -121 -108 -280 -158 -480 -150 -115 4 -151 18 -176 68
-16 31 -18 72 -18 394 l0 359 72 -7 c213 -22 295 -114 342 -388 6 -34 10 -38
36 -38 l30 0 0 465 0 465 -29 0 c-28 0 -30 -3 -41 -57 -50 -253 -127 -336
-325 -350 l-85 -6 0 337 c0 368 4 397 55 416 38 14 267 12 356 -4 42 -8 97
-23 122 -34 107 -47 190 -167 223 -323 l17 -79 34 0 33 0 0 270 0 270 -740 0
-740 0 0 -25z"/>
<path d="M20300 15030 c0 -26 4 -30 38 -35 84 -15 111 -26 141 -60 16 -19 33
-49 36 -67 3 -18 5 -357 3 -754 l-3 -721 -28 -36 c-31 -41 -78 -65 -145 -74
-41 -6 -43 -7 -40 -37 l3 -31 455 0 c505 0 556 4 730 61 235 76 398 213 501
419 156 315 136 730 -49 1001 -96 142 -263 261 -437 312 -160 48 -218 52 -726
52 l-479 0 0 -30z m959 -79 c184 -57 312 -262 362 -576 16 -101 16 -404 0
-510 -47 -312 -168 -485 -376 -540 -71 -18 -200 -20 -235 -2 -14 7 -33 28 -42
47 -17 32 -18 91 -18 783 0 516 3 755 11 768 6 12 25 27 42 34 48 21 183 19
256 -4z"/>
<path d="M15935 13089 c-91 -10 -220 -49 -282 -85 -65 -37 -145 -122 -180
-189 -78 -149 -86 -353 -17 -486 72 -142 237 -266 518 -389 289 -127 363 -173
413 -258 24 -41 28 -58 28 -127 0 -98 -23 -155 -90 -219 -66 -65 -136 -89
-255 -90 -162 0 -278 42 -380 140 -100 95 -164 210 -209 374 l-18 65 -41 3
-42 3 0 -340 0 -341 35 0 c31 0 39 5 63 45 17 28 34 45 47 46 45 2 84 -4 155
-26 247 -77 506 -78 707 -3 79 29 196 111 244 171 158 196 169 445 31 652 -75
112 -142 158 -417 286 -329 154 -388 185 -444 235 -74 67 -98 158 -70 269 34
134 217 214 402 176 76 -16 180 -70 244 -126 65 -57 152 -187 192 -285 30 -75
30 -75 70 -78 l41 -3 -2 295 -2 296 -42 0 c-40 0 -43 -2 -54 -35 -21 -64 -70
-72 -196 -32 -165 52 -313 71 -449 56z"/>
<path d="M16750 13020 c0 -26 4 -30 38 -35 112 -19 155 -51 171 -127 16 -70
15 -1379 0 -1450 -19 -85 -44 -102 -196 -134 -18 -3 -23 -11 -23 -34 l0 -30
286 0 285 0 -3 33 c-3 27 -7 32 -33 35 -110 11 -175 54 -194 130 -10 41 -22
1330 -12 1376 5 25 33 -25 205 -375 110 -222 246 -500 303 -616 l103 -213 33
0 33 0 237 498 c130 273 267 560 304 637 l68 140 3 -723 c2 -695 1 -726 -17
-767 -23 -52 -57 -72 -135 -81 -63 -8 -71 -14 -62 -50 l6 -24 400 0 400 0 0
33 c0 32 -1 33 -61 44 -68 13 -101 31 -126 70 -17 25 -18 77 -18 763 0 700 1
738 19 778 10 23 29 48 41 56 16 11 116 36 142 36 2 0 3 14 3 30 l0 30 -307
-2 -308 -3 -237 -445 c-130 -245 -241 -446 -246 -448 -5 -1 -116 200 -248 448
l-239 450 -307 0 -308 0 0 -30z"/>
<path d="M19060 13021 c0 -28 2 -30 68 -41 82 -13 125 -37 149 -82 17 -31 18
-79 18 -768 0 -677 -1 -737 -17 -767 -21 -38 -70 -69 -123 -78 -97 -16 -95
-15 -95 -46 l0 -29 445 0 445 0 0 29 c0 31 -1 32 -96 46 -50 8 -97 35 -121 72
-17 26 -18 71 -18 773 0 712 1 746 19 776 26 43 61 62 145 76 68 12 71 13 71
40 l0 28 -445 0 -445 0 0 -29z"/>
<path d="M19997 12928 c-4 -66 -7 -188 -7 -270 l0 -148 35 0 c20 0 37 6 39 13
2 6 9 41 16 76 24 133 99 249 195 306 53 31 139 53 220 57 l60 3 0 -775 c0
-768 0 -775 -21 -821 -25 -54 -62 -75 -155 -86 -63 -8 -64 -8 -67 -40 l-3 -33
456 0 456 0 -3 33 c-3 29 -6 32 -38 34 -120 9 -174 39 -199 112 -8 24 -11 257
-11 809 l0 774 64 -7 c244 -26 367 -142 416 -393 12 -61 13 -62 46 -62 22 0
34 5 36 17 2 9 2 130 0 270 l-3 253 -763 0 -763 0 -6 -122z"/>
<path d="M21630 13021 c0 -32 5 -35 82 -46 58 -8 108 -40 131 -85 16 -33 17
-86 15 -772 -3 -726 -3 -737 -24 -765 -26 -36 -76 -61 -144 -70 -53 -8 -55 -9
-58 -41 l-3 -32 456 0 456 0 -3 33 c-3 31 -5 32 -61 39 -74 9 -122 32 -150 72
-22 30 -22 37 -25 389 l-3 357 326 0 326 0 -3 -359 c-3 -345 -4 -361 -24 -387
-28 -38 -80 -63 -150 -72 -58 -7 -59 -8 -62 -39 l-3 -33 461 0 461 0 -3 32
c-3 31 -5 32 -68 43 -89 15 -128 37 -151 88 -18 40 -19 76 -19 757 l0 716 23
44 c28 55 68 79 149 88 62 7 63 7 66 40 l3 32 -460 0 -461 0 0 -29 c0 -31 1
-32 97 -46 55 -9 104 -41 125 -85 16 -31 18 -70 18 -352 l0 -318 -326 0 -325
0 3 328 c3 324 3 327 26 360 31 43 70 62 145 70 61 7 62 8 65 40 l3 32 -455 0
-456 0 0 -29z"/>
<path d="M1144 10766 c-3 -7 -4 -33 -2 -57 l3 -44 11248 -3 11247 -2 0 60 0
60 -11245 0 c-9574 0 -11246 -2 -11251 -14z"/>
<path d="M1916 10400 c-403 -63 -687 -306 -783 -669 -43 -160 -35 -394 19
-561 119 -371 447 -590 882 -590 253 0 547 56 731 139 l60 28 -7 109 c-9 127
0 483 13 535 12 50 43 86 79 94 27 6 30 11 30 44 l0 37 -300 0 -300 -1 0 -36
c0 -34 3 -37 33 -43 43 -8 72 -40 88 -96 17 -63 14 -610 -3 -621 -7 -5 -49
-18 -93 -30 -110 -31 -284 -31 -403 -1 -234 60 -435 232 -525 448 -48 115 -61
189 -61 349 -1 179 16 270 75 392 78 164 237 283 422 318 99 19 282 19 370 0
187 -39 276 -121 342 -312 3 -8 14 -8 45 -1 l42 11 -5 46 c-3 25 -10 96 -17
156 -20 189 -10 169 -95 194 -158 47 -256 63 -420 66 -88 2 -187 0 -219 -5z"/>
<path d="M7437 10293 c-3 -54 -13 -145 -22 -202 -9 -56 -15 -105 -12 -107 2
-3 20 -7 39 -10 l34 -6 13 55 c6 30 23 72 37 94 56 86 117 102 377 103 l157 0
0 -622 c-1 -652 -6 -787 -36 -837 -23 -38 -78 -61 -149 -61 l-55 0 0 -38 0
-37 355 0 355 0 0 38 0 37 -52 1 c-87 0 -119 17 -148 74 l-25 50 -3 699 -3
698 188 -5 c107 -3 207 -10 232 -18 70 -20 115 -72 136 -157 17 -70 18 -72 44
-66 42 10 44 17 32 112 -6 48 -11 137 -11 196 0 99 -1 108 -17 101 -70 -27
-152 -30 -723 -30 -568 0 -654 4 -721 30 -14 5 -17 -8 -22 -92z"/>
<path d="M14662 10379 c-207 -20 -376 -129 -458 -294 -31 -63 -37 -86 -41
-162 -12 -203 71 -341 264 -441 43 -22 165 -70 271 -106 247 -85 293 -113 334
-204 23 -52 27 -149 8 -207 -46 -140 -181 -222 -380 -232 -253 -13 -400 88
-445 305 -8 35 -16 66 -19 69 -3 3 -26 2 -52 -2 l-47 -7 7 -46 c3 -26 10 -76
16 -112 5 -36 10 -110 10 -166 l0 -101 73 -21 c235 -69 481 -75 668 -16 90 28
210 104 265 167 48 55 101 167 115 242 15 78 5 188 -22 262 -17 44 -38 74 -88
123 -82 81 -142 113 -351 185 -280 97 -363 145 -413 239 -30 57 -30 165 0 222
27 51 92 110 149 135 69 31 190 44 284 31 160 -23 255 -103 291 -246 l11 -46
37 6 c20 4 40 10 44 14 5 4 3 34 -3 66 -6 33 -17 110 -23 173 l-12 115 -50 13
c-140 36 -325 53 -443 42z"/>
<path d="M12213 10372 l-343 -2 0 -40 0 -40 43 0 c57 0 108 -27 129 -70 16
-31 18 -72 17 -400 0 -201 -4 -507 -8 -680 -7 -289 -9 -319 -28 -362 -24 -53
-58 -75 -128 -85 -44 -6 -45 -7 -45 -42 l0 -36 133 8 c72 4 219 5 325 2 l192
-7 0 40 0 39 -58 6 c-145 13 -162 57 -162 435 l0 222 125 2 c69 1 135 2 148 2
25 1 94 -95 240 -332 200 -327 238 -372 346 -413 46 -18 77 -22 176 -22 151 0
165 4 165 47 0 33 -1 34 -50 38 -106 10 -161 71 -432 480 l-187 282 73 47
c175 115 253 255 244 440 -4 76 -9 97 -41 162 -81 164 -254 266 -472 278 -33
2 -214 3 -402 1z m378 -132 c111 -21 210 -93 258 -188 51 -100 51 -270 0 -377
-26 -55 -120 -155 -171 -181 -28 -15 -61 -17 -205 -17 -95 1 -177 4 -183 8
-11 7 -13 667 -1 720 5 27 11 31 51 36 76 10 194 10 251 -1z"/>
<path d="M3460 10329 c0 -38 1 -39 35 -39 53 0 109 -27 131 -63 18 -30 19 -60
25 -577 5 -519 6 -549 27 -624 29 -105 72 -178 153 -258 74 -73 182 -133 299
-165 91 -25 357 -25 450 0 174 46 325 158 390 287 68 135 72 163 81 700 8 507
16 607 47 649 22 30 71 50 125 50 38 1 38 1 35 39 l-3 37 -282 2 -283 2 0 -39
0 -40 43 0 c59 0 108 -27 131 -73 23 -49 35 -261 35 -672 1 -406 -13 -495 -97
-616 -44 -64 -139 -131 -220 -156 -87 -27 -286 -24 -371 6 -154 54 -248 152
-295 311 -22 74 -35 306 -36 635 0 297 11 440 38 494 21 44 71 71 130 71 l42
0 0 39 0 39 -315 0 -315 0 0 -39z"/>
<path d="M6110 10331 l0 -38 65 -5 c74 -6 107 -24 132 -71 17 -30 18 -80 18
-717 0 -665 -1 -686 -20 -725 -24 -49 -58 -66 -142 -73 l-63 -5 0 -36 0 -36
350 0 351 0 -3 35 c-3 31 -7 35 -33 37 -71 6 -133 25 -154 47 -38 41 -42 116
-39 797 3 594 4 647 21 676 25 46 57 64 127 70 l60 6 0 38 0 37 -335 0 -335 1
0 -38z"/>
<path d="M10341 10353 c-5 -10 -34 -83 -64 -163 -217 -573 -530 -1327 -579
-1396 -35 -49 -86 -80 -150 -89 -47 -7 -48 -8 -48 -44 l0 -36 295 0 295 0 0
36 0 36 -57 6 c-108 11 -139 64 -109 183 10 38 45 142 78 231 l60 163 317 -2
316 -3 52 -155 c122 -367 120 -403 -18 -418 l-64 -7 -3 -35 -3 -35 321 0 320
0 0 36 c0 36 0 36 -48 41 -109 11 -132 53 -341 634 -55 154 -158 450 -227 657
l-126 377 -104 0 c-88 0 -105 -3 -113 -17z m127 -400 c33 -98 88 -258 121
-356 34 -98 59 -182 56 -188 -7 -11 -495 -12 -512 -1 -12 8 -4 31 215 600 26
67 50 122 53 122 3 0 33 -80 67 -177z"/>
<path d="M1147 8233 c-4 -3 -7 -30 -7 -60 l0 -53 11250 0 11250 0 0 60 0 60
-11243 0 c-6184 0 -11247 -3 -11250 -7z"/>
<path d="M22270 7930 l0 -50 95 0 95 0 2 -242 3 -243 59 -3 c40 -2 62 1 68 10
4 7 8 110 8 228 -1 118 -1 223 0 233 0 15 11 17 90 17 l90 0 0 50 0 50 -255 0
-255 0 0 -50z"/>
<path d="M23036 7958 c-8 -30 -8 -516 0 -545 6 -21 13 -23 65 -23 l59 0 -1
231 c0 127 2 233 4 235 2 2 18 -60 36 -139 19 -78 43 -182 55 -232 l22 -90 62
-3 c44 -2 63 1 66 10 3 7 28 111 57 230 28 120 56 215 60 212 5 -3 9 -106 9
-230 l0 -224 60 0 60 0 -2 293 -3 292 -95 0 -94 0 -56 -230 c-66 -271 -52
-281 -142 98 l-32 137 -92 0 c-87 0 -92 -1 -98 -22z"/>
<path d="M22787 7503 c-4 -3 -7 -30 -7 -60 l0 -53 70 0 70 0 0 44 c0 71 -5 76
-69 76 -32 0 -61 -3 -64 -7z"/>
<path d="M23765 7487 c-4 -13 -5 -39 -3 -58 l3 -34 68 -3 68 -3 -3 58 -3 58
-62 3 c-59 3 -63 2 -68 -21z"/>
</g>
</svg>
