<?xml version="1.0" standalone="no"?>
<!DOCTYPE svg PUBLIC "-//W3C//DTD SVG 20010904//EN"
 "http://www.w3.org/TR/2001/REC-SVG-20010904/DTD/svg10.dtd">
<svg version="1.0" xmlns="http://www.w3.org/2000/svg"
 width="2500.000000pt" height="2500.000000pt" viewBox="0 0 2500.000000 2500.000000"
 preserveAspectRatio="xMidYMid meet">

<g transform="translate(0.000000,2500.000000) scale(0.100000,-0.100000)"
fill="#000000" stroke="none">
<path d="M3870 17573 c-185 -8 -420 -53 -599 -115 -548 -189 -951 -557 -1101
-1006 -107 -320 -91 -623 67 -1272 132 -546 155 -679 156 -930 1 -276 -47
-496 -160 -728 -135 -279 -300 -347 -521 -217 -105 61 -180 159 -224 290 -20
61 -23 89 -23 220 1 200 36 351 130 546 39 83 41 97 19 144 -33 71 -137 86
-209 31 -75 -58 -201 -271 -248 -421 -39 -124 -50 -219 -44 -362 6 -149 29
-238 89 -356 97 -186 304 -339 528 -388 293 -64 680 89 947 374 74 80 175 231
202 302 53 140 67 386 35 576 -23 135 -99 370 -169 524 -297 653 -357 812
-406 1085 -17 93 -15 328 4 435 82 465 389 813 818 929 278 76 502 54 845 -83
306 -121 687 -368 1159 -750 214 -174 280 -230 775 -663 356 -312 570 -492
723 -611 48 -38 87 -71 87 -74 0 -3 -80 -87 -177 -187 -499 -511 -959 -1066
-1254 -1516 -502 -765 -774 -1376 -1009 -2265 -68 -260 -156 -715 -205 -1065
-70 -506 -77 -583 -72 -805 6 -256 34 -428 104 -640 156 -477 436 -845 776
-1021 180 -93 324 -127 537 -127 252 0 418 41 666 163 218 108 398 233 689
480 145 124 155 134 169 183 66 232 135 605 151 822 4 50 9 98 12 109 11 41
-21 4 -145 -166 -469 -639 -840 -985 -1276 -1188 -212 -99 -349 -132 -466
-112 -138 24 -232 81 -334 204 -218 263 -323 752 -247 1153 153 808 281 1352
466 1974 242 815 575 1628 933 2276 199 360 337 586 560 915 127 187 373 523
392 535 5 3 76 -16 157 -43 405 -137 716 -211 1093 -263 129 -18 555 -18 635
-1 483 106 950 483 1041 841 11 46 15 94 12 160 -3 82 -8 106 -35 164 -99 210
-293 345 -562 391 -117 20 -184 20 -364 1 -270 -29 -534 -92 -960 -230 l-268
-87 -42 36 c-813 695 -1883 1335 -2727 1631 -415 146 -799 213 -1130 198z
m5396 -1738 c227 -39 389 -138 439 -268 24 -64 17 -164 -18 -240 -32 -71 -149
-189 -237 -240 -141 -82 -333 -116 -494 -87 -74 13 -250 80 -345 132 -70 39
-474 307 -521 346 l-34 29 69 45 c207 131 530 244 810 281 147 20 225 20 331
2z"/>
<path d="M11545 16003 c-152 -36 -210 -72 -259 -164 -27 -49 -28 -56 -20 -123
15 -134 15 -136 -93 -381 -55 -126 -154 -342 -218 -480 -64 -137 -131 -279
-147 -315 -17 -36 -44 -94 -60 -130 -49 -105 -295 -622 -371 -780 -91 -189
-236 -496 -371 -785 -30 -66 -61 -131 -68 -144 -16 -31 -135 -81 -268 -112
-52 -13 -97 -24 -98 -25 -2 -1 17 -115 43 -252 l47 -249 -20 -44 c-97 -214
-282 -702 -282 -741 0 -78 68 -165 166 -214 104 -51 284 -27 410 54 158 102
175 135 172 329 l-3 138 69 150 c37 83 79 175 93 205 l24 55 57 -60 c32 -33
170 -186 307 -339 618 -691 1073 -1197 1139 -1265 144 -149 386 -344 566 -457
361 -227 679 -352 1060 -415 118 -20 463 -17 585 5 605 109 1136 465 1392 934
24 42 43 80 43 85 0 4 -136 7 -303 7 l-303 0 -28 -65 c-74 -169 -270 -408
-440 -537 -92 -69 -250 -149 -346 -175 -103 -28 -237 -23 -406 15 -679 154
-1056 447 -1629 1267 -102 145 -213 296 -367 496 -173 227 -458 537 -697 760
l-124 116 87 54 c237 148 422 274 521 356 256 211 478 479 603 729 144 288
393 1003 396 1136 1 67 -32 100 -101 100 -68 0 -109 -23 -243 -139 -179 -154
-415 -343 -528 -421 -123 -86 -232 -147 -232 -129 0 6 34 82 76 167 179 366
339 728 522 1180 64 157 67 169 67 246 -1 73 -4 89 -37 156 -46 91 -104 160
-161 187 -34 16 -61 21 -123 20 -43 -1 -88 -3 -99 -6z m-133 -2450 c30 -27 24
-102 -16 -186 -19 -40 -48 -112 -65 -161 -48 -137 -132 -277 -212 -353 -67
-63 -499 -215 -499 -175 0 4 66 139 146 300 l147 292 166 117 c253 178 261
183 289 183 14 0 34 -7 44 -17z"/>
<path d="M19855 15074 c-57 -35 -157 -109 -219 -164 -66 -58 -286 -336 -286
-361 0 -15 159 -176 240 -244 143 -119 282 -192 432 -226 78 -18 112 -20 213
-15 110 5 229 27 248 45 4 4 -18 36 -49 72 -169 195 -320 453 -453 776 -69
171 -56 159 -126 117z"/>
<path d="M8645 13736 c-546 -202 -972 -491 -1246 -846 -119 -154 -216 -323
-282 -490 -106 -266 -150 -496 -163 -832 -7 -190 2 -268 37 -342 43 -92 110
-134 194 -122 63 10 232 114 430 267 94 72 187 139 207 150 91 47 132 12 172
-146 32 -131 86 -270 132 -341 60 -95 156 -139 258 -120 44 8 252 199 409 375
115 129 127 146 127 190 0 47 -20 59 -100 59 -63 -1 -76 3 -113 28 -52 37
-102 118 -119 193 -16 75 -16 260 1 461 16 191 12 307 -9 320 -45 29 -48 27
-407 -360 -222 -238 -294 -308 -364 -356 -62 -42 -102 -44 -125 -8 -15 22 -16
44 -11 162 22 474 196 951 463 1266 71 83 110 106 182 106 94 0 173 -60 221
-170 128 -291 191 -379 352 -499 70 -52 100 -53 144 -7 38 40 54 97 43 146
-39 175 -60 306 -78 480 -40 404 -44 419 -113 451 -64 28 -136 24 -242 -15z"/>
<path d="M13795 13741 c-522 -187 -960 -480 -1238 -828 -126 -158 -261 -395
-321 -561 -100 -281 -140 -539 -134 -872 3 -192 5 -208 27 -250 50 -97 116
-137 201 -124 46 8 208 101 310 179 259 197 313 235 349 246 79 23 104 -5 146
-166 33 -130 98 -289 140 -347 46 -63 103 -100 165 -106 94 -9 109 -1 252 133
143 134 322 327 351 378 37 69 9 123 -60 115 -92 -11 -162 25 -215 110 -48 78
-67 259 -48 457 16 164 23 407 13 422 -5 7 -24 16 -42 19 -37 8 -30 14 -289
-271 -194 -213 -401 -418 -459 -455 -62 -40 -109 -41 -124 -2 -22 54 -4 300
35 492 80 388 214 689 413 924 81 97 101 109 178 114 56 4 70 1 109 -22 74
-43 95 -75 179 -271 61 -141 164 -274 285 -364 74 -56 105 -62 144 -31 55 43
71 122 44 216 -27 91 -45 217 -87 603 -12 114 -27 207 -35 224 -36 69 -156 85
-289 38z"/>
<path d="M23335 13670 c-212 -34 -346 -75 -520 -160 -152 -73 -275 -156 -406
-273 -93 -83 -261 -269 -292 -323 -7 -12 -25 -41 -41 -65 -74 -110 -93 -145
-176 -314 -90 -184 -170 -395 -196 -520 -19 -89 -19 -285 0 -393 59 -330 241
-567 506 -658 77 -26 318 -27 440 0 192 41 460 165 648 299 35 26 42 36 42 64
0 62 -46 123 -92 123 -18 0 -53 -17 -90 -41 -33 -23 -99 -60 -147 -82 -82 -39
-91 -41 -181 -42 -68 0 -112 6 -154 19 -211 70 -283 241 -257 612 7 88 15 174
20 190 l7 29 124 7 c204 11 437 71 600 153 340 172 587 508 700 955 40 155 26
247 -48 323 -52 54 -116 84 -218 102 -104 18 -127 18 -269 -5z m-38 -226 c25
-34 27 -43 27 -128 0 -152 -47 -332 -129 -501 -113 -231 -280 -367 -525 -429
-96 -23 -190 -32 -190 -17 0 20 107 335 146 429 94 228 231 426 391 567 98 85
152 115 210 115 37 0 46 -5 70 -36z"/>
<path d="M18015 13665 c-143 -26 -314 -110 -523 -256 -63 -44 -126 -86 -142
-94 l-27 -14 -5 102 c-4 90 -8 110 -34 156 -15 29 -44 65 -63 80 -33 25 -39
26 -165 26 -181 0 -238 -18 -636 -200 -113 -51 -264 -115 -274 -115 -3 0 -12
24 -22 53 -26 79 -49 120 -96 168 -50 51 -95 75 -169 89 -76 15 -224 12 -325
-5 -117 -21 -334 -85 -334 -99 0 -6 20 -42 45 -79 53 -82 73 -159 55 -213 -36
-109 -557 -1146 -775 -1544 -29 -52 -90 -165 -136 -250 l-84 -155 0 -75 c0
-63 4 -80 23 -108 59 -82 166 -93 377 -38 72 19 156 44 187 56 84 31 174 95
217 154 21 28 120 213 220 411 258 515 303 595 469 847 194 293 342 448 459
480 42 12 73 -4 73 -38 0 -27 -37 -106 -80 -169 -45 -68 -171 -292 -286 -509
-119 -224 -397 -815 -435 -925 -50 -144 -3 -258 120 -291 89 -24 179 3 426
128 133 68 158 85 225 152 61 61 87 98 138 195 65 126 99 189 227 425 244 451
364 646 535 870 32 41 71 87 86 102 43 40 126 78 171 78 87 0 85 -48 -8 -211
-279 -484 -535 -1011 -588 -1209 -74 -276 -33 -488 105 -546 20 -8 69 -14 122
-14 171 0 369 72 542 196 138 99 205 179 178 211 -10 12 -25 14 -75 9 -62 -6
-63 -6 -74 21 -13 33 -4 142 17 212 8 27 78 179 155 338 78 158 190 387 249
508 382 781 400 819 400 857 0 80 -81 187 -174 229 -49 22 -182 24 -291 4z"/>
<path d="M20443 13650 c-90 -18 -300 -84 -316 -100 -5 -4 7 -36 25 -70 29 -56
33 -73 33 -139 0 -70 -4 -85 -52 -193 -63 -141 -114 -258 -266 -608 -63 -146
-126 -290 -140 -320 -14 -30 -39 -86 -56 -125 -75 -165 -133 -286 -258 -534
-111 -220 -133 -272 -133 -309 0 -60 24 -105 73 -139 41 -27 45 -28 177 -28
154 1 227 17 296 67 43 30 74 85 149 258 99 229 360 694 593 1055 122 190 314
456 365 507 109 109 216 108 192 -2 -4 -17 -123 -266 -265 -553 -269 -544
-438 -910 -467 -1006 -23 -81 -22 -185 4 -242 42 -94 130 -129 318 -130 136 0
199 14 310 65 103 48 112 66 96 206 -17 164 -15 187 30 312 58 158 205 501
302 703 82 172 96 200 282 560 121 233 157 338 157 460 1 99 -12 142 -58 186
l-35 34 -137 -1 c-122 -1 -147 -4 -222 -29 -147 -48 -268 -115 -440 -245 -41
-31 -80 -59 -87 -63 -14 -9 -28 51 -43 184 -6 52 -18 113 -26 136 -18 51 -70
98 -121 112 -56 16 -176 12 -280 -9z"/>
<path d="M18880 13537 c0 -1 9 -49 20 -107 28 -149 26 -209 -11 -305 -36 -95
-175 -367 -281 -550 -42 -71 -108 -186 -148 -255 -165 -284 -290 -563 -340
-760 -18 -69 -21 -107 -18 -205 3 -104 6 -126 27 -168 30 -57 94 -103 158
-113 111 -16 390 36 536 101 l55 24 -14 63 c-16 75 -18 235 -3 298 29 128 223
552 389 850 108 194 277 537 299 608 39 126 61 252 68 390 l6 132 -371 0
c-205 0 -372 -1 -372 -3z"/>
</g>
</svg>
