<svg xmlns="http://www.w3.org/2000/svg" width="244.405" height="188.626" viewBox="0 0 244.405 188.626">
  <g id="TaylorGuitars_Logo_Circular_White_1_" data-name="TaylorGuitars_Logo_Circular_White (1)" transform="translate(-0.007 -0.01)">
    <g id="Group_1624" data-name="Group 1624" transform="translate(54.083 0.01)">
      <path id="Path_622" data-name="Path 622" d="M237.713,607.77a14.137,14.137,0,0,0-1.746-2.382,12.015,12.015,0,0,0-1.734-1.61,8.047,8.047,0,0,0-1.915-1.051,6.554,6.554,0,0,0-2.162-.426,5.883,5.883,0,0,0-2.232.373,6.91,6.91,0,0,0-2.194,1.383,7.414,7.414,0,0,0-1.905,2.6,5.862,5.862,0,0,0-.458,2.053,6.5,6.5,0,0,0,.322,2.307,9.112,9.112,0,0,0,1.944,3.23,12.846,12.846,0,0,0,1.908,1.741,21.344,21.344,0,0,0,2.67,1.646l.046.024.034-.039a13.4,13.4,0,0,1,1.014-1.017c.223-.2.605-.523,1.165-.981.276-.223.375-.247.414-.247a1.265,1.265,0,0,1,.649.305l.041.031.542-.487-1.925-2.094-1.859-2.131-.651.581.036.046a11.409,11.409,0,0,1,1.034,1.416.31.31,0,0,1,.048.235,3.629,3.629,0,0,1-.721.738c-.07.063-.264.23-.651.557-.332.281-.571.477-.712.581a6.127,6.127,0,0,1-1-.579,5.351,5.351,0,0,1-.889-.8,4.617,4.617,0,0,1-1.174-3.7,6.183,6.183,0,0,1,2.244-3.951,5.357,5.357,0,0,1,3.816-1.576,4.868,4.868,0,0,1,3.489,1.777,6.2,6.2,0,0,1,1,1.462,4.919,4.919,0,0,1,.443,1.441,2.262,2.262,0,0,1,0,.639,4.62,4.62,0,0,1-.438.511c-.266.269-.477.477-.627.613l-.046.041.576.642.046-.034a18.719,18.719,0,0,1,2.4-1.61l.019-.01.1-.213-.007-.024a10.687,10.687,0,0,0-.947-2Z" transform="translate(-223.361 -456.477)" fill="#000000"/>
      <path id="Path_623" data-name="Path 623" d="M326.556,670.695c-.191-.111-.789-.487-1.683-1.056l-.058-.036-.45.775.051.031a3.694,3.694,0,0,1,1.036.811.389.389,0,0,1,.063.257,5.737,5.737,0,0,1-.588,1.257c-.172.307-.661,1.15-1.491,2.574l-.952,1.629a7.285,7.285,0,0,1-1.608,2.126,2.48,2.48,0,0,1-1.453.428H319.4a4.077,4.077,0,0,1-1.959-.646,4.491,4.491,0,0,1-1.407-1.194,2.411,2.411,0,0,1-.484-1.252,3.028,3.028,0,0,1,.324-1.4c.111-.237.443-.833,1.019-1.818l.535-.935,1.082-1.852a14.65,14.65,0,0,1,1.378-2.1.384.384,0,0,1,.276-.165h.017a2.941,2.941,0,0,1,1.131.477l.056.031.453-.775-1.453-.794-1.087-.61-2.62-1.605-.448.77,1.01.746a.64.64,0,0,1,.068.276,1.88,1.88,0,0,1-.194.545c-.32.605-.7,1.29-1.133,2.031l-1.184,2.026-.9,1.53c-.5.852-.78,1.37-.867,1.579a3.426,3.426,0,0,0-.036,2.525,4.286,4.286,0,0,0,.891,1.395,8.926,8.926,0,0,0,2.092,1.661,7.948,7.948,0,0,0,1.973.852,5.139,5.139,0,0,0,1.254.167,4.125,4.125,0,0,0,.523-.034,3.946,3.946,0,0,0,1.487-.47,4.186,4.186,0,0,0,1.2-1.082,13.008,13.008,0,0,0,.976-1.428l1.1-1.876c.315-.545.767-1.273,1.378-2.232a12.377,12.377,0,0,1,1.048-1.535.474.474,0,0,1,.264-.138,2.479,2.479,0,0,1,.964.419l.056.031.453-.775-1.862-1.017c-.1-.051-.169-.087-.216-.116Z" transform="translate(-291.109 -503.885)" fill="#000000"/>
      <path id="Path_624" data-name="Path 624" d="M422.768,712.849c-.976-.245-1.84-.482-2.574-.709l-.063-.019-.23.915.058.017a10.739,10.739,0,0,1,1.1.353.374.374,0,0,1,.165.131.342.342,0,0,1,.031.169,11.433,11.433,0,0,1-.245,1.441c-.07.337-.252,1.087-.554,2.3l-.935,3.75c-.15.6-.339,1.257-.567,1.968a8.293,8.293,0,0,1-.278.816.215.215,0,0,1-.094.1.476.476,0,0,1-.245.027c-.068,0-.312-.041-1.085-.2l-.061-.012-.228.915.065.012c.767.145,1.637.339,2.588.579,1.109.276,2.152.557,3.1.84l.063.017.23-.915-.061-.017a9.3,9.3,0,0,1-1.044-.32.635.635,0,0,1-.22-.157.3.3,0,0,1-.061-.189,5.135,5.135,0,0,1,.206-1.206l.383-1.646.9-3.615c.024-.1.206-.777.627-2.368.121-.46.2-.729.245-.869a2.077,2.077,0,0,1,.23-.545.24.24,0,0,1,.109-.1.568.568,0,0,1,.216-.031h.024a8.488,8.488,0,0,1,1.085.2l.061.012.23-.913-.065-.015c-.971-.2-2.019-.436-3.116-.707Z" transform="translate(-370.095 -539.71)" fill="#000000"/>
      <path id="Path_625" data-name="Path 625" d="M519.7,724.135c-.3.039-.581.068-.852.087-.508.031-1.525.068-3.109.111l-3.731.1c-1.356.036-2.332.056-2.9.056h-.155c-.324,0-.634-.017-.922-.041H508l-.121.14,0,.029c.051.31.092.6.116.869.01.172.048.949.1,2.13v.063l.9-.024v-.063a8.8,8.8,0,0,1,.1-1.445c.034-.23.07-.278.082-.29s.048-.034.31-.065c.5-.056,1.068-.094,1.75-.111l1.261-.036c.024.261.051,1.073.092,2.469l.15,5.535a15.33,15.33,0,0,1-.034,2.38.513.513,0,0,1-.242.339,4.129,4.129,0,0,1-1.283.177l-.061,0,.024.888.068,0c1.123-.087,2.138-.143,3.012-.167.821-.022,1.838-.022,3.017,0h.065l-.024-.886h-.063a4.121,4.121,0,0,1-1.3-.109.482.482,0,0,1-.254-.31,15.277,15.277,0,0,1-.165-2.382l-.153-5.537c-.039-1.375-.051-2.186-.044-2.47l1.261-.034c.7-.017,1.315-.012,1.818.024a.8.8,0,0,1,.259.039c.012.012.056.073.111.358a11.11,11.11,0,0,1,.155,1.365v.063l.9-.024V727.3c-.024-1.75-.022-1.995-.019-2.024a9.54,9.54,0,0,1,.075-.985v-.031l-.138-.131-.029,0Z" transform="translate(-438.995 -548.813)" fill="#000000"/>
      <path id="Path_626" data-name="Path 626" d="M625.921,718.028c-.174.036-.307.063-.4.08a2.868,2.868,0,0,1-.518.1h0a.468.468,0,0,1-.189-.044.948.948,0,0,1-.218-.157l-.61-.7-.927-1.034-6.857-7.951-.029-.032-1.334.421-.143,2.29-.5,6.4c-.09,1.162-.157,2-.2,2.438-.09.893-.148,1.395-.177,1.53a1.027,1.027,0,0,1-.1.305.6.6,0,0,1-.179.179,6.04,6.04,0,0,1-.809.356l-.056.022.269.852,2.06-.724,2.114-.6-.269-.855-.06.017a5.536,5.536,0,0,1-1.189.247.447.447,0,0,1-.087,0,.281.281,0,0,1-.189-.213,7.022,7.022,0,0,1-.039-1.629l.051-1.131,4.46-1.414,1.341,1.658a2.316,2.316,0,0,1,.419.637.216.216,0,0,1-.041.23,5.1,5.1,0,0,1-1.14.484l-.056.019.269.855,3.133-1.063,2.53-.731-.269-.85-.058.012Zm-6.97-2.23c-.5.177-1.065.363-1.721.574s-1.261.39-1.8.545l.351-4.883Z" transform="translate(-518.414 -536.807)" fill="#000000"/>
      <path id="Path_627" data-name="Path 627" d="M709.783,667.3a1.693,1.693,0,0,1-.5.257.86.86,0,0,1-.354-.017c-.15-.031-.591-.169-1.3-.409-.039-.015-.264-.1-.671-.264l-2.748-1.094c-.063-.024-.121-.051-.182-.08s-.237-.1-.588-.237c-.3-.119-.583-.24-.84-.363a4.6,4.6,0,0,0,.908-2.38,3.373,3.373,0,0,0-.591-2.111,2.611,2.611,0,0,0-1.358-1.056,2.456,2.456,0,0,0-1.542-.019,8.515,8.515,0,0,0-1.925,1.065c-.407.281-.913.646-1.537,1.119-.358.278-.8.6-1.346.971-.61.419-1.1.748-1.46.976-.734.467-1.131.721-1.244.8l-.051.036.5.729L693,665.2a4.83,4.83,0,0,1,1.2-.608h.017a.265.265,0,0,1,.145.041,6.057,6.057,0,0,1,.862,1.065l1.14,1.583,1.942,2.828,1.467,2.269a8.135,8.135,0,0,1,.537.947.49.49,0,0,1,.075.225.267.267,0,0,1-.068.133,6.583,6.583,0,0,1-.959.777l-.051.036.533.777.053-.041c.649-.5,1.378-1.022,2.162-1.562.889-.608,1.784-1.2,2.673-1.755l.056-.036-.533-.775-.051.034a9.887,9.887,0,0,1-.906.557.717.717,0,0,1-.249.065h0a.311.311,0,0,1-.143-.034,2.159,2.159,0,0,1-.448-.484c-.109-.136-.533-.724-1.269-1.75-.579-.813-1.148-1.625-1.685-2.411-.327-.472-.959-1.426-1.934-2.913-.39-.6-.651-1.012-.775-1.223a5.6,5.6,0,0,1,.637-.516,4.569,4.569,0,0,1,1.2-.659,2.093,2.093,0,0,1,1.237.075,2.32,2.32,0,0,1,1.106.915,2.976,2.976,0,0,1,.53,1.443,2.151,2.151,0,0,1-.242,1.278,3.748,3.748,0,0,1-1.23,1.114l-.041.024.116.4h.046a2.667,2.667,0,0,1,.8.177c.622.218,1.441.557,2.433,1l3.474,1.571a2.027,2.027,0,0,1,.467.3l.039.036.043-.034c.375-.286.775-.576,1.189-.859.358-.247.937-.627,1.719-1.135l.056-.034-.533-.775-.051.034Z" transform="translate(-578.878 -499.766)" fill="#000000"/>
      <path id="Path_628" data-name="Path 628" d="M786.366,597.881a3.959,3.959,0,0,0-1.06-.659,3.05,3.05,0,0,0-1-.237,2.586,2.586,0,0,0-.978.16,4.831,4.831,0,0,0-1.152.637c-.148.111-.46.368-.978.8-.482.407-.876.729-1.167.959a4.142,4.142,0,0,1-.978.545,1.418,1.418,0,0,1-.784.034,2.18,2.18,0,0,1-.862-.467,1.9,1.9,0,0,1-.673-1.436,2.706,2.706,0,0,1,.748-1.852,3.791,3.791,0,0,1,1.237-.993,2.361,2.361,0,0,1,1.143-.293,12.863,12.863,0,0,1,1.2.891l.051.039.579-.69-.046-.041c-.465-.416-.838-.765-1.1-1.039a11.384,11.384,0,0,1-.775-.9l-.01-.015-.259-.1-.027.01a6.451,6.451,0,0,0-1.428.906,10.249,10.249,0,0,0-1.366,1.349,8.37,8.37,0,0,0-1.031,1.554,4.849,4.849,0,0,0-.513,1.7,3.5,3.5,0,0,0,.305,1.78,4.309,4.309,0,0,0,1.2,1.586,4.017,4.017,0,0,0,1.232.717,2.91,2.91,0,0,0,1.336.153,3.253,3.253,0,0,0,1.382-.545c.305-.2.9-.649,1.806-1.361a7.241,7.241,0,0,1,1.428-.905,1.552,1.552,0,0,1,.91-.087,2.08,2.08,0,0,1,.876.465,2.408,2.408,0,0,1,.731,1.01,2.023,2.023,0,0,1,.014,1.276,3.7,3.7,0,0,1-.76,1.373,3.96,3.96,0,0,1-1.5,1.126,2.885,2.885,0,0,1-1.5.269,11.517,11.517,0,0,1-1.315-.976l-.051-.044-.583.695.051.041a13.448,13.448,0,0,1,2.254,2.278l.029.044.048-.022a9.629,9.629,0,0,0,1.826-1.031,8.742,8.742,0,0,0,1.474-1.424,7.242,7.242,0,0,0,1.385-2.346,5.017,5.017,0,0,0,.23-1.593,4.481,4.481,0,0,0-.291-1.6,4.334,4.334,0,0,0-1.3-1.738Z" transform="translate(-641.533 -449.605)" fill="#000000"/>
      <path id="Path_629" data-name="Path 629" d="M242.112,121.484a1.421,1.421,0,0,1-.133.264,2.262,2.262,0,0,1-.283.378,3.111,3.111,0,0,1-.438.387,9.34,9.34,0,0,1-.884.593c-.153.085-.683.373-1.533.835a25.081,25.081,0,0,0-2.276,1.351c.065-.068.131-.138.194-.211a7.247,7.247,0,0,0,2.152-5.227,7.093,7.093,0,0,0-2.583-4.963,7.009,7.009,0,0,0-2.617-1.586,5.69,5.69,0,0,0-2.143-.206,5.856,5.856,0,0,0-2.315.7,8.882,8.882,0,0,0-2.3,1.891,9.568,9.568,0,0,0-1.811,2.767,6.11,6.11,0,0,0,.2,4.857,8.653,8.653,0,0,0,4.675,4.067,5.742,5.742,0,0,0,2.08.249,5.829,5.829,0,0,0,2.312-.675,7.491,7.491,0,0,0,1.608-1.133,5.391,5.391,0,0,0-.218.729c-.053.24-.133.765-.252,1.656a7.191,7.191,0,0,0-.087,1.012v.041l.692.3.015-.08a13.5,13.5,0,0,1,.329-1.47,1.354,1.354,0,0,1,.259-.429,7.421,7.421,0,0,1,.956-.767c.38-.261,1.121-.729,2.2-1.382a21.52,21.52,0,0,0,1.968-1.312,6.81,6.81,0,0,0,.721-.61l.015-.017v-.022c.015-.165.048-.4.1-.7.155-.816.254-1.312.315-1.566l.007-.036-.62-.562-.305.872Zm-5.024.731a3.871,3.871,0,0,1-.954,1.852,3.569,3.569,0,0,1-3.315,1.249,7.859,7.859,0,0,1-3.992-2.16,8.864,8.864,0,0,1-1.5-1.731,4.533,4.533,0,0,1-.695-1.649,3.3,3.3,0,0,1,.053-1.436,4.227,4.227,0,0,1,.981-1.685,3.9,3.9,0,0,1,1.622-1.152,3.369,3.369,0,0,1,1.034-.162,3.954,3.954,0,0,1,.7.065,6.015,6.015,0,0,1,1.881.719,10.533,10.533,0,0,1,1.821,1.334,8.411,8.411,0,0,1,1.976,2.491,3.6,3.6,0,0,1,.385,2.261Z" transform="translate(-224.404 -85.703)" fill="#000000"/>
      <path id="Path_630" data-name="Path 630" d="M331.8,35.919l-1-1.927c-.293-.559-.683-1.351-1.157-2.356a12.372,12.372,0,0,1-.741-1.7.482.482,0,0,1,.022-.291,2.368,2.368,0,0,1,.869-.6l.058-.029-.416-.794-1.852,1.031-.213.123c-.184.094-.77.378-1.789.859l-.061.029.414.794.056-.027a3.636,3.636,0,0,1,1.244-.445.385.385,0,0,1,.245.085,5.667,5.667,0,0,1,.751,1.167c.177.324.654,1.235,1.382,2.634l.874,1.673a7.269,7.269,0,0,1,.942,2.491A2.5,2.5,0,0,1,331,40.112a4.053,4.053,0,0,1-1.588,1.315,4.467,4.467,0,0,1-1.76.554,2.42,2.42,0,0,1-1.32-.257,2.98,2.98,0,0,1-1.01-1.019c-.145-.225-.482-.84-1-1.83l-.508-.954-.993-1.9a15.04,15.04,0,0,1-1.048-2.286.4.4,0,0,1,.007-.322,2.765,2.765,0,0,1,1.014-.717l.056-.029-.414-.794-1.448.806-1.094.6-2.753,1.363.412.789,1.169-.46a.621.621,0,0,1,.271.09,1.828,1.828,0,0,1,.356.455c.344.6.722,1.283,1.119,2.041l1.085,2.082.813,1.579c.458.876.743,1.392.874,1.576a3.455,3.455,0,0,0,.85.838,3.371,3.371,0,0,0,1.269.537,3.515,3.515,0,0,0,.748.075,5.1,5.1,0,0,0,.908-.087,8.884,8.884,0,0,0,2.52-.884,7.889,7.889,0,0,0,1.77-1.218,4.713,4.713,0,0,0,1.06-1.431,3.98,3.98,0,0,0,.395-1.508,4.206,4.206,0,0,0-.274-1.593,13.146,13.146,0,0,0-.692-1.588Z" transform="translate(-294.435 -21.39)" fill="#000000"/>
      <path id="Path_631" data-name="Path 631" d="M461.356,11.668c-.179,0-.315.01-.412.01-.169.012-.3.019-.395.019a.951.951,0,0,1-.133-.007.45.45,0,0,1-.179-.075.845.845,0,0,1-.186-.194l-.482-.792-.741-1.174L453.393.42l-1.385.191-.528,2.232L449.9,9.071c-.3,1.194-.5,1.968-.605,2.368-.235.847-.38,1.344-.431,1.477a1.081,1.081,0,0,1-.157.286.575.575,0,0,1-.2.145,6.134,6.134,0,0,1-.857.213l-.058.012.121.884,2.152-.363,2.186-.235-.124-.886-.061.007a9.194,9.194,0,0,1-.922.061,1.163,1.163,0,0,1-.375-.039.275.275,0,0,1-.153-.24,6.922,6.922,0,0,1,.237-1.612l.24-1.106,4.634-.639,1.043,1.862a2.309,2.309,0,0,1,.305.7.214.214,0,0,1-.08.22,4.895,4.895,0,0,1-1.206.283l-.061.012.121.886,3.266-.518,2.62-.293-.121-.884h-.058Zm-6.5-3.373c-.537.092-1.14.182-1.794.274-.68.094-1.307.172-1.864.232l1.172-4.75L454.861,8.3Z" transform="translate(-393.302 -0.321)" fill="#000000"/>
      <path id="Path_632" data-name="Path 632" d="M575.852,11.2c-.223.567-.441,1.075-.646,1.511-.109.211-.167.266-.191.281a.7.7,0,0,1-.281.029c-.046,0-.1,0-.155,0a15.926,15.926,0,0,1-2.428-.283c-.3-.056-.85-.179-1.637-.368.034-.208.119-.678.266-1.491q.232-1.278.465-2.576.45-2.462.479-2.624c.189-1.019.361-1.864.511-2.516a6.783,6.783,0,0,1,.288-1.087.246.246,0,0,1,.143-.121,4.346,4.346,0,0,1,1.257.073l.063.01.172-.925-.065-.01c-.993-.14-2.051-.315-3.145-.518-.983-.184-1.864-.37-2.622-.552L568.261.01l-.174.927.061.015a3.867,3.867,0,0,1,1.339.429.226.226,0,0,1,.085.148,11.5,11.5,0,0,1-.252,1.956c-.07.441-.281,1.6-.644,3.545-.237,1.286-.46,2.409-.659,3.341s-.324,1.455-.383,1.6a.132.132,0,0,1-.048.065.808.808,0,0,1-.257.123,6.163,6.163,0,0,1-.721.228l-.041.01-.107.574.065.01c1.22.169,2.135.312,2.721.421.4.075,1.107.218,2.082.424,1.278.269,2.014.421,2.128.443.772.143,1.353.235,1.734.276.087.007.177.01.266.01s.194,0,.293-.012l.046,0,.01-.046c.029-.121.131-.494.271-1.017l.571-1.8c0-.024.029-.114.08-.288l.022-.068-.876-.162-.017.048Z" transform="translate(-483.392 -0.01)" fill="#000000"/>
      <path id="Path_633" data-name="Path 633" d="M672.656,47.038l.755-1.513,1.717-3.307c.048-.092.378-.707,1.162-2.157.213-.4.356-.656.441-.789a1.992,1.992,0,0,1,.351-.479.241.241,0,0,1,.128-.07.687.687,0,0,1,.242.024,9.348,9.348,0,0,1,1.01.448l.056.027.433-.838-.061-.029c-.9-.421-1.867-.9-2.867-1.414-.889-.46-1.675-.893-2.336-1.286l-.058-.034-.436.838.053.029a9.081,9.081,0,0,1,.99.6.409.409,0,0,1,.131.167.344.344,0,0,1-.007.169,11.716,11.716,0,0,1-.574,1.344c-.152.317-.511,1.027-1.073,2.106l-1.78,3.431c-.281.542-.62,1.143-1.01,1.784a7.946,7.946,0,0,1-.46.729.213.213,0,0,1-.114.07.493.493,0,0,1-.245-.031c-.065-.019-.293-.114-1.007-.45l-.053-.027-.436.835.063.029c.709.32,1.511.712,2.382,1.165,1,.516,1.944,1.034,2.823,1.537l.058.034.433-.835-.056-.029a8.923,8.923,0,0,1-.939-.554.641.641,0,0,1-.179-.206.328.328,0,0,1-.015-.2,5.061,5.061,0,0,1,.482-1.126Z" transform="translate(-560.053 -26.998)" fill="#000000"/>
      <path id="Path_634" data-name="Path 634" d="M755.418,103.622l3.871-3.958c.947-.968,1.533-1.554,1.741-1.748l.9.881c.5.492.92.935,1.247,1.322.138.16.15.211.15.213s-.012.09-.179.329a10.866,10.866,0,0,1-.874,1.063l-.041.046.637.625.046-.044c1.138-1.131,1.409-1.395,1.441-1.421a9.614,9.614,0,0,1,.758-.632l.027-.019v-.194l-.027-.019c-.225-.177-.445-.363-.656-.552-.392-.358-1.148-1.082-2.242-2.155l-2.668-2.61c-1.1-1.075-1.806-1.78-2.162-2.157-.23-.24-.436-.472-.615-.688l-.019-.024-.189.012-.017.024c-.186.249-.37.482-.545.688-.109.119-.6.642-1.462,1.559l-.041.046.637.625.046-.044a9.091,9.091,0,0,1,1.106-.935c.177-.128.242-.143.269-.143h0a.906.906,0,0,1,.261.179c.39.322.828.717,1.3,1.179l.9.884c-.174.2-.748.8-1.712,1.782l-3.871,3.959a15.509,15.509,0,0,1-1.734,1.629.5.5,0,0,1-.409.061,4.175,4.175,0,0,1-1.019-.8l-.046-.041-.62.634.051.044c.845.751,1.591,1.441,2.213,2.048.584.571,1.29,1.3,2.1,2.167l.046.048.62-.634-.044-.046a4.092,4.092,0,0,1-.823-1.007.479.479,0,0,1,.046-.4,15.148,15.148,0,0,1,1.6-1.777Z" transform="translate(-622.199 -69.637)" fill="#000000"/>
      <path id="Path_635" data-name="Path 635" d="M828.167,187.708h-.039c-.2.012-.637.012-1.315,0-1.968-.019-3.164-.034-3.552-.041l-2.092-.1c.247-.346.765-1.114,1.552-2.288a22.1,22.1,0,0,0,1.37-2.293,5.994,5.994,0,0,0,.467-1.082,4.363,4.363,0,0,0,.094-1v-.027l-.017-.019c-.242-.252-.479-.513-.709-.775l-1.322-1.566-.707.392.029.056a3.134,3.134,0,0,1,.339.709,3.428,3.428,0,0,1-.208.843,14.653,14.653,0,0,1-1.036,2.276c-.576,1.063-1.2,2.118-1.842,3.135a2.419,2.419,0,0,1-.579.712l-1.537.85c-.426.235-.959.513-1.591.823a1.416,1.416,0,0,1-.494.177h0a.36.36,0,0,1-.2-.133,10.1,10.1,0,0,1-.661-1.029l-.031-.053-.823.455.036.058c.494.811.968,1.627,1.409,2.424.453.818.949,1.765,1.479,2.818l.029.058.826-.455-.029-.056a7.822,7.822,0,0,1-.521-1.087.458.458,0,0,1,.007-.283c.017-.041.1-.15.477-.412.293-.206.784-.5,1.462-.874l1.37-.755a3.574,3.574,0,0,1,.617-.288,2.841,2.841,0,0,1,.717-.1c.441-.01,1.474.039,3.06.14s3.029.237,4.264.407h.022l.438-.24-.755-1.373Z" transform="translate(-670.439 -135.293)" fill="#000000"/>
    </g>
    <g id="Group_1625" data-name="Group 1625" transform="translate(0.007 47.49)">
      <path id="Path_636" data-name="Path 636" d="M972.51,538.269a3,3,0,1,1,2.995,3.07A3.043,3.043,0,0,1,972.51,538.269Zm5.53-.01a2.527,2.527,0,1,0-2.535,2.588A2.557,2.557,0,0,0,978.04,538.26Zm-3.482-1.307c0-.216-.027-.242-.242-.252h-.131v-.179H975.5a1.882,1.882,0,0,1,.935.148.834.834,0,0,1,.356.656.915.915,0,0,1-.84.891c.356.073.528.467.668.77a3.856,3.856,0,0,0,.276.535.277.277,0,0,0,.276.131v.172h-.588c-.121-.034-.182-.034-.269-.138-.191-.223-.45-1.056-.615-1.235a.471.471,0,0,0-.414-.123h-.128v1.058c.007.182.027.259.223.259l.15.01v.172h-1.349v-.172h.121c.2-.017.259-.01.259-.235v-2.467Zm.6,1.162.165.007c.491,0,.864-.138.864-.717a.625.625,0,0,0-.7-.695l-.182.017c-.174,0-.148.2-.148.32v1.065Z" transform="translate(-737.056 -453.09)" fill="#000000"/>
      <path id="Path_637" data-name="Path 637" d="M117.305,285.791c3.762-3.825,6.263-10.316,6.041-16.761a.253.253,0,0,0-.223-.249,2.223,2.223,0,0,0-.358.126,16.113,16.113,0,0,1-16.6-2.842,16.765,16.765,0,0,1-12.2,5.29A16.581,16.581,0,0,1,83.9,268a17.5,17.5,0,0,1-13.1,6.055,18.018,18.018,0,0,1-10.215-2.9,16.76,16.76,0,0,1-11.3,6.283c-11.863,1.588-18.342,3.249-25.368,8.9l-.688.554L21.141,284.5l.738-.6c7.1-5.794,8.057-12.319,8.057-17.936L29.952,218c-4.755.245-9.781.387-14.323.407a4.107,4.107,0,0,0-3.968,4.239c0,2.2,1.542,4.145,4.869,4.4a14.216,14.216,0,0,1-7.421.525,11.489,11.489,0,0,1-7.365-4.6h0a11.23,11.23,0,0,1-1.336-9.04c1.281-4.6,5.869-7.733,11.086-7.9h0a305.326,305.326,0,0,0,41.343-2.741c7.818-1.06,15.558-2.4,22.925-4.111a14.659,14.659,0,0,1-2.518,9.619c-2.075,2.833-5.341,4.622-9.5,5.365C56.8,215.411,49.58,216.4,42.275,217.1l-.031,44.5a5.138,5.138,0,1,0,10.275,0l0-9.844A40.056,40.056,0,0,1,54.8,237.753c3.593-9.142,11.294-14.176,21.686-14.176H78.5a27.058,27.058,0,0,0,8.939-1.06l1.223-.424.029,31.695a5.983,5.983,0,1,0,11.965,0V231.33a2.027,2.027,0,0,0-2.048-2,2.321,2.321,0,0,0-1.767.876A8.089,8.089,0,1,1,113,229.718l-.031,23.579a5.167,5.167,0,0,0,10.333,0V222.723h12.331v30.324a5.662,5.662,0,1,0,11.324,0l0-50.681a3.147,3.147,0,0,0-3.14-3.145H142.9v-3.1l16.388.027v59.521a4.56,4.56,0,1,0,9.12,0V245.9c0-14.292,7.709-24.274,18.747-24.274,4.377,0,8.045,1.571,12.261,5.254.487.424.949.843,1.395,1.244,2.465,2.225,4.247,3.833,6.571,3.833,2.535,0,4.23-1.157,6.481-4.423a7.859,7.859,0,0,1,6.624-3.666,7.61,7.61,0,0,1,5.881,2.767,14.015,14.015,0,0,1,7.3-2.024,14.717,14.717,0,0,1,10.215,4.266l.53.511-5.624,9.278a8.243,8.243,0,0,0-5.278-2.4,6.825,6.825,0,0,0-6.818,6.818l.029,23.577a12.771,12.771,0,0,0,5.641,11.1l.581.39-.981,2.983-.925-.4A73.715,73.715,0,0,0,208.92,275l-.833-.082v-2.973l.9-.017c3.377-.07,5.317-2.094,5.317-5.554l.034-20.5a4.205,4.205,0,0,0-8.411,0l-.029,3.658c0,14.285-7.706,24.264-18.742,24.264a16.426,16.426,0,0,1-12.96-6.1,16.352,16.352,0,0,1-22.988-1.431,15.532,15.532,0,0,1-15.531,3.126,35.637,35.637,0,0,1-4.409,17.35c-3.5,5.949-8.639,9.019-14.863,9.019-4.147.029-9.876-2.249-12.435-7.389a10.627,10.627,0,0,0,4.956,1.228,11.638,11.638,0,0,0,8.384-3.8M76.333,235.25a10.759,10.759,0,0,0-7.464,2.857,13.254,13.254,0,0,0-2.748,4.169,23.844,23.844,0,0,0-1.525,8.21v.324c0,3.026,0,5.639,1.506,8.631a5.3,5.3,0,0,0,4.816,3.1c3.152,0,5.44-2.69,5.44-6.392l-.022-20.9Zm110.824-1.324c-1.927,0-6.414,1.169-6.414,12.006v3.552c0,10.834,4.486,12,6.414,12s6.411-1.169,6.411-12v-3.552c0-10.837-4.484-12.006-6.411-12.006Z" transform="translate(-0.007 -196.12)" fill="#000000"/>
    </g>
  </g>
</svg>